%TF.GenerationSoftware,KiCad,Pcbnew,7.0.1-0*%
%TF.CreationDate,2023-03-28T15:50:49-07:00*%
%TF.ProjectId,Kit-Brainboard,4b69742d-4272-4616-996e-626f6172642e,rev?*%
%TF.SameCoordinates,PXb4807f0PY7674b50*%
%TF.FileFunction,Drillmap*%
%TF.FilePolarity,Positive*%
%FSLAX45Y45*%
G04 Gerber Fmt 4.5, Leading zero omitted, Abs format (unit mm)*
G04 Created by KiCad (PCBNEW 7.0.1-0) date 2023-03-28 15:50:49*
%MOMM*%
%LPD*%
G01*
G04 APERTURE LIST*
%ADD10C,0.100000*%
%ADD11C,0.200000*%
%ADD12C,0.020000*%
%ADD13C,0.030000*%
%ADD14C,0.050000*%
%ADD15C,0.055000*%
G04 APERTURE END LIST*
D10*
X0Y0D02*
X4000000Y0D01*
X4000000Y6800000D02*
X1000Y6800000D01*
X0Y6800000D02*
X0Y0D01*
X1000Y6800000D02*
X0Y6800000D01*
X4000000Y6800000D02*
X4000000Y1D01*
D11*
D12*
X45000Y841000D02*
X65000Y821000D01*
X65000Y841000D02*
X45000Y821000D01*
X66000Y2277000D02*
X86000Y2257000D01*
X86000Y2277000D02*
X66000Y2257000D01*
X108000Y5468000D02*
X128000Y5448000D01*
X128000Y5468000D02*
X108000Y5448000D01*
X134000Y4360000D02*
X154000Y4340000D01*
X154000Y4360000D02*
X134000Y4340000D01*
X134750Y4031100D02*
X154750Y4011100D01*
X154750Y4031100D02*
X134750Y4011100D01*
X147800Y4937050D02*
X167800Y4917050D01*
X167800Y4937050D02*
X147800Y4917050D01*
X148000Y2388000D02*
X168000Y2368000D01*
X168000Y2388000D02*
X148000Y2368000D01*
X177000Y580000D02*
X197000Y560000D01*
X197000Y580000D02*
X177000Y560000D01*
X189000Y5292000D02*
X209000Y5272000D01*
X209000Y5292000D02*
X189000Y5272000D01*
X190050Y4431000D02*
X210050Y4411000D01*
X210050Y4431000D02*
X190050Y4411000D01*
X229000Y66000D02*
X249000Y46000D01*
X249000Y66000D02*
X229000Y46000D01*
X237000Y2521000D02*
X257000Y2501000D01*
X257000Y2521000D02*
X237000Y2501000D01*
X288150Y3862900D02*
X308150Y3842900D01*
X308150Y3862900D02*
X288150Y3842900D01*
X299126Y5197950D02*
X319126Y5177950D01*
X319126Y5197950D02*
X299126Y5177950D01*
X310000Y5411000D02*
X330000Y5391000D01*
X330000Y5411000D02*
X310000Y5391000D01*
X320000Y6464000D02*
X340000Y6444000D01*
X340000Y6464000D02*
X320000Y6444000D01*
X332000Y827000D02*
X352000Y807000D01*
X352000Y827000D02*
X332000Y807000D01*
X339000Y609000D02*
X359000Y589000D01*
X359000Y609000D02*
X339000Y589000D01*
X352601Y5286321D02*
X372601Y5266321D01*
X372601Y5286321D02*
X352601Y5266321D01*
X353500Y2202300D02*
X373500Y2182300D01*
X373500Y2202300D02*
X353500Y2182300D01*
X354000Y1336500D02*
X374000Y1316500D01*
X374000Y1336500D02*
X354000Y1316500D01*
X361000Y4207000D02*
X381000Y4187000D01*
X381000Y4207000D02*
X361000Y4187000D01*
X391300Y1238000D02*
X411300Y1218000D01*
X411300Y1238000D02*
X391300Y1218000D01*
X397000Y5704000D02*
X417000Y5684000D01*
X417000Y5704000D02*
X397000Y5684000D01*
X402000Y2113000D02*
X422000Y2093000D01*
X422000Y2113000D02*
X402000Y2093000D01*
X408000Y5960000D02*
X428000Y5940000D01*
X428000Y5960000D02*
X408000Y5940000D01*
X414000Y3923000D02*
X434000Y3903000D01*
X434000Y3923000D02*
X414000Y3903000D01*
X435000Y5319771D02*
X455000Y5299771D01*
X455000Y5319771D02*
X435000Y5299771D01*
X447000Y2365000D02*
X467000Y2345000D01*
X467000Y2365000D02*
X447000Y2345000D01*
X451000Y5442000D02*
X471000Y5422000D01*
X471000Y5442000D02*
X451000Y5422000D01*
X499000Y5400550D02*
X519000Y5380550D01*
X519000Y5400550D02*
X499000Y5380550D01*
X511000Y1528000D02*
X531000Y1508000D01*
X531000Y1528000D02*
X511000Y1508000D01*
X534000Y525000D02*
X554000Y505000D01*
X554000Y525000D02*
X534000Y505000D01*
X539000Y926000D02*
X559000Y906000D01*
X559000Y926000D02*
X539000Y906000D01*
X545000Y2508000D02*
X565000Y2488000D01*
X565000Y2508000D02*
X545000Y2488000D01*
X558000Y616000D02*
X578000Y596000D01*
X578000Y616000D02*
X558000Y596000D01*
X561000Y86000D02*
X581000Y66000D01*
X581000Y86000D02*
X561000Y66000D01*
X578000Y1821000D02*
X598000Y1801000D01*
X598000Y1821000D02*
X578000Y1801000D01*
X579000Y1915000D02*
X599000Y1895000D01*
X599000Y1915000D02*
X579000Y1895000D01*
X587000Y187000D02*
X607000Y167000D01*
X607000Y187000D02*
X587000Y167000D01*
X591200Y4422800D02*
X611200Y4402800D01*
X611200Y4422800D02*
X591200Y4402800D01*
X600000Y2136000D02*
X620000Y2116000D01*
X620000Y2136000D02*
X600000Y2116000D01*
X602000Y4339000D02*
X622000Y4319000D01*
X622000Y4339000D02*
X602000Y4319000D01*
X602000Y879000D02*
X622000Y859000D01*
X622000Y879000D02*
X602000Y859000D01*
X603000Y1067000D02*
X623000Y1047000D01*
X623000Y1067000D02*
X603000Y1047000D01*
X611000Y5218000D02*
X631000Y5198000D01*
X631000Y5218000D02*
X611000Y5198000D01*
X622000Y1552000D02*
X642000Y1532000D01*
X642000Y1552000D02*
X622000Y1532000D01*
X628000Y4194000D02*
X648000Y4174000D01*
X648000Y4194000D02*
X628000Y4174000D01*
X638000Y6513000D02*
X658000Y6493000D01*
X658000Y6513000D02*
X638000Y6493000D01*
X644924Y5970076D02*
X664924Y5950076D01*
X664924Y5970076D02*
X644924Y5950076D01*
X663000Y2859000D02*
X683000Y2839000D01*
X683000Y2859000D02*
X663000Y2839000D01*
X696000Y1174000D02*
X716000Y1154000D01*
X716000Y1174000D02*
X696000Y1154000D01*
X699000Y71000D02*
X719000Y51000D01*
X719000Y71000D02*
X699000Y51000D01*
X709539Y1544461D02*
X729539Y1524461D01*
X729539Y1544461D02*
X709539Y1524461D01*
X711050Y4049600D02*
X731050Y4029600D01*
X731050Y4049600D02*
X711050Y4029600D01*
X720000Y3781000D02*
X740000Y3761000D01*
X740000Y3781000D02*
X720000Y3761000D01*
X759000Y3038000D02*
X779000Y3018000D01*
X779000Y3038000D02*
X759000Y3018000D01*
X759000Y2132000D02*
X779000Y2112000D01*
X779000Y2132000D02*
X759000Y2112000D01*
X761000Y565000D02*
X781000Y545000D01*
X781000Y565000D02*
X761000Y545000D01*
X763000Y2354000D02*
X783000Y2334000D01*
X783000Y2354000D02*
X763000Y2334000D01*
X780000Y5099000D02*
X800000Y5079000D01*
X800000Y5099000D02*
X780000Y5079000D01*
X780000Y4940000D02*
X800000Y4920000D01*
X800000Y4940000D02*
X780000Y4920000D01*
X780000Y4774000D02*
X800000Y4754000D01*
X800000Y4774000D02*
X780000Y4754000D01*
X782750Y4613250D02*
X802750Y4593250D01*
X802750Y4613250D02*
X782750Y4593250D01*
X784000Y6497000D02*
X804000Y6477000D01*
X804000Y6497000D02*
X784000Y6477000D01*
X803000Y3353500D02*
X823000Y3333500D01*
X823000Y3353500D02*
X803000Y3333500D01*
X810000Y5943000D02*
X830000Y5923000D01*
X830000Y5943000D02*
X810000Y5923000D01*
X814000Y6229000D02*
X834000Y6209000D01*
X834000Y6229000D02*
X814000Y6209000D01*
X821000Y615000D02*
X841000Y595000D01*
X841000Y615000D02*
X821000Y595000D01*
X828000Y5288000D02*
X848000Y5268000D01*
X848000Y5288000D02*
X828000Y5268000D01*
X836000Y5744000D02*
X856000Y5724000D01*
X856000Y5744000D02*
X836000Y5724000D01*
X849000Y2835000D02*
X869000Y2815000D01*
X869000Y2835000D02*
X849000Y2815000D01*
X868000Y2968000D02*
X888000Y2948000D01*
X888000Y2968000D02*
X868000Y2948000D01*
X890000Y2726000D02*
X910000Y2706000D01*
X910000Y2726000D02*
X890000Y2706000D01*
X892500Y2345500D02*
X912500Y2325500D01*
X912500Y2345500D02*
X892500Y2325500D01*
X896000Y6231000D02*
X916000Y6211000D01*
X916000Y6231000D02*
X896000Y6211000D01*
X897000Y6706000D02*
X917000Y6686000D01*
X917000Y6706000D02*
X897000Y6686000D01*
X925000Y2455000D02*
X945000Y2435000D01*
X945000Y2455000D02*
X925000Y2435000D01*
X934000Y6474000D02*
X954000Y6454000D01*
X954000Y6474000D02*
X934000Y6454000D01*
X953000Y3438000D02*
X973000Y3418000D01*
X973000Y3438000D02*
X953000Y3418000D01*
X955000Y3717000D02*
X975000Y3697000D01*
X975000Y3717000D02*
X955000Y3697000D01*
X957000Y3788000D02*
X977000Y3768000D01*
X977000Y3788000D02*
X957000Y3768000D01*
X960000Y579000D02*
X980000Y559000D01*
X980000Y579000D02*
X960000Y559000D01*
X986450Y3113500D02*
X1006450Y3093500D01*
X1006450Y3113500D02*
X986450Y3093500D01*
X997000Y3333000D02*
X1017000Y3313000D01*
X1017000Y3333000D02*
X997000Y3313000D01*
X1002000Y2503355D02*
X1022000Y2483355D01*
X1022000Y2503355D02*
X1002000Y2483355D01*
X1020000Y1805000D02*
X1040000Y1785000D01*
X1040000Y1805000D02*
X1020000Y1785000D01*
X1027000Y2140000D02*
X1047000Y2120000D01*
X1047000Y2140000D02*
X1027000Y2120000D01*
X1027550Y3234750D02*
X1047550Y3214750D01*
X1047550Y3234750D02*
X1027550Y3214750D01*
X1049000Y314000D02*
X1069000Y294000D01*
X1069000Y314000D02*
X1049000Y294000D01*
X1054000Y2930000D02*
X1074000Y2910000D01*
X1074000Y2930000D02*
X1054000Y2910000D01*
X1060878Y3140622D02*
X1080878Y3120622D01*
X1080878Y3140622D02*
X1060878Y3120622D01*
X1069000Y1388000D02*
X1089000Y1368000D01*
X1089000Y1388000D02*
X1069000Y1368000D01*
X1098000Y2518500D02*
X1118000Y2498500D01*
X1118000Y2518500D02*
X1098000Y2498500D01*
X1105000Y1469000D02*
X1125000Y1449000D01*
X1125000Y1469000D02*
X1105000Y1449000D01*
X1110375Y1785625D02*
X1130375Y1765625D01*
X1130375Y1785625D02*
X1110375Y1765625D01*
X1120000Y2685000D02*
X1140000Y2665000D01*
X1140000Y2685000D02*
X1120000Y2665000D01*
X1144000Y1398000D02*
X1164000Y1378000D01*
X1164000Y1398000D02*
X1144000Y1378000D01*
X1159000Y4845000D02*
X1179000Y4825000D01*
X1179000Y4845000D02*
X1159000Y4825000D01*
X1172050Y4972347D02*
X1192050Y4952347D01*
X1192050Y4972347D02*
X1172050Y4952347D01*
X1188000Y658000D02*
X1208000Y638000D01*
X1208000Y658000D02*
X1188000Y638000D01*
X1208000Y5039000D02*
X1228000Y5019000D01*
X1228000Y5039000D02*
X1208000Y5019000D01*
X1227950Y4753072D02*
X1247950Y4733072D01*
X1247950Y4753072D02*
X1227950Y4733072D01*
X1228000Y4608500D02*
X1248000Y4588500D01*
X1248000Y4608500D02*
X1228000Y4588500D01*
X1228000Y1682000D02*
X1248000Y1662000D01*
X1248000Y1682000D02*
X1228000Y1662000D01*
X1246456Y3886544D02*
X1266456Y3866544D01*
X1266456Y3886544D02*
X1246456Y3866544D01*
X1248000Y1384000D02*
X1268000Y1364000D01*
X1268000Y1384000D02*
X1248000Y1364000D01*
X1257000Y1463000D02*
X1277000Y1443000D01*
X1277000Y1463000D02*
X1257000Y1443000D01*
X1272000Y4517000D02*
X1292000Y4497000D01*
X1292000Y4517000D02*
X1272000Y4497000D01*
X1279000Y6100000D02*
X1299000Y6080000D01*
X1299000Y6100000D02*
X1279000Y6080000D01*
X1294000Y282000D02*
X1314000Y262000D01*
X1314000Y282000D02*
X1294000Y262000D01*
X1305250Y4764771D02*
X1325250Y4744771D01*
X1325250Y4764771D02*
X1305250Y4744771D01*
X1338000Y4566322D02*
X1358000Y4546322D01*
X1358000Y4566322D02*
X1338000Y4546322D01*
X1338000Y1471000D02*
X1358000Y1451000D01*
X1358000Y1471000D02*
X1338000Y1451000D01*
X1370500Y793500D02*
X1390500Y773500D01*
X1390500Y793500D02*
X1370500Y773500D01*
X1397000Y2520000D02*
X1417000Y2500000D01*
X1417000Y2520000D02*
X1397000Y2500000D01*
X1401900Y5488522D02*
X1421900Y5468522D01*
X1421900Y5488522D02*
X1401900Y5468522D01*
X1402000Y2018000D02*
X1422000Y1998000D01*
X1422000Y2018000D02*
X1402000Y1998000D01*
X1408000Y4434000D02*
X1428000Y4414000D01*
X1428000Y4434000D02*
X1408000Y4414000D01*
X1416000Y517000D02*
X1436000Y497000D01*
X1436000Y517000D02*
X1416000Y497000D01*
X1419000Y108000D02*
X1439000Y88000D01*
X1439000Y108000D02*
X1419000Y88000D01*
X1421900Y3040000D02*
X1441900Y3020000D01*
X1441900Y3040000D02*
X1421900Y3020000D01*
X1423000Y1940000D02*
X1443000Y1920000D01*
X1443000Y1940000D02*
X1423000Y1920000D01*
X1423950Y3639000D02*
X1443950Y3619000D01*
X1443950Y3639000D02*
X1423950Y3619000D01*
X1430000Y1504000D02*
X1450000Y1484000D01*
X1450000Y1504000D02*
X1430000Y1484000D01*
X1430000Y946000D02*
X1450000Y926000D01*
X1450000Y946000D02*
X1430000Y926000D01*
X1442800Y4116921D02*
X1462800Y4096921D01*
X1462800Y4116921D02*
X1442800Y4096921D01*
X1446000Y2879000D02*
X1466000Y2859000D01*
X1466000Y2879000D02*
X1446000Y2859000D01*
X1448000Y3843000D02*
X1468000Y3823000D01*
X1468000Y3843000D02*
X1448000Y3823000D01*
X1449000Y3372000D02*
X1469000Y3352000D01*
X1469000Y3372000D02*
X1449000Y3352000D01*
X1456000Y6544000D02*
X1476000Y6524000D01*
X1476000Y6544000D02*
X1456000Y6524000D01*
X1459550Y3426669D02*
X1479550Y3406669D01*
X1479550Y3426669D02*
X1459550Y3406669D01*
X1460000Y6302322D02*
X1480000Y6282322D01*
X1480000Y6302322D02*
X1460000Y6282322D01*
X1460000Y3699000D02*
X1480000Y3679000D01*
X1480000Y3699000D02*
X1460000Y3679000D01*
X1466000Y3304000D02*
X1486000Y3284000D01*
X1486000Y3304000D02*
X1466000Y3284000D01*
X1468000Y6230322D02*
X1488000Y6210322D01*
X1488000Y6230322D02*
X1468000Y6210322D01*
X1477000Y2765000D02*
X1497000Y2745000D01*
X1497000Y2765000D02*
X1477000Y2745000D01*
X1479614Y4805830D02*
X1499614Y4785830D01*
X1499614Y4805830D02*
X1479614Y4785830D01*
X1484750Y2961750D02*
X1504750Y2941750D01*
X1504750Y2961750D02*
X1484750Y2941750D01*
X1485000Y1148000D02*
X1505000Y1128000D01*
X1505000Y1148000D02*
X1485000Y1128000D01*
X1522398Y5647392D02*
X1542398Y5627392D01*
X1542398Y5647392D02*
X1522398Y5627392D01*
X1529000Y1949000D02*
X1549000Y1929000D01*
X1549000Y1949000D02*
X1529000Y1929000D01*
X1538400Y5898852D02*
X1558400Y5878852D01*
X1558400Y5898852D02*
X1538400Y5878852D01*
X1539000Y2069000D02*
X1559000Y2049000D01*
X1559000Y2069000D02*
X1539000Y2049000D01*
X1542000Y5726322D02*
X1562000Y5706322D01*
X1562000Y5726322D02*
X1542000Y5706322D01*
X1543000Y1437000D02*
X1563000Y1417000D01*
X1563000Y1437000D02*
X1543000Y1417000D01*
X1557000Y3378000D02*
X1577000Y3358000D01*
X1577000Y3378000D02*
X1557000Y3358000D01*
X1562000Y1527000D02*
X1582000Y1507000D01*
X1582000Y1527000D02*
X1562000Y1507000D01*
X1569276Y6060336D02*
X1589276Y6040336D01*
X1589276Y6060336D02*
X1569276Y6040336D01*
X1578411Y6195015D02*
X1598411Y6175015D01*
X1598411Y6195015D02*
X1578411Y6175015D01*
X1582230Y5096914D02*
X1602230Y5076914D01*
X1602230Y5096914D02*
X1582230Y5076914D01*
X1582992Y5334912D02*
X1602992Y5314912D01*
X1602992Y5334912D02*
X1582992Y5314912D01*
X1583500Y5252870D02*
X1603500Y5232870D01*
X1603500Y5252870D02*
X1583500Y5232870D01*
X1584770Y5176670D02*
X1604770Y5156670D01*
X1604770Y5176670D02*
X1584770Y5156670D01*
X1586802Y5983772D02*
X1606802Y5963772D01*
X1606802Y5983772D02*
X1586802Y5963772D01*
X1587000Y2672000D02*
X1607000Y2652000D01*
X1607000Y2672000D02*
X1587000Y2652000D01*
X1587056Y5016728D02*
X1607056Y4996728D01*
X1607056Y5016728D02*
X1587056Y4996728D01*
X1588000Y1738000D02*
X1608000Y1718000D01*
X1608000Y1738000D02*
X1588000Y1718000D01*
X1590000Y968000D02*
X1610000Y948000D01*
X1610000Y968000D02*
X1590000Y948000D01*
X1593152Y5462166D02*
X1613152Y5442166D01*
X1613152Y5462166D02*
X1593152Y5442166D01*
X1596058Y6128330D02*
X1616058Y6108330D01*
X1616058Y6128330D02*
X1596058Y6108330D01*
X1597582Y5699208D02*
X1617582Y5679208D01*
X1617582Y5699208D02*
X1597582Y5679208D01*
X1598000Y2031000D02*
X1618000Y2011000D01*
X1618000Y2031000D02*
X1598000Y2011000D01*
X1622000Y3225000D02*
X1642000Y3205000D01*
X1642000Y3225000D02*
X1622000Y3205000D01*
X1626700Y4637522D02*
X1646700Y4617522D01*
X1646700Y4637522D02*
X1626700Y4617522D01*
X1628000Y6429322D02*
X1648000Y6409322D01*
X1648000Y6429322D02*
X1628000Y6409322D01*
X1631000Y4341322D02*
X1651000Y4321322D01*
X1651000Y4341322D02*
X1631000Y4321322D01*
X1631000Y4179000D02*
X1651000Y4159000D01*
X1651000Y4179000D02*
X1631000Y4159000D01*
X1634600Y4279522D02*
X1654600Y4259522D01*
X1654600Y4279522D02*
X1634600Y4259522D01*
X1635000Y4535722D02*
X1655000Y4515722D01*
X1655000Y4535722D02*
X1635000Y4515722D01*
X1636000Y3406000D02*
X1656000Y3386000D01*
X1656000Y3406000D02*
X1636000Y3386000D01*
X1637707Y4586125D02*
X1657707Y4566125D01*
X1657707Y4586125D02*
X1637707Y4566125D01*
X1638476Y4410920D02*
X1658476Y4390920D01*
X1658476Y4410920D02*
X1638476Y4390920D01*
X1665000Y2707000D02*
X1685000Y2687000D01*
X1685000Y2707000D02*
X1665000Y2687000D01*
X1666600Y5296922D02*
X1686600Y5276922D01*
X1686600Y5296922D02*
X1666600Y5276922D01*
X1668000Y1524000D02*
X1688000Y1504000D01*
X1688000Y1524000D02*
X1668000Y1504000D01*
X1673000Y3139300D02*
X1693000Y3119300D01*
X1693000Y3139300D02*
X1673000Y3119300D01*
X1674686Y5457594D02*
X1694686Y5437594D01*
X1694686Y5457594D02*
X1674686Y5437594D01*
X1675194Y5862724D02*
X1695194Y5842724D01*
X1695194Y5862724D02*
X1675194Y5842724D01*
X1676464Y5059322D02*
X1696464Y5039322D01*
X1696464Y5059322D02*
X1676464Y5039322D01*
X1676972Y5139078D02*
X1696972Y5119078D01*
X1696972Y5139078D02*
X1676972Y5119078D01*
X1677400Y4989722D02*
X1697400Y4969722D01*
X1697400Y4989722D02*
X1677400Y4969722D01*
X1678242Y5540906D02*
X1698242Y5520906D01*
X1698242Y5540906D02*
X1678242Y5520906D01*
X1678750Y5223152D02*
X1698750Y5203152D01*
X1698750Y5223152D02*
X1678750Y5203152D01*
X1678862Y5617166D02*
X1698862Y5597166D01*
X1698862Y5617166D02*
X1678862Y5597166D01*
X1680163Y5386091D02*
X1700163Y5366091D01*
X1700163Y5386091D02*
X1680163Y5366091D01*
X1680982Y4010249D02*
X1700982Y3990249D01*
X1700982Y4010249D02*
X1680982Y3990249D01*
X1686072Y5784956D02*
X1706072Y5764956D01*
X1706072Y5784956D02*
X1686072Y5764956D01*
X1688000Y2577000D02*
X1708000Y2557000D01*
X1708000Y2577000D02*
X1688000Y2557000D01*
X1693000Y2956000D02*
X1713000Y2936000D01*
X1713000Y2956000D02*
X1693000Y2936000D01*
X1696000Y3207000D02*
X1716000Y3187000D01*
X1716000Y3207000D02*
X1696000Y3187000D01*
X1697900Y4760722D02*
X1717900Y4740722D01*
X1717900Y4760722D02*
X1697900Y4740722D01*
X1703000Y3301000D02*
X1723000Y3281000D01*
X1723000Y3301000D02*
X1703000Y3281000D01*
X1711000Y4544322D02*
X1731000Y4524322D01*
X1731000Y4544322D02*
X1711000Y4524322D01*
X1711574Y4632693D02*
X1731574Y4612693D01*
X1731574Y4632693D02*
X1711574Y4612693D01*
X1712500Y4484322D02*
X1732500Y4464322D01*
X1732500Y4484322D02*
X1712500Y4464322D01*
X1729919Y4011393D02*
X1749919Y3991393D01*
X1749919Y4011393D02*
X1729919Y3991393D01*
X1733000Y324000D02*
X1753000Y304000D01*
X1753000Y324000D02*
X1733000Y304000D01*
X1734000Y2847000D02*
X1754000Y2827000D01*
X1754000Y2847000D02*
X1734000Y2827000D01*
X1735000Y2296000D02*
X1755000Y2276000D01*
X1755000Y2296000D02*
X1735000Y2276000D01*
X1744400Y4820722D02*
X1764400Y4800722D01*
X1764400Y4820722D02*
X1744400Y4800722D01*
X1751500Y5778500D02*
X1771500Y5758500D01*
X1771500Y5778500D02*
X1751500Y5758500D01*
X1752000Y1992000D02*
X1772000Y1972000D01*
X1772000Y1992000D02*
X1752000Y1972000D01*
X1756220Y6178700D02*
X1776220Y6158700D01*
X1776220Y6178700D02*
X1756220Y6158700D01*
X1756400Y4986622D02*
X1776400Y4966622D01*
X1776400Y4986622D02*
X1756400Y4966622D01*
X1756728Y5139840D02*
X1776728Y5119840D01*
X1776728Y5139840D02*
X1756728Y5119840D01*
X1757226Y5709311D02*
X1777226Y5689311D01*
X1777226Y5709311D02*
X1757226Y5689311D01*
X1758637Y6110836D02*
X1778637Y6090836D01*
X1778637Y6110836D02*
X1758637Y6090836D01*
X1758760Y6018680D02*
X1778760Y5998680D01*
X1778760Y6018680D02*
X1758760Y5998680D01*
X1758782Y4619748D02*
X1778782Y4599748D01*
X1778782Y4619748D02*
X1758782Y4599748D01*
X1758783Y5303622D02*
X1778783Y5283622D01*
X1778783Y5303622D02*
X1758783Y5283622D01*
X1759000Y5537922D02*
X1779000Y5517922D01*
X1779000Y5537922D02*
X1759000Y5517922D01*
X1759014Y5857644D02*
X1779014Y5837644D01*
X1779014Y5857644D02*
X1759014Y5837644D01*
X1759014Y5459372D02*
X1779014Y5439372D01*
X1779014Y5459372D02*
X1759014Y5439372D01*
X1760284Y5216610D02*
X1780284Y5196610D01*
X1780284Y5216610D02*
X1760284Y5196610D01*
X1762238Y5060846D02*
X1782238Y5040846D01*
X1782238Y5060846D02*
X1762238Y5040846D01*
X1764000Y6437772D02*
X1784000Y6417772D01*
X1784000Y6437772D02*
X1764000Y6417772D01*
X1764300Y5391822D02*
X1784300Y5371822D01*
X1784300Y5391822D02*
X1764300Y5371822D01*
X1771826Y4350976D02*
X1791826Y4330976D01*
X1791826Y4350976D02*
X1771826Y4330976D01*
X1773746Y4549036D02*
X1793746Y4529036D01*
X1793746Y4549036D02*
X1773746Y4529036D01*
X1777000Y4483322D02*
X1797000Y4463322D01*
X1797000Y4483322D02*
X1777000Y4463322D01*
X1779000Y4221322D02*
X1799000Y4201322D01*
X1799000Y4221322D02*
X1779000Y4201322D01*
X1783200Y4016622D02*
X1803200Y3996622D01*
X1803200Y4016622D02*
X1783200Y3996622D01*
X1786000Y648000D02*
X1806000Y628000D01*
X1806000Y648000D02*
X1786000Y628000D01*
X1793000Y1107000D02*
X1813000Y1087000D01*
X1813000Y1107000D02*
X1793000Y1087000D01*
X1794000Y2505000D02*
X1814000Y2485000D01*
X1814000Y2505000D02*
X1794000Y2485000D01*
X1795200Y4813522D02*
X1815200Y4793522D01*
X1815200Y4813522D02*
X1795200Y4793522D01*
X1807624Y4622996D02*
X1827624Y4602996D01*
X1827624Y4622996D02*
X1807624Y4602996D01*
X1825000Y1939000D02*
X1845000Y1919000D01*
X1845000Y1939000D02*
X1825000Y1919000D01*
X1828000Y3823000D02*
X1848000Y3803000D01*
X1848000Y3823000D02*
X1828000Y3803000D01*
X1828000Y335000D02*
X1848000Y315000D01*
X1848000Y335000D02*
X1828000Y315000D01*
X1831000Y1412000D02*
X1851000Y1392000D01*
X1851000Y1412000D02*
X1831000Y1392000D01*
X1834000Y3178000D02*
X1854000Y3158000D01*
X1854000Y3178000D02*
X1834000Y3158000D01*
X1837679Y4352184D02*
X1857679Y4332184D01*
X1857679Y4352184D02*
X1837679Y4332184D01*
X1837800Y4023122D02*
X1857800Y4003122D01*
X1857800Y4023122D02*
X1837800Y4003122D01*
X1838279Y5928256D02*
X1858279Y5908256D01*
X1858279Y5928256D02*
X1838279Y5908256D01*
X1840450Y4834822D02*
X1860450Y4814822D01*
X1860450Y4834822D02*
X1840450Y4814822D01*
X1842000Y4554522D02*
X1862000Y4534522D01*
X1862000Y4554522D02*
X1842000Y4534522D01*
X1842000Y4223322D02*
X1862000Y4203322D01*
X1862000Y4223322D02*
X1842000Y4203322D01*
X1844358Y4761126D02*
X1864358Y4741126D01*
X1864358Y4761126D02*
X1844358Y4741126D01*
X1856561Y4624146D02*
X1876561Y4604146D01*
X1876561Y4624146D02*
X1856561Y4604146D01*
X1886686Y3481542D02*
X1906686Y3461542D01*
X1906686Y3481542D02*
X1886686Y3461542D01*
X1896000Y1014000D02*
X1916000Y994000D01*
X1916000Y1014000D02*
X1896000Y994000D01*
X1897500Y1921500D02*
X1917500Y1901500D01*
X1917500Y1921500D02*
X1897500Y1901500D01*
X1899800Y4089722D02*
X1919800Y4069722D01*
X1919800Y4089722D02*
X1899800Y4069722D01*
X1902600Y4352621D02*
X1922600Y4332621D01*
X1922600Y4352621D02*
X1902600Y4332621D01*
X1905050Y2668000D02*
X1925050Y2648000D01*
X1925050Y2668000D02*
X1905050Y2648000D01*
X1905172Y4629900D02*
X1925172Y4609900D01*
X1925172Y4629900D02*
X1905172Y4609900D01*
X1907000Y2109000D02*
X1927000Y2089000D01*
X1927000Y2109000D02*
X1907000Y2089000D01*
X1908000Y4221322D02*
X1928000Y4201322D01*
X1928000Y4221322D02*
X1908000Y4201322D01*
X1924000Y2750000D02*
X1944000Y2730000D01*
X1944000Y2750000D02*
X1924000Y2730000D01*
X1925550Y4879772D02*
X1945550Y4859772D01*
X1945550Y4879772D02*
X1925550Y4859772D01*
X1936550Y4803122D02*
X1956550Y4783122D01*
X1956550Y4803122D02*
X1936550Y4783122D01*
X1957000Y3827000D02*
X1977000Y3807000D01*
X1977000Y3827000D02*
X1957000Y3807000D01*
X1968000Y2889000D02*
X1988000Y2869000D01*
X1988000Y2889000D02*
X1968000Y2869000D01*
X1969434Y4352373D02*
X1989434Y4332373D01*
X1989434Y4352373D02*
X1969434Y4332373D01*
X1970000Y4218322D02*
X1990000Y4198322D01*
X1990000Y4218322D02*
X1970000Y4198322D01*
X1973300Y4615922D02*
X1993300Y4595922D01*
X1993300Y4615922D02*
X1973300Y4595922D01*
X1990450Y3656000D02*
X2010450Y3636000D01*
X2010450Y3656000D02*
X1990450Y3636000D01*
X1991000Y2231000D02*
X2011000Y2211000D01*
X2011000Y2231000D02*
X1991000Y2211000D01*
X2009089Y3538160D02*
X2029089Y3518160D01*
X2029089Y3538160D02*
X2009089Y3518160D01*
X2009400Y3476254D02*
X2029400Y3456254D01*
X2029400Y3476254D02*
X2009400Y3456254D01*
X2019633Y4631713D02*
X2039633Y4611713D01*
X2039633Y4631713D02*
X2019633Y4611713D01*
X2024500Y5356522D02*
X2044500Y5336522D01*
X2044500Y5356522D02*
X2024500Y5336522D01*
X2027000Y4091000D02*
X2047000Y4071000D01*
X2047000Y4091000D02*
X2027000Y4071000D01*
X2032055Y4352210D02*
X2052055Y4332210D01*
X2052055Y4352210D02*
X2032055Y4332210D01*
X2041300Y5241822D02*
X2061300Y5221822D01*
X2061300Y5241822D02*
X2041300Y5221822D01*
X2048027Y2611333D02*
X2068027Y2591333D01*
X2068027Y2611333D02*
X2048027Y2591333D01*
X2064467Y5762783D02*
X2084467Y5742783D01*
X2084467Y5762783D02*
X2064467Y5742783D01*
X2067484Y5863036D02*
X2087484Y5843036D01*
X2087484Y5863036D02*
X2067484Y5843036D01*
X2068000Y1408500D02*
X2088000Y1388500D01*
X2088000Y1408500D02*
X2068000Y1388500D01*
X2070022Y4222706D02*
X2090022Y4202706D01*
X2090022Y4222706D02*
X2070022Y4202706D01*
X2075672Y5618664D02*
X2095672Y5598664D01*
X2095672Y5618664D02*
X2075672Y5598664D01*
X2083000Y2793500D02*
X2103000Y2773500D01*
X2103000Y2793500D02*
X2083000Y2773500D01*
X2099000Y4093322D02*
X2119000Y4073322D01*
X2119000Y4093322D02*
X2099000Y4073322D01*
X2099000Y3706000D02*
X2119000Y3686000D01*
X2119000Y3706000D02*
X2099000Y3686000D01*
X2099439Y4620362D02*
X2119439Y4600362D01*
X2119439Y4620362D02*
X2099439Y4600362D01*
X2099458Y4352590D02*
X2119458Y4332590D01*
X2119458Y4352590D02*
X2099458Y4332590D01*
X2099700Y4539622D02*
X2119700Y4519622D01*
X2119700Y4539622D02*
X2099700Y4519622D01*
X2103000Y4153322D02*
X2123000Y4133322D01*
X2123000Y4153322D02*
X2103000Y4133322D01*
X2108850Y3775772D02*
X2128850Y3755772D01*
X2128850Y3775772D02*
X2108850Y3755772D01*
X2113713Y4014631D02*
X2133713Y3994631D01*
X2133713Y4014631D02*
X2113713Y3994631D01*
X2115000Y3082000D02*
X2135000Y3062000D01*
X2135000Y3082000D02*
X2115000Y3062000D01*
X2138000Y2183000D02*
X2158000Y2163000D01*
X2158000Y2183000D02*
X2138000Y2163000D01*
X2148300Y4623322D02*
X2168300Y4603322D01*
X2168300Y4623322D02*
X2148300Y4603322D01*
X2154000Y1944000D02*
X2174000Y1924000D01*
X2174000Y1944000D02*
X2154000Y1924000D01*
X2154096Y5535632D02*
X2174096Y5515632D01*
X2174096Y5535632D02*
X2154096Y5515632D01*
X2154746Y5701434D02*
X2174746Y5681434D01*
X2174746Y5701434D02*
X2154746Y5681434D01*
X2158300Y1056000D02*
X2178300Y1036000D01*
X2178300Y1056000D02*
X2158300Y1036000D01*
X2158700Y4480522D02*
X2178700Y4460522D01*
X2178700Y4480522D02*
X2158700Y4460522D01*
X2164000Y3272000D02*
X2184000Y3252000D01*
X2184000Y3272000D02*
X2164000Y3252000D01*
X2164597Y4284999D02*
X2184597Y4264999D01*
X2184597Y4284999D02*
X2164597Y4264999D01*
X2165700Y4097522D02*
X2185700Y4077522D01*
X2185700Y4097522D02*
X2165700Y4077522D01*
X2172132Y4915845D02*
X2192132Y4895845D01*
X2192132Y4915845D02*
X2172132Y4895845D01*
X2177000Y3335000D02*
X2197000Y3315000D01*
X2197000Y3335000D02*
X2177000Y3315000D01*
X2198096Y4628195D02*
X2218096Y4608195D01*
X2218096Y4628195D02*
X2198096Y4608195D01*
X2206000Y2650000D02*
X2226000Y2630000D01*
X2226000Y2650000D02*
X2206000Y2630000D01*
X2207301Y4964469D02*
X2227301Y4944469D01*
X2227301Y4964469D02*
X2207301Y4944469D01*
X2216226Y6011691D02*
X2236226Y5991691D01*
X2236226Y6011691D02*
X2216226Y5991691D01*
X2216834Y6456890D02*
X2236834Y6436890D01*
X2236834Y6456890D02*
X2216834Y6436890D01*
X2217700Y5542322D02*
X2237700Y5522322D01*
X2237700Y5542322D02*
X2217700Y5522322D01*
X2226500Y4159322D02*
X2246500Y4139322D01*
X2246500Y4159322D02*
X2226500Y4139322D01*
X2231465Y4832943D02*
X2251465Y4812943D01*
X2251465Y4832943D02*
X2231465Y4812943D01*
X2232435Y4407387D02*
X2252435Y4387387D01*
X2252435Y4407387D02*
X2232435Y4387387D01*
X2233000Y1943000D02*
X2253000Y1923000D01*
X2253000Y1943000D02*
X2233000Y1923000D01*
X2235379Y4356261D02*
X2255379Y4336261D01*
X2255379Y4356261D02*
X2235379Y4336261D01*
X2236200Y5697822D02*
X2256200Y5677822D01*
X2256200Y5697822D02*
X2236200Y5677822D01*
X2236534Y5458102D02*
X2256534Y5438102D01*
X2256534Y5458102D02*
X2236534Y5438102D01*
X2238058Y6179462D02*
X2258058Y6159462D01*
X2258058Y6179462D02*
X2238058Y6159462D01*
X2241000Y4470000D02*
X2261000Y4450000D01*
X2261000Y4470000D02*
X2241000Y4450000D01*
X2248893Y4011165D02*
X2268893Y3991165D01*
X2268893Y4011165D02*
X2248893Y3991165D01*
X2250700Y4631322D02*
X2270700Y4611322D01*
X2270700Y4631322D02*
X2250700Y4611322D01*
X2255000Y3519000D02*
X2275000Y3499000D01*
X2275000Y3519000D02*
X2255000Y3499000D01*
X2276000Y82000D02*
X2296000Y62000D01*
X2296000Y82000D02*
X2276000Y62000D01*
X2277200Y4814722D02*
X2297200Y4794722D01*
X2297200Y4814722D02*
X2277200Y4794722D01*
X2297000Y1761000D02*
X2317000Y1741000D01*
X2317000Y1761000D02*
X2297000Y1741000D01*
X2300000Y1551000D02*
X2320000Y1531000D01*
X2320000Y1551000D02*
X2300000Y1531000D01*
X2307508Y3754579D02*
X2327508Y3734579D01*
X2327508Y3754579D02*
X2307508Y3734579D01*
X2308274Y5459178D02*
X2328274Y5439178D01*
X2328274Y5459178D02*
X2308274Y5439178D01*
X2310000Y6409322D02*
X2330000Y6389322D01*
X2330000Y6409322D02*
X2310000Y6389322D01*
X2311500Y4904500D02*
X2331500Y4884500D01*
X2331500Y4904500D02*
X2311500Y4884500D01*
X2312000Y316000D02*
X2332000Y296000D01*
X2332000Y316000D02*
X2312000Y296000D01*
X2321000Y3215000D02*
X2341000Y3195000D01*
X2341000Y3215000D02*
X2321000Y3195000D01*
X2324500Y5707422D02*
X2344500Y5687422D01*
X2344500Y5707422D02*
X2324500Y5687422D01*
X2325434Y5084468D02*
X2345434Y5064468D01*
X2345434Y5084468D02*
X2325434Y5064468D01*
X2325434Y5024778D02*
X2345434Y5004778D01*
X2345434Y5024778D02*
X2325434Y5004778D01*
X2328990Y6175144D02*
X2348990Y6155144D01*
X2348990Y6175144D02*
X2328990Y6155144D01*
X2330500Y5984500D02*
X2350500Y5964500D01*
X2350500Y5984500D02*
X2330500Y5964500D01*
X2331000Y5327322D02*
X2351000Y5307322D01*
X2351000Y5327322D02*
X2331000Y5307322D01*
X2331500Y5816500D02*
X2351500Y5796500D01*
X2351500Y5816500D02*
X2331500Y5796500D01*
X2332800Y6056780D02*
X2352800Y6036780D01*
X2352800Y6056780D02*
X2332800Y6036780D01*
X2332980Y5173706D02*
X2352980Y5153706D01*
X2352980Y5173706D02*
X2332980Y5153706D01*
X2333000Y5270322D02*
X2353000Y5250322D01*
X2353000Y5270322D02*
X2333000Y5250322D01*
X2334500Y5898500D02*
X2354500Y5878500D01*
X2354500Y5898500D02*
X2334500Y5878500D01*
X2363300Y4822922D02*
X2383300Y4802922D01*
X2383300Y4822922D02*
X2363300Y4802922D01*
X2370500Y5944500D02*
X2390500Y5924500D01*
X2390500Y5944500D02*
X2370500Y5924500D01*
X2383218Y6306762D02*
X2403218Y6286762D01*
X2403218Y6306762D02*
X2383218Y6286762D01*
X2400000Y3481000D02*
X2420000Y3461000D01*
X2420000Y3481000D02*
X2400000Y3461000D01*
X2410000Y3837322D02*
X2430000Y3817322D01*
X2430000Y3837322D02*
X2410000Y3817322D01*
X2419000Y5430322D02*
X2439000Y5410322D01*
X2439000Y5430322D02*
X2419000Y5410322D01*
X2426700Y4887722D02*
X2446700Y4867722D01*
X2446700Y4887722D02*
X2426700Y4867722D01*
X2427275Y4468832D02*
X2447275Y4448832D01*
X2447275Y4468832D02*
X2427275Y4448832D01*
X2432786Y5851788D02*
X2452786Y5831788D01*
X2452786Y5851788D02*
X2432786Y5831788D01*
X2434000Y3588950D02*
X2454000Y3568950D01*
X2454000Y3588950D02*
X2434000Y3568950D01*
X2440950Y4793254D02*
X2460950Y4773254D01*
X2460950Y4793254D02*
X2440950Y4773254D01*
X2445800Y4631322D02*
X2465800Y4611322D01*
X2465800Y4631322D02*
X2445800Y4611322D01*
X2449500Y6208822D02*
X2469500Y6188822D01*
X2469500Y6208822D02*
X2449500Y6188822D01*
X2454238Y6102560D02*
X2474238Y6082560D01*
X2474238Y6102560D02*
X2454238Y6082560D01*
X2458468Y6007854D02*
X2478468Y5987854D01*
X2478468Y6007854D02*
X2458468Y5987854D01*
X2463847Y4036847D02*
X2483847Y4016847D01*
X2483847Y4036847D02*
X2463847Y4016847D01*
X2475387Y2039700D02*
X2495387Y2019700D01*
X2495387Y2039700D02*
X2475387Y2019700D01*
X2476550Y1145000D02*
X2496550Y1125000D01*
X2496550Y1145000D02*
X2476550Y1125000D01*
X2476550Y1052000D02*
X2496550Y1032000D01*
X2496550Y1052000D02*
X2476550Y1032000D01*
X2486000Y1762000D02*
X2506000Y1742000D01*
X2506000Y1762000D02*
X2486000Y1742000D01*
X2486450Y3447000D02*
X2506450Y3427000D01*
X2506450Y3447000D02*
X2486450Y3427000D01*
X2487000Y3344000D02*
X2507000Y3324000D01*
X2507000Y3344000D02*
X2487000Y3324000D01*
X2505000Y5144000D02*
X2525000Y5124000D01*
X2525000Y5144000D02*
X2505000Y5124000D01*
X2513000Y3751000D02*
X2533000Y3731000D01*
X2533000Y3751000D02*
X2513000Y3731000D01*
X2519000Y384000D02*
X2539000Y364000D01*
X2539000Y384000D02*
X2519000Y364000D01*
X2523000Y2690000D02*
X2543000Y2670000D01*
X2543000Y2690000D02*
X2523000Y2670000D01*
X2533000Y3401000D02*
X2553000Y3381000D01*
X2553000Y3401000D02*
X2533000Y3381000D01*
X2533000Y2788000D02*
X2553000Y2768000D01*
X2553000Y2788000D02*
X2533000Y2768000D01*
X2561277Y4412450D02*
X2581277Y4392450D01*
X2581277Y4412450D02*
X2561277Y4392450D01*
X2562000Y175000D02*
X2582000Y155000D01*
X2582000Y175000D02*
X2562000Y155000D01*
X2564500Y3683500D02*
X2584500Y3663500D01*
X2584500Y3683500D02*
X2564500Y3663500D01*
X2586000Y3191000D02*
X2606000Y3171000D01*
X2606000Y3191000D02*
X2586000Y3171000D01*
X2589000Y3539000D02*
X2609000Y3519000D01*
X2609000Y3539000D02*
X2589000Y3519000D01*
X2616272Y2835124D02*
X2636272Y2815124D01*
X2636272Y2835124D02*
X2616272Y2815124D01*
X2622000Y1822000D02*
X2642000Y1802000D01*
X2642000Y1822000D02*
X2622000Y1802000D01*
X2626000Y3301500D02*
X2646000Y3281500D01*
X2646000Y3301500D02*
X2626000Y3281500D01*
X2631471Y4447529D02*
X2651471Y4427529D01*
X2651471Y4447529D02*
X2631471Y4427529D01*
X2632000Y3651000D02*
X2652000Y3631000D01*
X2652000Y3651000D02*
X2632000Y3631000D01*
X2635000Y3115000D02*
X2655000Y3095000D01*
X2655000Y3115000D02*
X2635000Y3095000D01*
X2641685Y743685D02*
X2661685Y723685D01*
X2661685Y743685D02*
X2641685Y723685D01*
X2647000Y1725000D02*
X2667000Y1705000D01*
X2667000Y1725000D02*
X2647000Y1705000D01*
X2664000Y6530000D02*
X2684000Y6510000D01*
X2684000Y6530000D02*
X2664000Y6510000D01*
X2667000Y6102322D02*
X2687000Y6082322D01*
X2687000Y6102322D02*
X2667000Y6082322D01*
X2668000Y2656000D02*
X2688000Y2636000D01*
X2688000Y2656000D02*
X2668000Y2636000D01*
X2668000Y404000D02*
X2688000Y384000D01*
X2688000Y404000D02*
X2668000Y384000D01*
X2669000Y6009322D02*
X2689000Y5989322D01*
X2689000Y6009322D02*
X2669000Y5989322D01*
X2677000Y5901000D02*
X2697000Y5881000D01*
X2697000Y5901000D02*
X2677000Y5881000D01*
X2679000Y1983000D02*
X2699000Y1963000D01*
X2699000Y1983000D02*
X2679000Y1963000D01*
X2684000Y3604000D02*
X2704000Y3584000D01*
X2704000Y3604000D02*
X2684000Y3584000D01*
X2698000Y4427000D02*
X2718000Y4407000D01*
X2718000Y4427000D02*
X2698000Y4407000D01*
X2705000Y1302000D02*
X2725000Y1282000D01*
X2725000Y1302000D02*
X2705000Y1282000D01*
X2711518Y3102418D02*
X2731518Y3082418D01*
X2731518Y3102418D02*
X2711518Y3082418D01*
X2717414Y547458D02*
X2737414Y527458D01*
X2737414Y547458D02*
X2717414Y527458D01*
X2721000Y4758000D02*
X2741000Y4738000D01*
X2741000Y4758000D02*
X2721000Y4738000D01*
X2721000Y2346000D02*
X2741000Y2326000D01*
X2741000Y2346000D02*
X2721000Y2326000D01*
X2744000Y2273000D02*
X2764000Y2253000D01*
X2764000Y2273000D02*
X2744000Y2253000D01*
X2746000Y4590000D02*
X2766000Y4570000D01*
X2766000Y4590000D02*
X2746000Y4570000D01*
X2759000Y3038000D02*
X2779000Y3018000D01*
X2779000Y3038000D02*
X2759000Y3018000D01*
X2809773Y1432812D02*
X2829773Y1412812D01*
X2829773Y1432812D02*
X2809773Y1412812D01*
X2814400Y6406000D02*
X2834400Y6386000D01*
X2834400Y6406000D02*
X2814400Y6386000D01*
X2815000Y6105000D02*
X2835000Y6085000D01*
X2835000Y6105000D02*
X2815000Y6085000D01*
X2821120Y1371542D02*
X2841120Y1351542D01*
X2841120Y1371542D02*
X2821120Y1351542D01*
X2823000Y5522100D02*
X2843000Y5502100D01*
X2843000Y5522100D02*
X2823000Y5502100D01*
X2824000Y2087000D02*
X2844000Y2067000D01*
X2844000Y2087000D02*
X2824000Y2067000D01*
X2828000Y6019000D02*
X2848000Y5999000D01*
X2848000Y6019000D02*
X2828000Y5999000D01*
X2829314Y588046D02*
X2849314Y568046D01*
X2849314Y588046D02*
X2829314Y568046D01*
X2832346Y4114314D02*
X2852346Y4094314D01*
X2852346Y4114314D02*
X2832346Y4094314D01*
X2840000Y3619000D02*
X2860000Y3599000D01*
X2860000Y3619000D02*
X2840000Y3599000D01*
X2857000Y6732000D02*
X2877000Y6712000D01*
X2877000Y6732000D02*
X2857000Y6712000D01*
X2859000Y2949000D02*
X2879000Y2929000D01*
X2879000Y2949000D02*
X2859000Y2929000D01*
X2866000Y5680000D02*
X2886000Y5660000D01*
X2886000Y5680000D02*
X2866000Y5660000D01*
X2876000Y146300D02*
X2896000Y126300D01*
X2896000Y146300D02*
X2876000Y126300D01*
X2898000Y653500D02*
X2918000Y633500D01*
X2918000Y653500D02*
X2898000Y633500D01*
X2905000Y1269000D02*
X2925000Y1249000D01*
X2925000Y1269000D02*
X2905000Y1249000D01*
X2909599Y5497900D02*
X2929599Y5477900D01*
X2929599Y5497900D02*
X2909599Y5477900D01*
X2915643Y6122500D02*
X2935643Y6102500D01*
X2935643Y6122500D02*
X2915643Y6102500D01*
X2915643Y6041000D02*
X2935643Y6021000D01*
X2935643Y6041000D02*
X2915643Y6021000D01*
X2927000Y6684000D02*
X2947000Y6664000D01*
X2947000Y6684000D02*
X2927000Y6664000D01*
X2932000Y3512000D02*
X2952000Y3492000D01*
X2952000Y3512000D02*
X2932000Y3492000D01*
X2934000Y1345000D02*
X2954000Y1325000D01*
X2954000Y1345000D02*
X2934000Y1325000D01*
X2934049Y3595605D02*
X2954049Y3575605D01*
X2954049Y3595605D02*
X2934049Y3575605D01*
X2938000Y3263000D02*
X2958000Y3243000D01*
X2958000Y3263000D02*
X2938000Y3243000D01*
X2947000Y4195000D02*
X2967000Y4175000D01*
X2967000Y4195000D02*
X2947000Y4175000D01*
X2949051Y5858468D02*
X2969051Y5838468D01*
X2969051Y5858468D02*
X2949051Y5838468D01*
X2951000Y5983000D02*
X2971000Y5963000D01*
X2971000Y5983000D02*
X2951000Y5963000D01*
X2953000Y4138000D02*
X2973000Y4118000D01*
X2973000Y4138000D02*
X2953000Y4118000D01*
X2953000Y3426000D02*
X2973000Y3406000D01*
X2973000Y3426000D02*
X2953000Y3406000D01*
X2953550Y3753000D02*
X2973550Y3733000D01*
X2973550Y3753000D02*
X2953550Y3733000D01*
X2954000Y1887000D02*
X2974000Y1867000D01*
X2974000Y1887000D02*
X2954000Y1867000D01*
X2958000Y4786000D02*
X2978000Y4766000D01*
X2978000Y4786000D02*
X2958000Y4766000D01*
X2959000Y3019000D02*
X2979000Y2999000D01*
X2979000Y3019000D02*
X2959000Y2999000D01*
X2961000Y6221000D02*
X2981000Y6201000D01*
X2981000Y6221000D02*
X2961000Y6201000D01*
X2961000Y5699000D02*
X2981000Y5679000D01*
X2981000Y5699000D02*
X2961000Y5679000D01*
X2965000Y4429050D02*
X2985000Y4409050D01*
X2985000Y4429050D02*
X2965000Y4409050D01*
X2995000Y2140000D02*
X3015000Y2120000D01*
X3015000Y2140000D02*
X2995000Y2120000D01*
X3010300Y1614455D02*
X3030300Y1594455D01*
X3030300Y1614455D02*
X3010300Y1594455D01*
X3012000Y5337000D02*
X3032000Y5317000D01*
X3032000Y5337000D02*
X3012000Y5317000D01*
X3016000Y3938000D02*
X3036000Y3918000D01*
X3036000Y3938000D02*
X3016000Y3918000D01*
X3028000Y3859000D02*
X3048000Y3839000D01*
X3048000Y3859000D02*
X3028000Y3839000D01*
X3037000Y5709000D02*
X3057000Y5689000D01*
X3057000Y5709000D02*
X3037000Y5689000D01*
X3040000Y6026322D02*
X3060000Y6006322D01*
X3060000Y6026322D02*
X3040000Y6006322D01*
X3043000Y4598000D02*
X3063000Y4578000D01*
X3063000Y4598000D02*
X3043000Y4578000D01*
X3068000Y6461000D02*
X3088000Y6441000D01*
X3088000Y6461000D02*
X3068000Y6441000D01*
X3075700Y2767000D02*
X3095700Y2747000D01*
X3095700Y2767000D02*
X3075700Y2747000D01*
X3077000Y5114000D02*
X3097000Y5094000D01*
X3097000Y5114000D02*
X3077000Y5094000D01*
X3078050Y2024000D02*
X3098050Y2004000D01*
X3098050Y2024000D02*
X3078050Y2004000D01*
X3080500Y3616000D02*
X3100500Y3596000D01*
X3100500Y3616000D02*
X3080500Y3596000D01*
X3080838Y1128305D02*
X3100838Y1108305D01*
X3100838Y1128305D02*
X3080838Y1108305D01*
X3082000Y146300D02*
X3102000Y126300D01*
X3102000Y146300D02*
X3082000Y126300D01*
X3087000Y4714000D02*
X3107000Y4694000D01*
X3107000Y4714000D02*
X3087000Y4694000D01*
X3094000Y3554000D02*
X3114000Y3534000D01*
X3114000Y3554000D02*
X3094000Y3534000D01*
X3099000Y3261000D02*
X3119000Y3241000D01*
X3119000Y3261000D02*
X3099000Y3241000D01*
X3125000Y3857000D02*
X3145000Y3837000D01*
X3145000Y3857000D02*
X3125000Y3837000D01*
X3134000Y1729000D02*
X3154000Y1709000D01*
X3154000Y1729000D02*
X3134000Y1709000D01*
X3137111Y3779811D02*
X3157111Y3759811D01*
X3157111Y3779811D02*
X3137111Y3759811D01*
X3143350Y1238695D02*
X3163350Y1218695D01*
X3163350Y1238695D02*
X3143350Y1218695D01*
X3148000Y683500D02*
X3168000Y663500D01*
X3168000Y683500D02*
X3148000Y663500D01*
X3151000Y5151100D02*
X3171000Y5131100D01*
X3171000Y5151100D02*
X3151000Y5131100D01*
X3151700Y5021600D02*
X3171700Y5001600D01*
X3171700Y5021600D02*
X3151700Y5001600D01*
X3171262Y1089305D02*
X3191262Y1069305D01*
X3191262Y1089305D02*
X3171262Y1069305D01*
X3177000Y2834000D02*
X3197000Y2814000D01*
X3197000Y2834000D02*
X3177000Y2814000D01*
X3181000Y3032000D02*
X3201000Y3012000D01*
X3201000Y3032000D02*
X3181000Y3012000D01*
X3181000Y185000D02*
X3201000Y165000D01*
X3201000Y185000D02*
X3181000Y165000D01*
X3182000Y900000D02*
X3202000Y880000D01*
X3202000Y900000D02*
X3182000Y880000D01*
X3204993Y1996070D02*
X3224993Y1976070D01*
X3224993Y1996070D02*
X3204993Y1976070D01*
X3206000Y5694000D02*
X3226000Y5674000D01*
X3226000Y5694000D02*
X3206000Y5674000D01*
X3207000Y2785000D02*
X3227000Y2765000D01*
X3227000Y2785000D02*
X3207000Y2765000D01*
X3208000Y520000D02*
X3228000Y500000D01*
X3228000Y520000D02*
X3208000Y500000D01*
X3219000Y2960000D02*
X3239000Y2940000D01*
X3239000Y2960000D02*
X3219000Y2940000D01*
X3221172Y1258574D02*
X3241172Y1238574D01*
X3241172Y1258574D02*
X3221172Y1238574D01*
X3236000Y2042000D02*
X3256000Y2022000D01*
X3256000Y2042000D02*
X3236000Y2022000D01*
X3266000Y4341000D02*
X3286000Y4321000D01*
X3286000Y4341000D02*
X3266000Y4321000D01*
X3275000Y5153200D02*
X3295000Y5133200D01*
X3295000Y5153200D02*
X3275000Y5133200D01*
X3282400Y5020700D02*
X3302400Y5000700D01*
X3302400Y5020700D02*
X3282400Y5000700D01*
X3299021Y1289500D02*
X3319021Y1269500D01*
X3319021Y1289500D02*
X3299021Y1269500D01*
X3307304Y91172D02*
X3327304Y71172D01*
X3327304Y91172D02*
X3307304Y71172D01*
X3311000Y5766000D02*
X3331000Y5746000D01*
X3331000Y5766000D02*
X3311000Y5746000D01*
X3325000Y4918000D02*
X3345000Y4898000D01*
X3345000Y4918000D02*
X3325000Y4898000D01*
X3329000Y3240000D02*
X3349000Y3220000D01*
X3349000Y3240000D02*
X3329000Y3220000D01*
X3330000Y3877000D02*
X3350000Y3857000D01*
X3350000Y3877000D02*
X3330000Y3857000D01*
X3336000Y6410000D02*
X3356000Y6390000D01*
X3356000Y6410000D02*
X3336000Y6390000D01*
X3339000Y6651000D02*
X3359000Y6631000D01*
X3359000Y6651000D02*
X3339000Y6631000D01*
X3345000Y1837000D02*
X3365000Y1817000D01*
X3365000Y1837000D02*
X3345000Y1817000D01*
X3363000Y2172550D02*
X3383000Y2152550D01*
X3383000Y2172550D02*
X3363000Y2152550D01*
X3371000Y5900000D02*
X3391000Y5880000D01*
X3391000Y5900000D02*
X3371000Y5880000D01*
X3382446Y5636000D02*
X3402446Y5616000D01*
X3402446Y5636000D02*
X3382446Y5616000D01*
X3384599Y5423100D02*
X3404599Y5403100D01*
X3404599Y5423100D02*
X3384599Y5403100D01*
X3405000Y3547000D02*
X3425000Y3527000D01*
X3425000Y3547000D02*
X3405000Y3527000D01*
X3413882Y454595D02*
X3433882Y434595D01*
X3433882Y454595D02*
X3413882Y434595D01*
X3415700Y1369000D02*
X3435700Y1349000D01*
X3435700Y1369000D02*
X3415700Y1349000D01*
X3418000Y75000D02*
X3438000Y55000D01*
X3438000Y75000D02*
X3418000Y55000D01*
X3424000Y2144000D02*
X3444000Y2124000D01*
X3444000Y2144000D02*
X3424000Y2124000D01*
X3425000Y1144000D02*
X3445000Y1124000D01*
X3445000Y1144000D02*
X3425000Y1124000D01*
X3426000Y2868000D02*
X3446000Y2848000D01*
X3446000Y2868000D02*
X3426000Y2848000D01*
X3430000Y2952000D02*
X3450000Y2932000D01*
X3450000Y2952000D02*
X3430000Y2932000D01*
X3434700Y2657000D02*
X3454700Y2637000D01*
X3454700Y2657000D02*
X3434700Y2637000D01*
X3435000Y2004000D02*
X3455000Y1984000D01*
X3455000Y2004000D02*
X3435000Y1984000D01*
X3445000Y5152000D02*
X3465000Y5132000D01*
X3465000Y5152000D02*
X3445000Y5132000D01*
X3465000Y5260000D02*
X3485000Y5240000D01*
X3485000Y5260000D02*
X3465000Y5240000D01*
X3491000Y1787450D02*
X3511000Y1767450D01*
X3511000Y1787450D02*
X3491000Y1767450D01*
X3502293Y6521069D02*
X3522293Y6501069D01*
X3522293Y6521069D02*
X3502293Y6501069D01*
X3542000Y6714000D02*
X3562000Y6694000D01*
X3562000Y6714000D02*
X3542000Y6694000D01*
X3542000Y2003000D02*
X3562000Y1983000D01*
X3562000Y2003000D02*
X3542000Y1983000D01*
X3569000Y5506000D02*
X3589000Y5486000D01*
X3589000Y5506000D02*
X3569000Y5486000D01*
X3574000Y6275000D02*
X3594000Y6255000D01*
X3594000Y6275000D02*
X3574000Y6255000D01*
X3579000Y5167000D02*
X3599000Y5147000D01*
X3599000Y5167000D02*
X3579000Y5147000D01*
X3595000Y6016100D02*
X3615000Y5996100D01*
X3615000Y6016100D02*
X3595000Y5996100D01*
X3601000Y3010000D02*
X3621000Y2990000D01*
X3621000Y3010000D02*
X3601000Y2990000D01*
X3609000Y2422000D02*
X3629000Y2402000D01*
X3629000Y2422000D02*
X3609000Y2402000D01*
X3629000Y1187000D02*
X3649000Y1167000D01*
X3649000Y1187000D02*
X3629000Y1167000D01*
X3630000Y6219000D02*
X3650000Y6199000D01*
X3650000Y6219000D02*
X3630000Y6199000D01*
X3643000Y1727600D02*
X3663000Y1707600D01*
X3663000Y1727600D02*
X3643000Y1707600D01*
X3655500Y3170000D02*
X3675500Y3150000D01*
X3675500Y3170000D02*
X3655500Y3150000D01*
X3657838Y769112D02*
X3677838Y749112D01*
X3677838Y769112D02*
X3657838Y749112D01*
X3692470Y238086D02*
X3712470Y218086D01*
X3712470Y238086D02*
X3692470Y218086D01*
X3707000Y4007000D02*
X3727000Y3987000D01*
X3727000Y4007000D02*
X3707000Y3987000D01*
X3708000Y6449000D02*
X3728000Y6429000D01*
X3728000Y6449000D02*
X3708000Y6429000D01*
X3713576Y5936949D02*
X3733576Y5916949D01*
X3733576Y5936949D02*
X3713576Y5916949D01*
X3715000Y1417000D02*
X3735000Y1397000D01*
X3735000Y1417000D02*
X3715000Y1397000D01*
X3747000Y2195000D02*
X3767000Y2175000D01*
X3767000Y2195000D02*
X3747000Y2175000D01*
X3768000Y6745000D02*
X3788000Y6725000D01*
X3788000Y6745000D02*
X3768000Y6725000D01*
X3776500Y1520557D02*
X3796500Y1500557D01*
X3796500Y1520557D02*
X3776500Y1500557D01*
X3779890Y6268000D02*
X3799890Y6248000D01*
X3799890Y6268000D02*
X3779890Y6248000D01*
X3788000Y1800000D02*
X3808000Y1780000D01*
X3808000Y1800000D02*
X3788000Y1780000D01*
X3798000Y5349000D02*
X3818000Y5329000D01*
X3818000Y5349000D02*
X3798000Y5329000D01*
X3843000Y1946000D02*
X3863000Y1926000D01*
X3863000Y1946000D02*
X3843000Y1926000D01*
X3864500Y1592059D02*
X3884500Y1572059D01*
X3884500Y1592059D02*
X3864500Y1572059D01*
X3890950Y6444000D02*
X3910950Y6424000D01*
X3910950Y6444000D02*
X3890950Y6424000D01*
X3908220Y2132203D02*
X3928220Y2112203D01*
X3928220Y2132203D02*
X3908220Y2112203D01*
X3918900Y6238000D02*
X3938900Y6218000D01*
X3938900Y6238000D02*
X3918900Y6218000D01*
X3942000Y1168000D02*
X3962000Y1148000D01*
X3962000Y1168000D02*
X3942000Y1148000D01*
D13*
X3189099Y5456800D02*
G75*
G03*
X3189099Y5456800I-15000J0D01*
G01*
D14*
X3853500Y5172000D02*
X3853500Y5122000D01*
X3828500Y5147000D02*
X3878500Y5147000D01*
D11*
X3886000Y5172000D02*
X3821000Y5172000D01*
X3821000Y5172000D02*
G75*
G03*
X3821000Y5122000I0J-25000D01*
G01*
X3821000Y5122000D02*
X3886000Y5122000D01*
X3886000Y5122000D02*
G75*
G03*
X3886000Y5172000I0J25000D01*
G01*
D14*
X3853500Y4472000D02*
X3853500Y4422000D01*
X3828500Y4447000D02*
X3878500Y4447000D01*
D11*
X3886000Y4472000D02*
X3821000Y4472000D01*
X3821000Y4472000D02*
G75*
G03*
X3821000Y4422000I0J-25000D01*
G01*
X3821000Y4422000D02*
X3886000Y4422000D01*
X3886000Y4422000D02*
G75*
G03*
X3886000Y4472000I0J25000D01*
G01*
D15*
X3602946Y5027554D02*
X3602946Y5066446D01*
X3564054Y5066446D01*
X3564054Y5027554D01*
X3602946Y5027554D01*
D11*
X3556000Y5062000D02*
X3556000Y5032000D01*
X3556000Y5032000D02*
G75*
G03*
X3611000Y5032000I27500J0D01*
G01*
X3611000Y5032000D02*
X3611000Y5062000D01*
X3611000Y5062000D02*
G75*
G03*
X3556000Y5062000I-27500J0D01*
G01*
D15*
X3602946Y4527554D02*
X3602946Y4566446D01*
X3564054Y4566446D01*
X3564054Y4527554D01*
X3602946Y4527554D01*
D11*
X3556000Y4562000D02*
X3556000Y4532000D01*
X3556000Y4532000D02*
G75*
G03*
X3611000Y4532000I27500J0D01*
G01*
X3611000Y4532000D02*
X3611000Y4562000D01*
X3611000Y4562000D02*
G75*
G03*
X3556000Y4562000I-27500J0D01*
G01*
D10*
X171040Y3413000D02*
X221040Y3463000D01*
X171040Y3513000D01*
X121040Y3463000D01*
X171040Y3413000D01*
X171040Y3159000D02*
X221040Y3209000D01*
X171040Y3259000D01*
X121040Y3209000D01*
X171040Y3159000D01*
X171040Y2905000D02*
X221040Y2955000D01*
X171040Y3005000D01*
X121040Y2955000D01*
X171040Y2905000D01*
X171040Y2651000D02*
X221040Y2701000D01*
X171040Y2751000D01*
X121040Y2701000D01*
X171040Y2651000D01*
X425040Y3413000D02*
X475040Y3463000D01*
X425040Y3513000D01*
X375040Y3463000D01*
X425040Y3413000D01*
X425040Y3159000D02*
X475040Y3209000D01*
X425040Y3259000D01*
X375040Y3209000D01*
X425040Y3159000D01*
X425040Y2905000D02*
X475040Y2955000D01*
X425040Y3005000D01*
X375040Y2955000D01*
X425040Y2905000D01*
X425040Y2651000D02*
X475040Y2701000D01*
X425040Y2751000D01*
X375040Y2701000D01*
X425040Y2651000D01*
X3816000Y4074000D02*
X3866000Y4124000D01*
X3816000Y4174000D01*
X3766000Y4124000D01*
X3816000Y4074000D01*
X3816000Y3820000D02*
X3866000Y3870000D01*
X3816000Y3920000D01*
X3766000Y3870000D01*
X3816000Y3820000D01*
X3816000Y3566000D02*
X3866000Y3616000D01*
X3816000Y3666000D01*
X3766000Y3616000D01*
X3816000Y3566000D01*
X3816000Y3312000D02*
X3866000Y3362000D01*
X3816000Y3412000D01*
X3766000Y3362000D01*
X3816000Y3312000D01*
X3816000Y3058000D02*
X3866000Y3108000D01*
X3816000Y3158000D01*
X3766000Y3108000D01*
X3816000Y3058000D01*
X3816000Y2804000D02*
X3866000Y2854000D01*
X3816000Y2904000D01*
X3766000Y2854000D01*
X3816000Y2804000D01*
D11*
X242619Y-317524D02*
X242619Y-117524D01*
X242619Y-117524D02*
X290238Y-117524D01*
X290238Y-117524D02*
X318810Y-127048D01*
X318810Y-127048D02*
X337857Y-146095D01*
X337857Y-146095D02*
X347381Y-165143D01*
X347381Y-165143D02*
X356905Y-203238D01*
X356905Y-203238D02*
X356905Y-231809D01*
X356905Y-231809D02*
X347381Y-269905D01*
X347381Y-269905D02*
X337857Y-288952D01*
X337857Y-288952D02*
X318810Y-308000D01*
X318810Y-308000D02*
X290238Y-317524D01*
X290238Y-317524D02*
X242619Y-317524D01*
X442619Y-317524D02*
X442619Y-184190D01*
X442619Y-222286D02*
X452143Y-203238D01*
X452143Y-203238D02*
X461667Y-193714D01*
X461667Y-193714D02*
X480714Y-184190D01*
X480714Y-184190D02*
X499762Y-184190D01*
X566429Y-317524D02*
X566429Y-184190D01*
X566429Y-117524D02*
X556905Y-127048D01*
X556905Y-127048D02*
X566429Y-136571D01*
X566429Y-136571D02*
X575952Y-127048D01*
X575952Y-127048D02*
X566429Y-117524D01*
X566429Y-117524D02*
X566429Y-136571D01*
X690238Y-317524D02*
X671190Y-308000D01*
X671190Y-308000D02*
X661667Y-288952D01*
X661667Y-288952D02*
X661667Y-117524D01*
X795000Y-317524D02*
X775952Y-308000D01*
X775952Y-308000D02*
X766428Y-288952D01*
X766428Y-288952D02*
X766428Y-117524D01*
X1023571Y-317524D02*
X1023571Y-117524D01*
X1023571Y-117524D02*
X1090238Y-260381D01*
X1090238Y-260381D02*
X1156905Y-117524D01*
X1156905Y-117524D02*
X1156905Y-317524D01*
X1337857Y-317524D02*
X1337857Y-212762D01*
X1337857Y-212762D02*
X1328333Y-193714D01*
X1328333Y-193714D02*
X1309286Y-184190D01*
X1309286Y-184190D02*
X1271190Y-184190D01*
X1271190Y-184190D02*
X1252143Y-193714D01*
X1337857Y-308000D02*
X1318810Y-317524D01*
X1318810Y-317524D02*
X1271190Y-317524D01*
X1271190Y-317524D02*
X1252143Y-308000D01*
X1252143Y-308000D02*
X1242619Y-288952D01*
X1242619Y-288952D02*
X1242619Y-269905D01*
X1242619Y-269905D02*
X1252143Y-250857D01*
X1252143Y-250857D02*
X1271190Y-241333D01*
X1271190Y-241333D02*
X1318810Y-241333D01*
X1318810Y-241333D02*
X1337857Y-231809D01*
X1433095Y-184190D02*
X1433095Y-384190D01*
X1433095Y-193714D02*
X1452143Y-184190D01*
X1452143Y-184190D02*
X1490238Y-184190D01*
X1490238Y-184190D02*
X1509286Y-193714D01*
X1509286Y-193714D02*
X1518809Y-203238D01*
X1518809Y-203238D02*
X1528333Y-222286D01*
X1528333Y-222286D02*
X1528333Y-279429D01*
X1528333Y-279429D02*
X1518809Y-298476D01*
X1518809Y-298476D02*
X1509286Y-308000D01*
X1509286Y-308000D02*
X1490238Y-317524D01*
X1490238Y-317524D02*
X1452143Y-317524D01*
X1452143Y-317524D02*
X1433095Y-308000D01*
X1614048Y-298476D02*
X1623571Y-308000D01*
X1623571Y-308000D02*
X1614048Y-317524D01*
X1614048Y-317524D02*
X1604524Y-308000D01*
X1604524Y-308000D02*
X1614048Y-298476D01*
X1614048Y-298476D02*
X1614048Y-317524D01*
X1614048Y-193714D02*
X1623571Y-203238D01*
X1623571Y-203238D02*
X1614048Y-212762D01*
X1614048Y-212762D02*
X1604524Y-203238D01*
X1604524Y-203238D02*
X1614048Y-193714D01*
X1614048Y-193714D02*
X1614048Y-212762D01*
D12*
X-25000Y-635000D02*
X-5000Y-655000D01*
X-5000Y-635000D02*
X-25000Y-655000D01*
D11*
X280714Y-537524D02*
X299762Y-537524D01*
X299762Y-537524D02*
X318810Y-547048D01*
X318810Y-547048D02*
X328333Y-556571D01*
X328333Y-556571D02*
X337857Y-575619D01*
X337857Y-575619D02*
X347381Y-613714D01*
X347381Y-613714D02*
X347381Y-661333D01*
X347381Y-661333D02*
X337857Y-699428D01*
X337857Y-699428D02*
X328333Y-718476D01*
X328333Y-718476D02*
X318810Y-728000D01*
X318810Y-728000D02*
X299762Y-737524D01*
X299762Y-737524D02*
X280714Y-737524D01*
X280714Y-737524D02*
X261667Y-728000D01*
X261667Y-728000D02*
X252143Y-718476D01*
X252143Y-718476D02*
X242619Y-699428D01*
X242619Y-699428D02*
X233095Y-661333D01*
X233095Y-661333D02*
X233095Y-613714D01*
X233095Y-613714D02*
X242619Y-575619D01*
X242619Y-575619D02*
X252143Y-556571D01*
X252143Y-556571D02*
X261667Y-547048D01*
X261667Y-547048D02*
X280714Y-537524D01*
X433095Y-718476D02*
X442619Y-728000D01*
X442619Y-728000D02*
X433095Y-737524D01*
X433095Y-737524D02*
X423571Y-728000D01*
X423571Y-728000D02*
X433095Y-718476D01*
X433095Y-718476D02*
X433095Y-737524D01*
X518809Y-556571D02*
X528333Y-547048D01*
X528333Y-547048D02*
X547381Y-537524D01*
X547381Y-537524D02*
X595000Y-537524D01*
X595000Y-537524D02*
X614048Y-547048D01*
X614048Y-547048D02*
X623571Y-556571D01*
X623571Y-556571D02*
X633095Y-575619D01*
X633095Y-575619D02*
X633095Y-594667D01*
X633095Y-594667D02*
X623571Y-623238D01*
X623571Y-623238D02*
X509286Y-737524D01*
X509286Y-737524D02*
X633095Y-737524D01*
X756905Y-537524D02*
X775952Y-537524D01*
X775952Y-537524D02*
X795000Y-547048D01*
X795000Y-547048D02*
X804524Y-556571D01*
X804524Y-556571D02*
X814048Y-575619D01*
X814048Y-575619D02*
X823571Y-613714D01*
X823571Y-613714D02*
X823571Y-661333D01*
X823571Y-661333D02*
X814048Y-699428D01*
X814048Y-699428D02*
X804524Y-718476D01*
X804524Y-718476D02*
X795000Y-728000D01*
X795000Y-728000D02*
X775952Y-737524D01*
X775952Y-737524D02*
X756905Y-737524D01*
X756905Y-737524D02*
X737857Y-728000D01*
X737857Y-728000D02*
X728333Y-718476D01*
X728333Y-718476D02*
X718809Y-699428D01*
X718809Y-699428D02*
X709286Y-661333D01*
X709286Y-661333D02*
X709286Y-613714D01*
X709286Y-613714D02*
X718809Y-575619D01*
X718809Y-575619D02*
X728333Y-556571D01*
X728333Y-556571D02*
X737857Y-547048D01*
X737857Y-547048D02*
X756905Y-537524D01*
X947381Y-537524D02*
X966429Y-537524D01*
X966429Y-537524D02*
X985476Y-547048D01*
X985476Y-547048D02*
X995000Y-556571D01*
X995000Y-556571D02*
X1004524Y-575619D01*
X1004524Y-575619D02*
X1014048Y-613714D01*
X1014048Y-613714D02*
X1014048Y-661333D01*
X1014048Y-661333D02*
X1004524Y-699428D01*
X1004524Y-699428D02*
X995000Y-718476D01*
X995000Y-718476D02*
X985476Y-728000D01*
X985476Y-728000D02*
X966429Y-737524D01*
X966429Y-737524D02*
X947381Y-737524D01*
X947381Y-737524D02*
X928333Y-728000D01*
X928333Y-728000D02*
X918809Y-718476D01*
X918809Y-718476D02*
X909286Y-699428D01*
X909286Y-699428D02*
X899762Y-661333D01*
X899762Y-661333D02*
X899762Y-613714D01*
X899762Y-613714D02*
X909286Y-575619D01*
X909286Y-575619D02*
X918809Y-556571D01*
X918809Y-556571D02*
X928333Y-547048D01*
X928333Y-547048D02*
X947381Y-537524D01*
X1099762Y-737524D02*
X1099762Y-604190D01*
X1099762Y-623238D02*
X1109286Y-613714D01*
X1109286Y-613714D02*
X1128333Y-604190D01*
X1128333Y-604190D02*
X1156905Y-604190D01*
X1156905Y-604190D02*
X1175952Y-613714D01*
X1175952Y-613714D02*
X1185476Y-632762D01*
X1185476Y-632762D02*
X1185476Y-737524D01*
X1185476Y-632762D02*
X1195000Y-613714D01*
X1195000Y-613714D02*
X1214048Y-604190D01*
X1214048Y-604190D02*
X1242619Y-604190D01*
X1242619Y-604190D02*
X1261667Y-613714D01*
X1261667Y-613714D02*
X1271191Y-632762D01*
X1271191Y-632762D02*
X1271191Y-737524D01*
X1366429Y-737524D02*
X1366429Y-604190D01*
X1366429Y-623238D02*
X1375952Y-613714D01*
X1375952Y-613714D02*
X1395000Y-604190D01*
X1395000Y-604190D02*
X1423571Y-604190D01*
X1423571Y-604190D02*
X1442619Y-613714D01*
X1442619Y-613714D02*
X1452143Y-632762D01*
X1452143Y-632762D02*
X1452143Y-737524D01*
X1452143Y-632762D02*
X1461667Y-613714D01*
X1461667Y-613714D02*
X1480714Y-604190D01*
X1480714Y-604190D02*
X1509286Y-604190D01*
X1509286Y-604190D02*
X1528333Y-613714D01*
X1528333Y-613714D02*
X1537857Y-632762D01*
X1537857Y-632762D02*
X1537857Y-737524D01*
X1928333Y-528000D02*
X1756905Y-785143D01*
X2185476Y-537524D02*
X2204524Y-537524D01*
X2204524Y-537524D02*
X2223572Y-547048D01*
X2223572Y-547048D02*
X2233095Y-556571D01*
X2233095Y-556571D02*
X2242619Y-575619D01*
X2242619Y-575619D02*
X2252143Y-613714D01*
X2252143Y-613714D02*
X2252143Y-661333D01*
X2252143Y-661333D02*
X2242619Y-699428D01*
X2242619Y-699428D02*
X2233095Y-718476D01*
X2233095Y-718476D02*
X2223572Y-728000D01*
X2223572Y-728000D02*
X2204524Y-737524D01*
X2204524Y-737524D02*
X2185476Y-737524D01*
X2185476Y-737524D02*
X2166429Y-728000D01*
X2166429Y-728000D02*
X2156905Y-718476D01*
X2156905Y-718476D02*
X2147381Y-699428D01*
X2147381Y-699428D02*
X2137857Y-661333D01*
X2137857Y-661333D02*
X2137857Y-613714D01*
X2137857Y-613714D02*
X2147381Y-575619D01*
X2147381Y-575619D02*
X2156905Y-556571D01*
X2156905Y-556571D02*
X2166429Y-547048D01*
X2166429Y-547048D02*
X2185476Y-537524D01*
X2337857Y-718476D02*
X2347381Y-728000D01*
X2347381Y-728000D02*
X2337857Y-737524D01*
X2337857Y-737524D02*
X2328334Y-728000D01*
X2328334Y-728000D02*
X2337857Y-718476D01*
X2337857Y-718476D02*
X2337857Y-737524D01*
X2471191Y-537524D02*
X2490238Y-537524D01*
X2490238Y-537524D02*
X2509286Y-547048D01*
X2509286Y-547048D02*
X2518810Y-556571D01*
X2518810Y-556571D02*
X2528334Y-575619D01*
X2528334Y-575619D02*
X2537857Y-613714D01*
X2537857Y-613714D02*
X2537857Y-661333D01*
X2537857Y-661333D02*
X2528334Y-699428D01*
X2528334Y-699428D02*
X2518810Y-718476D01*
X2518810Y-718476D02*
X2509286Y-728000D01*
X2509286Y-728000D02*
X2490238Y-737524D01*
X2490238Y-737524D02*
X2471191Y-737524D01*
X2471191Y-737524D02*
X2452143Y-728000D01*
X2452143Y-728000D02*
X2442619Y-718476D01*
X2442619Y-718476D02*
X2433095Y-699428D01*
X2433095Y-699428D02*
X2423572Y-661333D01*
X2423572Y-661333D02*
X2423572Y-613714D01*
X2423572Y-613714D02*
X2433095Y-575619D01*
X2433095Y-575619D02*
X2442619Y-556571D01*
X2442619Y-556571D02*
X2452143Y-547048D01*
X2452143Y-547048D02*
X2471191Y-537524D01*
X2661667Y-537524D02*
X2680715Y-537524D01*
X2680715Y-537524D02*
X2699762Y-547048D01*
X2699762Y-547048D02*
X2709286Y-556571D01*
X2709286Y-556571D02*
X2718810Y-575619D01*
X2718810Y-575619D02*
X2728334Y-613714D01*
X2728334Y-613714D02*
X2728334Y-661333D01*
X2728334Y-661333D02*
X2718810Y-699428D01*
X2718810Y-699428D02*
X2709286Y-718476D01*
X2709286Y-718476D02*
X2699762Y-728000D01*
X2699762Y-728000D02*
X2680715Y-737524D01*
X2680715Y-737524D02*
X2661667Y-737524D01*
X2661667Y-737524D02*
X2642619Y-728000D01*
X2642619Y-728000D02*
X2633095Y-718476D01*
X2633095Y-718476D02*
X2623572Y-699428D01*
X2623572Y-699428D02*
X2614048Y-661333D01*
X2614048Y-661333D02*
X2614048Y-613714D01*
X2614048Y-613714D02*
X2623572Y-575619D01*
X2623572Y-575619D02*
X2633095Y-556571D01*
X2633095Y-556571D02*
X2642619Y-547048D01*
X2642619Y-547048D02*
X2661667Y-537524D01*
X2795000Y-537524D02*
X2928333Y-537524D01*
X2928333Y-537524D02*
X2842619Y-737524D01*
X3014048Y-737524D02*
X3052143Y-737524D01*
X3052143Y-737524D02*
X3071191Y-728000D01*
X3071191Y-728000D02*
X3080714Y-718476D01*
X3080714Y-718476D02*
X3099762Y-689905D01*
X3099762Y-689905D02*
X3109286Y-651810D01*
X3109286Y-651810D02*
X3109286Y-575619D01*
X3109286Y-575619D02*
X3099762Y-556571D01*
X3099762Y-556571D02*
X3090238Y-547048D01*
X3090238Y-547048D02*
X3071191Y-537524D01*
X3071191Y-537524D02*
X3033095Y-537524D01*
X3033095Y-537524D02*
X3014048Y-547048D01*
X3014048Y-547048D02*
X3004524Y-556571D01*
X3004524Y-556571D02*
X2995000Y-575619D01*
X2995000Y-575619D02*
X2995000Y-623238D01*
X2995000Y-623238D02*
X3004524Y-642286D01*
X3004524Y-642286D02*
X3014048Y-651810D01*
X3014048Y-651810D02*
X3033095Y-661333D01*
X3033095Y-661333D02*
X3071191Y-661333D01*
X3071191Y-661333D02*
X3090238Y-651810D01*
X3090238Y-651810D02*
X3099762Y-642286D01*
X3099762Y-642286D02*
X3109286Y-623238D01*
X3185476Y-537524D02*
X3185476Y-575619D01*
X3261667Y-537524D02*
X3261667Y-575619D01*
X3556905Y-813714D02*
X3547381Y-804190D01*
X3547381Y-804190D02*
X3528334Y-775619D01*
X3528334Y-775619D02*
X3518810Y-756571D01*
X3518810Y-756571D02*
X3509286Y-728000D01*
X3509286Y-728000D02*
X3499762Y-680381D01*
X3499762Y-680381D02*
X3499762Y-642286D01*
X3499762Y-642286D02*
X3509286Y-594667D01*
X3509286Y-594667D02*
X3518810Y-566095D01*
X3518810Y-566095D02*
X3528334Y-547048D01*
X3528334Y-547048D02*
X3547381Y-518476D01*
X3547381Y-518476D02*
X3556905Y-508952D01*
X3728334Y-537524D02*
X3633095Y-537524D01*
X3633095Y-537524D02*
X3623572Y-632762D01*
X3623572Y-632762D02*
X3633095Y-623238D01*
X3633095Y-623238D02*
X3652143Y-613714D01*
X3652143Y-613714D02*
X3699762Y-613714D01*
X3699762Y-613714D02*
X3718810Y-623238D01*
X3718810Y-623238D02*
X3728334Y-632762D01*
X3728334Y-632762D02*
X3737857Y-651810D01*
X3737857Y-651810D02*
X3737857Y-699428D01*
X3737857Y-699428D02*
X3728334Y-718476D01*
X3728334Y-718476D02*
X3718810Y-728000D01*
X3718810Y-728000D02*
X3699762Y-737524D01*
X3699762Y-737524D02*
X3652143Y-737524D01*
X3652143Y-737524D02*
X3633095Y-728000D01*
X3633095Y-728000D02*
X3623572Y-718476D01*
X3814048Y-556571D02*
X3823572Y-547048D01*
X3823572Y-547048D02*
X3842619Y-537524D01*
X3842619Y-537524D02*
X3890238Y-537524D01*
X3890238Y-537524D02*
X3909286Y-547048D01*
X3909286Y-547048D02*
X3918810Y-556571D01*
X3918810Y-556571D02*
X3928334Y-575619D01*
X3928334Y-575619D02*
X3928334Y-594667D01*
X3928334Y-594667D02*
X3918810Y-623238D01*
X3918810Y-623238D02*
X3804524Y-737524D01*
X3804524Y-737524D02*
X3928334Y-737524D01*
X4109286Y-537524D02*
X4014048Y-537524D01*
X4014048Y-537524D02*
X4004524Y-632762D01*
X4004524Y-632762D02*
X4014048Y-623238D01*
X4014048Y-623238D02*
X4033095Y-613714D01*
X4033095Y-613714D02*
X4080715Y-613714D01*
X4080715Y-613714D02*
X4099762Y-623238D01*
X4099762Y-623238D02*
X4109286Y-632762D01*
X4109286Y-632762D02*
X4118810Y-651810D01*
X4118810Y-651810D02*
X4118810Y-699428D01*
X4118810Y-699428D02*
X4109286Y-718476D01*
X4109286Y-718476D02*
X4099762Y-728000D01*
X4099762Y-728000D02*
X4080715Y-737524D01*
X4080715Y-737524D02*
X4033095Y-737524D01*
X4033095Y-737524D02*
X4014048Y-728000D01*
X4014048Y-728000D02*
X4004524Y-718476D01*
X4356905Y-737524D02*
X4356905Y-537524D01*
X4442619Y-737524D02*
X4442619Y-632762D01*
X4442619Y-632762D02*
X4433096Y-613714D01*
X4433096Y-613714D02*
X4414048Y-604190D01*
X4414048Y-604190D02*
X4385477Y-604190D01*
X4385477Y-604190D02*
X4366429Y-613714D01*
X4366429Y-613714D02*
X4356905Y-623238D01*
X4566429Y-737524D02*
X4547381Y-728000D01*
X4547381Y-728000D02*
X4537858Y-718476D01*
X4537858Y-718476D02*
X4528334Y-699428D01*
X4528334Y-699428D02*
X4528334Y-642286D01*
X4528334Y-642286D02*
X4537858Y-623238D01*
X4537858Y-623238D02*
X4547381Y-613714D01*
X4547381Y-613714D02*
X4566429Y-604190D01*
X4566429Y-604190D02*
X4595000Y-604190D01*
X4595000Y-604190D02*
X4614048Y-613714D01*
X4614048Y-613714D02*
X4623572Y-623238D01*
X4623572Y-623238D02*
X4633096Y-642286D01*
X4633096Y-642286D02*
X4633096Y-699428D01*
X4633096Y-699428D02*
X4623572Y-718476D01*
X4623572Y-718476D02*
X4614048Y-728000D01*
X4614048Y-728000D02*
X4595000Y-737524D01*
X4595000Y-737524D02*
X4566429Y-737524D01*
X4747381Y-737524D02*
X4728334Y-728000D01*
X4728334Y-728000D02*
X4718810Y-708952D01*
X4718810Y-708952D02*
X4718810Y-537524D01*
X4899762Y-728000D02*
X4880715Y-737524D01*
X4880715Y-737524D02*
X4842619Y-737524D01*
X4842619Y-737524D02*
X4823572Y-728000D01*
X4823572Y-728000D02*
X4814048Y-708952D01*
X4814048Y-708952D02*
X4814048Y-632762D01*
X4814048Y-632762D02*
X4823572Y-613714D01*
X4823572Y-613714D02*
X4842619Y-604190D01*
X4842619Y-604190D02*
X4880715Y-604190D01*
X4880715Y-604190D02*
X4899762Y-613714D01*
X4899762Y-613714D02*
X4909286Y-632762D01*
X4909286Y-632762D02*
X4909286Y-651810D01*
X4909286Y-651810D02*
X4814048Y-670857D01*
X4985477Y-728000D02*
X5004524Y-737524D01*
X5004524Y-737524D02*
X5042619Y-737524D01*
X5042619Y-737524D02*
X5061667Y-728000D01*
X5061667Y-728000D02*
X5071191Y-708952D01*
X5071191Y-708952D02*
X5071191Y-699428D01*
X5071191Y-699428D02*
X5061667Y-680381D01*
X5061667Y-680381D02*
X5042619Y-670857D01*
X5042619Y-670857D02*
X5014048Y-670857D01*
X5014048Y-670857D02*
X4995000Y-661333D01*
X4995000Y-661333D02*
X4985477Y-642286D01*
X4985477Y-642286D02*
X4985477Y-632762D01*
X4985477Y-632762D02*
X4995000Y-613714D01*
X4995000Y-613714D02*
X5014048Y-604190D01*
X5014048Y-604190D02*
X5042619Y-604190D01*
X5042619Y-604190D02*
X5061667Y-613714D01*
X5137858Y-813714D02*
X5147381Y-804190D01*
X5147381Y-804190D02*
X5166429Y-775619D01*
X5166429Y-775619D02*
X5175953Y-756571D01*
X5175953Y-756571D02*
X5185477Y-728000D01*
X5185477Y-728000D02*
X5195000Y-680381D01*
X5195000Y-680381D02*
X5195000Y-642286D01*
X5195000Y-642286D02*
X5185477Y-594667D01*
X5185477Y-594667D02*
X5175953Y-566095D01*
X5175953Y-566095D02*
X5166429Y-547048D01*
X5166429Y-547048D02*
X5147381Y-518476D01*
X5147381Y-518476D02*
X5137858Y-508952D01*
D13*
X-5000Y-909000D02*
G75*
G03*
X-5000Y-909000I-15000J0D01*
G01*
D11*
X280714Y-801524D02*
X299762Y-801524D01*
X299762Y-801524D02*
X318810Y-811048D01*
X318810Y-811048D02*
X328333Y-820571D01*
X328333Y-820571D02*
X337857Y-839619D01*
X337857Y-839619D02*
X347381Y-877714D01*
X347381Y-877714D02*
X347381Y-925333D01*
X347381Y-925333D02*
X337857Y-963428D01*
X337857Y-963428D02*
X328333Y-982476D01*
X328333Y-982476D02*
X318810Y-992000D01*
X318810Y-992000D02*
X299762Y-1001524D01*
X299762Y-1001524D02*
X280714Y-1001524D01*
X280714Y-1001524D02*
X261667Y-992000D01*
X261667Y-992000D02*
X252143Y-982476D01*
X252143Y-982476D02*
X242619Y-963428D01*
X242619Y-963428D02*
X233095Y-925333D01*
X233095Y-925333D02*
X233095Y-877714D01*
X233095Y-877714D02*
X242619Y-839619D01*
X242619Y-839619D02*
X252143Y-820571D01*
X252143Y-820571D02*
X261667Y-811048D01*
X261667Y-811048D02*
X280714Y-801524D01*
X433095Y-982476D02*
X442619Y-992000D01*
X442619Y-992000D02*
X433095Y-1001524D01*
X433095Y-1001524D02*
X423571Y-992000D01*
X423571Y-992000D02*
X433095Y-982476D01*
X433095Y-982476D02*
X433095Y-1001524D01*
X509286Y-801524D02*
X633095Y-801524D01*
X633095Y-801524D02*
X566429Y-877714D01*
X566429Y-877714D02*
X595000Y-877714D01*
X595000Y-877714D02*
X614048Y-887238D01*
X614048Y-887238D02*
X623571Y-896762D01*
X623571Y-896762D02*
X633095Y-915809D01*
X633095Y-915809D02*
X633095Y-963428D01*
X633095Y-963428D02*
X623571Y-982476D01*
X623571Y-982476D02*
X614048Y-992000D01*
X614048Y-992000D02*
X595000Y-1001524D01*
X595000Y-1001524D02*
X537857Y-1001524D01*
X537857Y-1001524D02*
X518809Y-992000D01*
X518809Y-992000D02*
X509286Y-982476D01*
X756905Y-801524D02*
X775952Y-801524D01*
X775952Y-801524D02*
X795000Y-811048D01*
X795000Y-811048D02*
X804524Y-820571D01*
X804524Y-820571D02*
X814048Y-839619D01*
X814048Y-839619D02*
X823571Y-877714D01*
X823571Y-877714D02*
X823571Y-925333D01*
X823571Y-925333D02*
X814048Y-963428D01*
X814048Y-963428D02*
X804524Y-982476D01*
X804524Y-982476D02*
X795000Y-992000D01*
X795000Y-992000D02*
X775952Y-1001524D01*
X775952Y-1001524D02*
X756905Y-1001524D01*
X756905Y-1001524D02*
X737857Y-992000D01*
X737857Y-992000D02*
X728333Y-982476D01*
X728333Y-982476D02*
X718809Y-963428D01*
X718809Y-963428D02*
X709286Y-925333D01*
X709286Y-925333D02*
X709286Y-877714D01*
X709286Y-877714D02*
X718809Y-839619D01*
X718809Y-839619D02*
X728333Y-820571D01*
X728333Y-820571D02*
X737857Y-811048D01*
X737857Y-811048D02*
X756905Y-801524D01*
X947381Y-801524D02*
X966429Y-801524D01*
X966429Y-801524D02*
X985476Y-811048D01*
X985476Y-811048D02*
X995000Y-820571D01*
X995000Y-820571D02*
X1004524Y-839619D01*
X1004524Y-839619D02*
X1014048Y-877714D01*
X1014048Y-877714D02*
X1014048Y-925333D01*
X1014048Y-925333D02*
X1004524Y-963428D01*
X1004524Y-963428D02*
X995000Y-982476D01*
X995000Y-982476D02*
X985476Y-992000D01*
X985476Y-992000D02*
X966429Y-1001524D01*
X966429Y-1001524D02*
X947381Y-1001524D01*
X947381Y-1001524D02*
X928333Y-992000D01*
X928333Y-992000D02*
X918809Y-982476D01*
X918809Y-982476D02*
X909286Y-963428D01*
X909286Y-963428D02*
X899762Y-925333D01*
X899762Y-925333D02*
X899762Y-877714D01*
X899762Y-877714D02*
X909286Y-839619D01*
X909286Y-839619D02*
X918809Y-820571D01*
X918809Y-820571D02*
X928333Y-811048D01*
X928333Y-811048D02*
X947381Y-801524D01*
X1099762Y-1001524D02*
X1099762Y-868190D01*
X1099762Y-887238D02*
X1109286Y-877714D01*
X1109286Y-877714D02*
X1128333Y-868190D01*
X1128333Y-868190D02*
X1156905Y-868190D01*
X1156905Y-868190D02*
X1175952Y-877714D01*
X1175952Y-877714D02*
X1185476Y-896762D01*
X1185476Y-896762D02*
X1185476Y-1001524D01*
X1185476Y-896762D02*
X1195000Y-877714D01*
X1195000Y-877714D02*
X1214048Y-868190D01*
X1214048Y-868190D02*
X1242619Y-868190D01*
X1242619Y-868190D02*
X1261667Y-877714D01*
X1261667Y-877714D02*
X1271191Y-896762D01*
X1271191Y-896762D02*
X1271191Y-1001524D01*
X1366429Y-1001524D02*
X1366429Y-868190D01*
X1366429Y-887238D02*
X1375952Y-877714D01*
X1375952Y-877714D02*
X1395000Y-868190D01*
X1395000Y-868190D02*
X1423571Y-868190D01*
X1423571Y-868190D02*
X1442619Y-877714D01*
X1442619Y-877714D02*
X1452143Y-896762D01*
X1452143Y-896762D02*
X1452143Y-1001524D01*
X1452143Y-896762D02*
X1461667Y-877714D01*
X1461667Y-877714D02*
X1480714Y-868190D01*
X1480714Y-868190D02*
X1509286Y-868190D01*
X1509286Y-868190D02*
X1528333Y-877714D01*
X1528333Y-877714D02*
X1537857Y-896762D01*
X1537857Y-896762D02*
X1537857Y-1001524D01*
X1928333Y-792000D02*
X1756905Y-1049143D01*
X2185476Y-801524D02*
X2204524Y-801524D01*
X2204524Y-801524D02*
X2223572Y-811048D01*
X2223572Y-811048D02*
X2233095Y-820571D01*
X2233095Y-820571D02*
X2242619Y-839619D01*
X2242619Y-839619D02*
X2252143Y-877714D01*
X2252143Y-877714D02*
X2252143Y-925333D01*
X2252143Y-925333D02*
X2242619Y-963428D01*
X2242619Y-963428D02*
X2233095Y-982476D01*
X2233095Y-982476D02*
X2223572Y-992000D01*
X2223572Y-992000D02*
X2204524Y-1001524D01*
X2204524Y-1001524D02*
X2185476Y-1001524D01*
X2185476Y-1001524D02*
X2166429Y-992000D01*
X2166429Y-992000D02*
X2156905Y-982476D01*
X2156905Y-982476D02*
X2147381Y-963428D01*
X2147381Y-963428D02*
X2137857Y-925333D01*
X2137857Y-925333D02*
X2137857Y-877714D01*
X2137857Y-877714D02*
X2147381Y-839619D01*
X2147381Y-839619D02*
X2156905Y-820571D01*
X2156905Y-820571D02*
X2166429Y-811048D01*
X2166429Y-811048D02*
X2185476Y-801524D01*
X2337857Y-982476D02*
X2347381Y-992000D01*
X2347381Y-992000D02*
X2337857Y-1001524D01*
X2337857Y-1001524D02*
X2328334Y-992000D01*
X2328334Y-992000D02*
X2337857Y-982476D01*
X2337857Y-982476D02*
X2337857Y-1001524D01*
X2471191Y-801524D02*
X2490238Y-801524D01*
X2490238Y-801524D02*
X2509286Y-811048D01*
X2509286Y-811048D02*
X2518810Y-820571D01*
X2518810Y-820571D02*
X2528334Y-839619D01*
X2528334Y-839619D02*
X2537857Y-877714D01*
X2537857Y-877714D02*
X2537857Y-925333D01*
X2537857Y-925333D02*
X2528334Y-963428D01*
X2528334Y-963428D02*
X2518810Y-982476D01*
X2518810Y-982476D02*
X2509286Y-992000D01*
X2509286Y-992000D02*
X2490238Y-1001524D01*
X2490238Y-1001524D02*
X2471191Y-1001524D01*
X2471191Y-1001524D02*
X2452143Y-992000D01*
X2452143Y-992000D02*
X2442619Y-982476D01*
X2442619Y-982476D02*
X2433095Y-963428D01*
X2433095Y-963428D02*
X2423572Y-925333D01*
X2423572Y-925333D02*
X2423572Y-877714D01*
X2423572Y-877714D02*
X2433095Y-839619D01*
X2433095Y-839619D02*
X2442619Y-820571D01*
X2442619Y-820571D02*
X2452143Y-811048D01*
X2452143Y-811048D02*
X2471191Y-801524D01*
X2728334Y-1001524D02*
X2614048Y-1001524D01*
X2671191Y-1001524D02*
X2671191Y-801524D01*
X2671191Y-801524D02*
X2652143Y-830095D01*
X2652143Y-830095D02*
X2633095Y-849143D01*
X2633095Y-849143D02*
X2614048Y-858667D01*
X2918810Y-1001524D02*
X2804524Y-1001524D01*
X2861667Y-1001524D02*
X2861667Y-801524D01*
X2861667Y-801524D02*
X2842619Y-830095D01*
X2842619Y-830095D02*
X2823572Y-849143D01*
X2823572Y-849143D02*
X2804524Y-858667D01*
X3033095Y-887238D02*
X3014048Y-877714D01*
X3014048Y-877714D02*
X3004524Y-868190D01*
X3004524Y-868190D02*
X2995000Y-849143D01*
X2995000Y-849143D02*
X2995000Y-839619D01*
X2995000Y-839619D02*
X3004524Y-820571D01*
X3004524Y-820571D02*
X3014048Y-811048D01*
X3014048Y-811048D02*
X3033095Y-801524D01*
X3033095Y-801524D02*
X3071191Y-801524D01*
X3071191Y-801524D02*
X3090238Y-811048D01*
X3090238Y-811048D02*
X3099762Y-820571D01*
X3099762Y-820571D02*
X3109286Y-839619D01*
X3109286Y-839619D02*
X3109286Y-849143D01*
X3109286Y-849143D02*
X3099762Y-868190D01*
X3099762Y-868190D02*
X3090238Y-877714D01*
X3090238Y-877714D02*
X3071191Y-887238D01*
X3071191Y-887238D02*
X3033095Y-887238D01*
X3033095Y-887238D02*
X3014048Y-896762D01*
X3014048Y-896762D02*
X3004524Y-906286D01*
X3004524Y-906286D02*
X2995000Y-925333D01*
X2995000Y-925333D02*
X2995000Y-963428D01*
X2995000Y-963428D02*
X3004524Y-982476D01*
X3004524Y-982476D02*
X3014048Y-992000D01*
X3014048Y-992000D02*
X3033095Y-1001524D01*
X3033095Y-1001524D02*
X3071191Y-1001524D01*
X3071191Y-1001524D02*
X3090238Y-992000D01*
X3090238Y-992000D02*
X3099762Y-982476D01*
X3099762Y-982476D02*
X3109286Y-963428D01*
X3109286Y-963428D02*
X3109286Y-925333D01*
X3109286Y-925333D02*
X3099762Y-906286D01*
X3099762Y-906286D02*
X3090238Y-896762D01*
X3090238Y-896762D02*
X3071191Y-887238D01*
X3185476Y-801524D02*
X3185476Y-839619D01*
X3261667Y-801524D02*
X3261667Y-839619D01*
X3556905Y-1077714D02*
X3547381Y-1068190D01*
X3547381Y-1068190D02*
X3528334Y-1039619D01*
X3528334Y-1039619D02*
X3518810Y-1020571D01*
X3518810Y-1020571D02*
X3509286Y-992000D01*
X3509286Y-992000D02*
X3499762Y-944381D01*
X3499762Y-944381D02*
X3499762Y-906286D01*
X3499762Y-906286D02*
X3509286Y-858667D01*
X3509286Y-858667D02*
X3518810Y-830095D01*
X3518810Y-830095D02*
X3528334Y-811048D01*
X3528334Y-811048D02*
X3547381Y-782476D01*
X3547381Y-782476D02*
X3556905Y-772952D01*
X3737857Y-1001524D02*
X3623572Y-1001524D01*
X3680714Y-1001524D02*
X3680714Y-801524D01*
X3680714Y-801524D02*
X3661667Y-830095D01*
X3661667Y-830095D02*
X3642619Y-849143D01*
X3642619Y-849143D02*
X3623572Y-858667D01*
X3975953Y-1001524D02*
X3975953Y-801524D01*
X4061667Y-1001524D02*
X4061667Y-896762D01*
X4061667Y-896762D02*
X4052143Y-877714D01*
X4052143Y-877714D02*
X4033096Y-868190D01*
X4033096Y-868190D02*
X4004524Y-868190D01*
X4004524Y-868190D02*
X3985476Y-877714D01*
X3985476Y-877714D02*
X3975953Y-887238D01*
X4185476Y-1001524D02*
X4166429Y-992000D01*
X4166429Y-992000D02*
X4156905Y-982476D01*
X4156905Y-982476D02*
X4147381Y-963428D01*
X4147381Y-963428D02*
X4147381Y-906286D01*
X4147381Y-906286D02*
X4156905Y-887238D01*
X4156905Y-887238D02*
X4166429Y-877714D01*
X4166429Y-877714D02*
X4185476Y-868190D01*
X4185476Y-868190D02*
X4214048Y-868190D01*
X4214048Y-868190D02*
X4233096Y-877714D01*
X4233096Y-877714D02*
X4242619Y-887238D01*
X4242619Y-887238D02*
X4252143Y-906286D01*
X4252143Y-906286D02*
X4252143Y-963428D01*
X4252143Y-963428D02*
X4242619Y-982476D01*
X4242619Y-982476D02*
X4233096Y-992000D01*
X4233096Y-992000D02*
X4214048Y-1001524D01*
X4214048Y-1001524D02*
X4185476Y-1001524D01*
X4366429Y-1001524D02*
X4347381Y-992000D01*
X4347381Y-992000D02*
X4337858Y-972952D01*
X4337858Y-972952D02*
X4337858Y-801524D01*
X4518810Y-992000D02*
X4499762Y-1001524D01*
X4499762Y-1001524D02*
X4461667Y-1001524D01*
X4461667Y-1001524D02*
X4442619Y-992000D01*
X4442619Y-992000D02*
X4433096Y-972952D01*
X4433096Y-972952D02*
X4433096Y-896762D01*
X4433096Y-896762D02*
X4442619Y-877714D01*
X4442619Y-877714D02*
X4461667Y-868190D01*
X4461667Y-868190D02*
X4499762Y-868190D01*
X4499762Y-868190D02*
X4518810Y-877714D01*
X4518810Y-877714D02*
X4528334Y-896762D01*
X4528334Y-896762D02*
X4528334Y-915809D01*
X4528334Y-915809D02*
X4433096Y-934857D01*
X4595000Y-1077714D02*
X4604524Y-1068190D01*
X4604524Y-1068190D02*
X4623572Y-1039619D01*
X4623572Y-1039619D02*
X4633096Y-1020571D01*
X4633096Y-1020571D02*
X4642619Y-992000D01*
X4642619Y-992000D02*
X4652143Y-944381D01*
X4652143Y-944381D02*
X4652143Y-906286D01*
X4652143Y-906286D02*
X4642619Y-858667D01*
X4642619Y-858667D02*
X4633096Y-830095D01*
X4633096Y-830095D02*
X4623572Y-811048D01*
X4623572Y-811048D02*
X4604524Y-782476D01*
X4604524Y-782476D02*
X4595000Y-772952D01*
D14*
X-30000Y-1148000D02*
X-30000Y-1198000D01*
X-55000Y-1173000D02*
X-5000Y-1173000D01*
D11*
X280714Y-1065524D02*
X299762Y-1065524D01*
X299762Y-1065524D02*
X318810Y-1075048D01*
X318810Y-1075048D02*
X328333Y-1084571D01*
X328333Y-1084571D02*
X337857Y-1103619D01*
X337857Y-1103619D02*
X347381Y-1141714D01*
X347381Y-1141714D02*
X347381Y-1189333D01*
X347381Y-1189333D02*
X337857Y-1227429D01*
X337857Y-1227429D02*
X328333Y-1246476D01*
X328333Y-1246476D02*
X318810Y-1256000D01*
X318810Y-1256000D02*
X299762Y-1265524D01*
X299762Y-1265524D02*
X280714Y-1265524D01*
X280714Y-1265524D02*
X261667Y-1256000D01*
X261667Y-1256000D02*
X252143Y-1246476D01*
X252143Y-1246476D02*
X242619Y-1227429D01*
X242619Y-1227429D02*
X233095Y-1189333D01*
X233095Y-1189333D02*
X233095Y-1141714D01*
X233095Y-1141714D02*
X242619Y-1103619D01*
X242619Y-1103619D02*
X252143Y-1084571D01*
X252143Y-1084571D02*
X261667Y-1075048D01*
X261667Y-1075048D02*
X280714Y-1065524D01*
X433095Y-1246476D02*
X442619Y-1256000D01*
X442619Y-1256000D02*
X433095Y-1265524D01*
X433095Y-1265524D02*
X423571Y-1256000D01*
X423571Y-1256000D02*
X433095Y-1246476D01*
X433095Y-1246476D02*
X433095Y-1265524D01*
X623571Y-1065524D02*
X528333Y-1065524D01*
X528333Y-1065524D02*
X518809Y-1160762D01*
X518809Y-1160762D02*
X528333Y-1151238D01*
X528333Y-1151238D02*
X547381Y-1141714D01*
X547381Y-1141714D02*
X595000Y-1141714D01*
X595000Y-1141714D02*
X614048Y-1151238D01*
X614048Y-1151238D02*
X623571Y-1160762D01*
X623571Y-1160762D02*
X633095Y-1179810D01*
X633095Y-1179810D02*
X633095Y-1227429D01*
X633095Y-1227429D02*
X623571Y-1246476D01*
X623571Y-1246476D02*
X614048Y-1256000D01*
X614048Y-1256000D02*
X595000Y-1265524D01*
X595000Y-1265524D02*
X547381Y-1265524D01*
X547381Y-1265524D02*
X528333Y-1256000D01*
X528333Y-1256000D02*
X518809Y-1246476D01*
X756905Y-1065524D02*
X775952Y-1065524D01*
X775952Y-1065524D02*
X795000Y-1075048D01*
X795000Y-1075048D02*
X804524Y-1084571D01*
X804524Y-1084571D02*
X814048Y-1103619D01*
X814048Y-1103619D02*
X823571Y-1141714D01*
X823571Y-1141714D02*
X823571Y-1189333D01*
X823571Y-1189333D02*
X814048Y-1227429D01*
X814048Y-1227429D02*
X804524Y-1246476D01*
X804524Y-1246476D02*
X795000Y-1256000D01*
X795000Y-1256000D02*
X775952Y-1265524D01*
X775952Y-1265524D02*
X756905Y-1265524D01*
X756905Y-1265524D02*
X737857Y-1256000D01*
X737857Y-1256000D02*
X728333Y-1246476D01*
X728333Y-1246476D02*
X718809Y-1227429D01*
X718809Y-1227429D02*
X709286Y-1189333D01*
X709286Y-1189333D02*
X709286Y-1141714D01*
X709286Y-1141714D02*
X718809Y-1103619D01*
X718809Y-1103619D02*
X728333Y-1084571D01*
X728333Y-1084571D02*
X737857Y-1075048D01*
X737857Y-1075048D02*
X756905Y-1065524D01*
X947381Y-1065524D02*
X966429Y-1065524D01*
X966429Y-1065524D02*
X985476Y-1075048D01*
X985476Y-1075048D02*
X995000Y-1084571D01*
X995000Y-1084571D02*
X1004524Y-1103619D01*
X1004524Y-1103619D02*
X1014048Y-1141714D01*
X1014048Y-1141714D02*
X1014048Y-1189333D01*
X1014048Y-1189333D02*
X1004524Y-1227429D01*
X1004524Y-1227429D02*
X995000Y-1246476D01*
X995000Y-1246476D02*
X985476Y-1256000D01*
X985476Y-1256000D02*
X966429Y-1265524D01*
X966429Y-1265524D02*
X947381Y-1265524D01*
X947381Y-1265524D02*
X928333Y-1256000D01*
X928333Y-1256000D02*
X918809Y-1246476D01*
X918809Y-1246476D02*
X909286Y-1227429D01*
X909286Y-1227429D02*
X899762Y-1189333D01*
X899762Y-1189333D02*
X899762Y-1141714D01*
X899762Y-1141714D02*
X909286Y-1103619D01*
X909286Y-1103619D02*
X918809Y-1084571D01*
X918809Y-1084571D02*
X928333Y-1075048D01*
X928333Y-1075048D02*
X947381Y-1065524D01*
X1099762Y-1265524D02*
X1099762Y-1132190D01*
X1099762Y-1151238D02*
X1109286Y-1141714D01*
X1109286Y-1141714D02*
X1128333Y-1132190D01*
X1128333Y-1132190D02*
X1156905Y-1132190D01*
X1156905Y-1132190D02*
X1175952Y-1141714D01*
X1175952Y-1141714D02*
X1185476Y-1160762D01*
X1185476Y-1160762D02*
X1185476Y-1265524D01*
X1185476Y-1160762D02*
X1195000Y-1141714D01*
X1195000Y-1141714D02*
X1214048Y-1132190D01*
X1214048Y-1132190D02*
X1242619Y-1132190D01*
X1242619Y-1132190D02*
X1261667Y-1141714D01*
X1261667Y-1141714D02*
X1271191Y-1160762D01*
X1271191Y-1160762D02*
X1271191Y-1265524D01*
X1366429Y-1265524D02*
X1366429Y-1132190D01*
X1366429Y-1151238D02*
X1375952Y-1141714D01*
X1375952Y-1141714D02*
X1395000Y-1132190D01*
X1395000Y-1132190D02*
X1423571Y-1132190D01*
X1423571Y-1132190D02*
X1442619Y-1141714D01*
X1442619Y-1141714D02*
X1452143Y-1160762D01*
X1452143Y-1160762D02*
X1452143Y-1265524D01*
X1452143Y-1160762D02*
X1461667Y-1141714D01*
X1461667Y-1141714D02*
X1480714Y-1132190D01*
X1480714Y-1132190D02*
X1509286Y-1132190D01*
X1509286Y-1132190D02*
X1528333Y-1141714D01*
X1528333Y-1141714D02*
X1537857Y-1160762D01*
X1537857Y-1160762D02*
X1537857Y-1265524D01*
X1928333Y-1056000D02*
X1756905Y-1313143D01*
X2185476Y-1065524D02*
X2204524Y-1065524D01*
X2204524Y-1065524D02*
X2223572Y-1075048D01*
X2223572Y-1075048D02*
X2233095Y-1084571D01*
X2233095Y-1084571D02*
X2242619Y-1103619D01*
X2242619Y-1103619D02*
X2252143Y-1141714D01*
X2252143Y-1141714D02*
X2252143Y-1189333D01*
X2252143Y-1189333D02*
X2242619Y-1227429D01*
X2242619Y-1227429D02*
X2233095Y-1246476D01*
X2233095Y-1246476D02*
X2223572Y-1256000D01*
X2223572Y-1256000D02*
X2204524Y-1265524D01*
X2204524Y-1265524D02*
X2185476Y-1265524D01*
X2185476Y-1265524D02*
X2166429Y-1256000D01*
X2166429Y-1256000D02*
X2156905Y-1246476D01*
X2156905Y-1246476D02*
X2147381Y-1227429D01*
X2147381Y-1227429D02*
X2137857Y-1189333D01*
X2137857Y-1189333D02*
X2137857Y-1141714D01*
X2137857Y-1141714D02*
X2147381Y-1103619D01*
X2147381Y-1103619D02*
X2156905Y-1084571D01*
X2156905Y-1084571D02*
X2166429Y-1075048D01*
X2166429Y-1075048D02*
X2185476Y-1065524D01*
X2337857Y-1246476D02*
X2347381Y-1256000D01*
X2347381Y-1256000D02*
X2337857Y-1265524D01*
X2337857Y-1265524D02*
X2328334Y-1256000D01*
X2328334Y-1256000D02*
X2337857Y-1246476D01*
X2337857Y-1246476D02*
X2337857Y-1265524D01*
X2471191Y-1065524D02*
X2490238Y-1065524D01*
X2490238Y-1065524D02*
X2509286Y-1075048D01*
X2509286Y-1075048D02*
X2518810Y-1084571D01*
X2518810Y-1084571D02*
X2528334Y-1103619D01*
X2528334Y-1103619D02*
X2537857Y-1141714D01*
X2537857Y-1141714D02*
X2537857Y-1189333D01*
X2537857Y-1189333D02*
X2528334Y-1227429D01*
X2528334Y-1227429D02*
X2518810Y-1246476D01*
X2518810Y-1246476D02*
X2509286Y-1256000D01*
X2509286Y-1256000D02*
X2490238Y-1265524D01*
X2490238Y-1265524D02*
X2471191Y-1265524D01*
X2471191Y-1265524D02*
X2452143Y-1256000D01*
X2452143Y-1256000D02*
X2442619Y-1246476D01*
X2442619Y-1246476D02*
X2433095Y-1227429D01*
X2433095Y-1227429D02*
X2423572Y-1189333D01*
X2423572Y-1189333D02*
X2423572Y-1141714D01*
X2423572Y-1141714D02*
X2433095Y-1103619D01*
X2433095Y-1103619D02*
X2442619Y-1084571D01*
X2442619Y-1084571D02*
X2452143Y-1075048D01*
X2452143Y-1075048D02*
X2471191Y-1065524D01*
X2728334Y-1265524D02*
X2614048Y-1265524D01*
X2671191Y-1265524D02*
X2671191Y-1065524D01*
X2671191Y-1065524D02*
X2652143Y-1094095D01*
X2652143Y-1094095D02*
X2633095Y-1113143D01*
X2633095Y-1113143D02*
X2614048Y-1122667D01*
X2823572Y-1265524D02*
X2861667Y-1265524D01*
X2861667Y-1265524D02*
X2880714Y-1256000D01*
X2880714Y-1256000D02*
X2890238Y-1246476D01*
X2890238Y-1246476D02*
X2909286Y-1217905D01*
X2909286Y-1217905D02*
X2918810Y-1179810D01*
X2918810Y-1179810D02*
X2918810Y-1103619D01*
X2918810Y-1103619D02*
X2909286Y-1084571D01*
X2909286Y-1084571D02*
X2899762Y-1075048D01*
X2899762Y-1075048D02*
X2880714Y-1065524D01*
X2880714Y-1065524D02*
X2842619Y-1065524D01*
X2842619Y-1065524D02*
X2823572Y-1075048D01*
X2823572Y-1075048D02*
X2814048Y-1084571D01*
X2814048Y-1084571D02*
X2804524Y-1103619D01*
X2804524Y-1103619D02*
X2804524Y-1151238D01*
X2804524Y-1151238D02*
X2814048Y-1170286D01*
X2814048Y-1170286D02*
X2823572Y-1179810D01*
X2823572Y-1179810D02*
X2842619Y-1189333D01*
X2842619Y-1189333D02*
X2880714Y-1189333D01*
X2880714Y-1189333D02*
X2899762Y-1179810D01*
X2899762Y-1179810D02*
X2909286Y-1170286D01*
X2909286Y-1170286D02*
X2918810Y-1151238D01*
X2985476Y-1065524D02*
X3118810Y-1065524D01*
X3118810Y-1065524D02*
X3033095Y-1265524D01*
X3185476Y-1065524D02*
X3185476Y-1103619D01*
X3261667Y-1065524D02*
X3261667Y-1103619D01*
X3556905Y-1341714D02*
X3547381Y-1332190D01*
X3547381Y-1332190D02*
X3528334Y-1303619D01*
X3528334Y-1303619D02*
X3518810Y-1284571D01*
X3518810Y-1284571D02*
X3509286Y-1256000D01*
X3509286Y-1256000D02*
X3499762Y-1208381D01*
X3499762Y-1208381D02*
X3499762Y-1170286D01*
X3499762Y-1170286D02*
X3509286Y-1122667D01*
X3509286Y-1122667D02*
X3518810Y-1094095D01*
X3518810Y-1094095D02*
X3528334Y-1075048D01*
X3528334Y-1075048D02*
X3547381Y-1046476D01*
X3547381Y-1046476D02*
X3556905Y-1036952D01*
X3671191Y-1065524D02*
X3690238Y-1065524D01*
X3690238Y-1065524D02*
X3709286Y-1075048D01*
X3709286Y-1075048D02*
X3718810Y-1084571D01*
X3718810Y-1084571D02*
X3728334Y-1103619D01*
X3728334Y-1103619D02*
X3737857Y-1141714D01*
X3737857Y-1141714D02*
X3737857Y-1189333D01*
X3737857Y-1189333D02*
X3728334Y-1227429D01*
X3728334Y-1227429D02*
X3718810Y-1246476D01*
X3718810Y-1246476D02*
X3709286Y-1256000D01*
X3709286Y-1256000D02*
X3690238Y-1265524D01*
X3690238Y-1265524D02*
X3671191Y-1265524D01*
X3671191Y-1265524D02*
X3652143Y-1256000D01*
X3652143Y-1256000D02*
X3642619Y-1246476D01*
X3642619Y-1246476D02*
X3633095Y-1227429D01*
X3633095Y-1227429D02*
X3623572Y-1189333D01*
X3623572Y-1189333D02*
X3623572Y-1141714D01*
X3623572Y-1141714D02*
X3633095Y-1103619D01*
X3633095Y-1103619D02*
X3642619Y-1084571D01*
X3642619Y-1084571D02*
X3652143Y-1075048D01*
X3652143Y-1075048D02*
X3671191Y-1065524D01*
X3975953Y-1265524D02*
X3975953Y-1065524D01*
X4061667Y-1265524D02*
X4061667Y-1160762D01*
X4061667Y-1160762D02*
X4052143Y-1141714D01*
X4052143Y-1141714D02*
X4033096Y-1132190D01*
X4033096Y-1132190D02*
X4004524Y-1132190D01*
X4004524Y-1132190D02*
X3985476Y-1141714D01*
X3985476Y-1141714D02*
X3975953Y-1151238D01*
X4185476Y-1265524D02*
X4166429Y-1256000D01*
X4166429Y-1256000D02*
X4156905Y-1246476D01*
X4156905Y-1246476D02*
X4147381Y-1227429D01*
X4147381Y-1227429D02*
X4147381Y-1170286D01*
X4147381Y-1170286D02*
X4156905Y-1151238D01*
X4156905Y-1151238D02*
X4166429Y-1141714D01*
X4166429Y-1141714D02*
X4185476Y-1132190D01*
X4185476Y-1132190D02*
X4214048Y-1132190D01*
X4214048Y-1132190D02*
X4233096Y-1141714D01*
X4233096Y-1141714D02*
X4242619Y-1151238D01*
X4242619Y-1151238D02*
X4252143Y-1170286D01*
X4252143Y-1170286D02*
X4252143Y-1227429D01*
X4252143Y-1227429D02*
X4242619Y-1246476D01*
X4242619Y-1246476D02*
X4233096Y-1256000D01*
X4233096Y-1256000D02*
X4214048Y-1265524D01*
X4214048Y-1265524D02*
X4185476Y-1265524D01*
X4366429Y-1265524D02*
X4347381Y-1256000D01*
X4347381Y-1256000D02*
X4337858Y-1236952D01*
X4337858Y-1236952D02*
X4337858Y-1065524D01*
X4518810Y-1256000D02*
X4499762Y-1265524D01*
X4499762Y-1265524D02*
X4461667Y-1265524D01*
X4461667Y-1265524D02*
X4442619Y-1256000D01*
X4442619Y-1256000D02*
X4433096Y-1236952D01*
X4433096Y-1236952D02*
X4433096Y-1160762D01*
X4433096Y-1160762D02*
X4442619Y-1141714D01*
X4442619Y-1141714D02*
X4461667Y-1132190D01*
X4461667Y-1132190D02*
X4499762Y-1132190D01*
X4499762Y-1132190D02*
X4518810Y-1141714D01*
X4518810Y-1141714D02*
X4528334Y-1160762D01*
X4528334Y-1160762D02*
X4528334Y-1179810D01*
X4528334Y-1179810D02*
X4433096Y-1198857D01*
X4604524Y-1256000D02*
X4623572Y-1265524D01*
X4623572Y-1265524D02*
X4661667Y-1265524D01*
X4661667Y-1265524D02*
X4680715Y-1256000D01*
X4680715Y-1256000D02*
X4690239Y-1236952D01*
X4690239Y-1236952D02*
X4690239Y-1227429D01*
X4690239Y-1227429D02*
X4680715Y-1208381D01*
X4680715Y-1208381D02*
X4661667Y-1198857D01*
X4661667Y-1198857D02*
X4633096Y-1198857D01*
X4633096Y-1198857D02*
X4614048Y-1189333D01*
X4614048Y-1189333D02*
X4604524Y-1170286D01*
X4604524Y-1170286D02*
X4604524Y-1160762D01*
X4604524Y-1160762D02*
X4614048Y-1141714D01*
X4614048Y-1141714D02*
X4633096Y-1132190D01*
X4633096Y-1132190D02*
X4661667Y-1132190D01*
X4661667Y-1132190D02*
X4680715Y-1141714D01*
X4928334Y-1189333D02*
X5080715Y-1189333D01*
X5004524Y-1265524D02*
X5004524Y-1113143D01*
X5318810Y-1084571D02*
X5328334Y-1075048D01*
X5328334Y-1075048D02*
X5347381Y-1065524D01*
X5347381Y-1065524D02*
X5395001Y-1065524D01*
X5395001Y-1065524D02*
X5414048Y-1075048D01*
X5414048Y-1075048D02*
X5423572Y-1084571D01*
X5423572Y-1084571D02*
X5433096Y-1103619D01*
X5433096Y-1103619D02*
X5433096Y-1122667D01*
X5433096Y-1122667D02*
X5423572Y-1151238D01*
X5423572Y-1151238D02*
X5309286Y-1265524D01*
X5309286Y-1265524D02*
X5433096Y-1265524D01*
X5661667Y-1256000D02*
X5680715Y-1265524D01*
X5680715Y-1265524D02*
X5718810Y-1265524D01*
X5718810Y-1265524D02*
X5737858Y-1256000D01*
X5737858Y-1256000D02*
X5747381Y-1236952D01*
X5747381Y-1236952D02*
X5747381Y-1227429D01*
X5747381Y-1227429D02*
X5737858Y-1208381D01*
X5737858Y-1208381D02*
X5718810Y-1198857D01*
X5718810Y-1198857D02*
X5690239Y-1198857D01*
X5690239Y-1198857D02*
X5671191Y-1189333D01*
X5671191Y-1189333D02*
X5661667Y-1170286D01*
X5661667Y-1170286D02*
X5661667Y-1160762D01*
X5661667Y-1160762D02*
X5671191Y-1141714D01*
X5671191Y-1141714D02*
X5690239Y-1132190D01*
X5690239Y-1132190D02*
X5718810Y-1132190D01*
X5718810Y-1132190D02*
X5737858Y-1141714D01*
X5861667Y-1265524D02*
X5842620Y-1256000D01*
X5842620Y-1256000D02*
X5833096Y-1236952D01*
X5833096Y-1236952D02*
X5833096Y-1065524D01*
X5966429Y-1265524D02*
X5947381Y-1256000D01*
X5947381Y-1256000D02*
X5937858Y-1246476D01*
X5937858Y-1246476D02*
X5928334Y-1227429D01*
X5928334Y-1227429D02*
X5928334Y-1170286D01*
X5928334Y-1170286D02*
X5937858Y-1151238D01*
X5937858Y-1151238D02*
X5947381Y-1141714D01*
X5947381Y-1141714D02*
X5966429Y-1132190D01*
X5966429Y-1132190D02*
X5995001Y-1132190D01*
X5995001Y-1132190D02*
X6014048Y-1141714D01*
X6014048Y-1141714D02*
X6023572Y-1151238D01*
X6023572Y-1151238D02*
X6033096Y-1170286D01*
X6033096Y-1170286D02*
X6033096Y-1227429D01*
X6033096Y-1227429D02*
X6023572Y-1246476D01*
X6023572Y-1246476D02*
X6014048Y-1256000D01*
X6014048Y-1256000D02*
X5995001Y-1265524D01*
X5995001Y-1265524D02*
X5966429Y-1265524D01*
X6090239Y-1132190D02*
X6166429Y-1132190D01*
X6118810Y-1065524D02*
X6118810Y-1236952D01*
X6118810Y-1236952D02*
X6128334Y-1256000D01*
X6128334Y-1256000D02*
X6147381Y-1265524D01*
X6147381Y-1265524D02*
X6166429Y-1265524D01*
X6223572Y-1256000D02*
X6242620Y-1265524D01*
X6242620Y-1265524D02*
X6280715Y-1265524D01*
X6280715Y-1265524D02*
X6299762Y-1256000D01*
X6299762Y-1256000D02*
X6309286Y-1236952D01*
X6309286Y-1236952D02*
X6309286Y-1227429D01*
X6309286Y-1227429D02*
X6299762Y-1208381D01*
X6299762Y-1208381D02*
X6280715Y-1198857D01*
X6280715Y-1198857D02*
X6252143Y-1198857D01*
X6252143Y-1198857D02*
X6233096Y-1189333D01*
X6233096Y-1189333D02*
X6223572Y-1170286D01*
X6223572Y-1170286D02*
X6223572Y-1160762D01*
X6223572Y-1160762D02*
X6233096Y-1141714D01*
X6233096Y-1141714D02*
X6252143Y-1132190D01*
X6252143Y-1132190D02*
X6280715Y-1132190D01*
X6280715Y-1132190D02*
X6299762Y-1141714D01*
X6375953Y-1341714D02*
X6385477Y-1332190D01*
X6385477Y-1332190D02*
X6404524Y-1303619D01*
X6404524Y-1303619D02*
X6414048Y-1284571D01*
X6414048Y-1284571D02*
X6423572Y-1256000D01*
X6423572Y-1256000D02*
X6433096Y-1208381D01*
X6433096Y-1208381D02*
X6433096Y-1170286D01*
X6433096Y-1170286D02*
X6423572Y-1122667D01*
X6423572Y-1122667D02*
X6414048Y-1094095D01*
X6414048Y-1094095D02*
X6404524Y-1075048D01*
X6404524Y-1075048D02*
X6385477Y-1046476D01*
X6385477Y-1046476D02*
X6375953Y-1036952D01*
D15*
X-13054Y-1456446D02*
X-13054Y-1417554D01*
X-51946Y-1417554D01*
X-51946Y-1456446D01*
X-13054Y-1456446D01*
D11*
X280714Y-1329524D02*
X299762Y-1329524D01*
X299762Y-1329524D02*
X318810Y-1339048D01*
X318810Y-1339048D02*
X328333Y-1348571D01*
X328333Y-1348571D02*
X337857Y-1367619D01*
X337857Y-1367619D02*
X347381Y-1405714D01*
X347381Y-1405714D02*
X347381Y-1453333D01*
X347381Y-1453333D02*
X337857Y-1491428D01*
X337857Y-1491428D02*
X328333Y-1510476D01*
X328333Y-1510476D02*
X318810Y-1520000D01*
X318810Y-1520000D02*
X299762Y-1529524D01*
X299762Y-1529524D02*
X280714Y-1529524D01*
X280714Y-1529524D02*
X261667Y-1520000D01*
X261667Y-1520000D02*
X252143Y-1510476D01*
X252143Y-1510476D02*
X242619Y-1491428D01*
X242619Y-1491428D02*
X233095Y-1453333D01*
X233095Y-1453333D02*
X233095Y-1405714D01*
X233095Y-1405714D02*
X242619Y-1367619D01*
X242619Y-1367619D02*
X252143Y-1348571D01*
X252143Y-1348571D02*
X261667Y-1339048D01*
X261667Y-1339048D02*
X280714Y-1329524D01*
X433095Y-1510476D02*
X442619Y-1520000D01*
X442619Y-1520000D02*
X433095Y-1529524D01*
X433095Y-1529524D02*
X423571Y-1520000D01*
X423571Y-1520000D02*
X433095Y-1510476D01*
X433095Y-1510476D02*
X433095Y-1529524D01*
X623571Y-1329524D02*
X528333Y-1329524D01*
X528333Y-1329524D02*
X518809Y-1424762D01*
X518809Y-1424762D02*
X528333Y-1415238D01*
X528333Y-1415238D02*
X547381Y-1405714D01*
X547381Y-1405714D02*
X595000Y-1405714D01*
X595000Y-1405714D02*
X614048Y-1415238D01*
X614048Y-1415238D02*
X623571Y-1424762D01*
X623571Y-1424762D02*
X633095Y-1443809D01*
X633095Y-1443809D02*
X633095Y-1491428D01*
X633095Y-1491428D02*
X623571Y-1510476D01*
X623571Y-1510476D02*
X614048Y-1520000D01*
X614048Y-1520000D02*
X595000Y-1529524D01*
X595000Y-1529524D02*
X547381Y-1529524D01*
X547381Y-1529524D02*
X528333Y-1520000D01*
X528333Y-1520000D02*
X518809Y-1510476D01*
X814048Y-1329524D02*
X718809Y-1329524D01*
X718809Y-1329524D02*
X709286Y-1424762D01*
X709286Y-1424762D02*
X718809Y-1415238D01*
X718809Y-1415238D02*
X737857Y-1405714D01*
X737857Y-1405714D02*
X785476Y-1405714D01*
X785476Y-1405714D02*
X804524Y-1415238D01*
X804524Y-1415238D02*
X814048Y-1424762D01*
X814048Y-1424762D02*
X823571Y-1443809D01*
X823571Y-1443809D02*
X823571Y-1491428D01*
X823571Y-1491428D02*
X814048Y-1510476D01*
X814048Y-1510476D02*
X804524Y-1520000D01*
X804524Y-1520000D02*
X785476Y-1529524D01*
X785476Y-1529524D02*
X737857Y-1529524D01*
X737857Y-1529524D02*
X718809Y-1520000D01*
X718809Y-1520000D02*
X709286Y-1510476D01*
X947381Y-1329524D02*
X966429Y-1329524D01*
X966429Y-1329524D02*
X985476Y-1339048D01*
X985476Y-1339048D02*
X995000Y-1348571D01*
X995000Y-1348571D02*
X1004524Y-1367619D01*
X1004524Y-1367619D02*
X1014048Y-1405714D01*
X1014048Y-1405714D02*
X1014048Y-1453333D01*
X1014048Y-1453333D02*
X1004524Y-1491428D01*
X1004524Y-1491428D02*
X995000Y-1510476D01*
X995000Y-1510476D02*
X985476Y-1520000D01*
X985476Y-1520000D02*
X966429Y-1529524D01*
X966429Y-1529524D02*
X947381Y-1529524D01*
X947381Y-1529524D02*
X928333Y-1520000D01*
X928333Y-1520000D02*
X918809Y-1510476D01*
X918809Y-1510476D02*
X909286Y-1491428D01*
X909286Y-1491428D02*
X899762Y-1453333D01*
X899762Y-1453333D02*
X899762Y-1405714D01*
X899762Y-1405714D02*
X909286Y-1367619D01*
X909286Y-1367619D02*
X918809Y-1348571D01*
X918809Y-1348571D02*
X928333Y-1339048D01*
X928333Y-1339048D02*
X947381Y-1329524D01*
X1099762Y-1529524D02*
X1099762Y-1396190D01*
X1099762Y-1415238D02*
X1109286Y-1405714D01*
X1109286Y-1405714D02*
X1128333Y-1396190D01*
X1128333Y-1396190D02*
X1156905Y-1396190D01*
X1156905Y-1396190D02*
X1175952Y-1405714D01*
X1175952Y-1405714D02*
X1185476Y-1424762D01*
X1185476Y-1424762D02*
X1185476Y-1529524D01*
X1185476Y-1424762D02*
X1195000Y-1405714D01*
X1195000Y-1405714D02*
X1214048Y-1396190D01*
X1214048Y-1396190D02*
X1242619Y-1396190D01*
X1242619Y-1396190D02*
X1261667Y-1405714D01*
X1261667Y-1405714D02*
X1271191Y-1424762D01*
X1271191Y-1424762D02*
X1271191Y-1529524D01*
X1366429Y-1529524D02*
X1366429Y-1396190D01*
X1366429Y-1415238D02*
X1375952Y-1405714D01*
X1375952Y-1405714D02*
X1395000Y-1396190D01*
X1395000Y-1396190D02*
X1423571Y-1396190D01*
X1423571Y-1396190D02*
X1442619Y-1405714D01*
X1442619Y-1405714D02*
X1452143Y-1424762D01*
X1452143Y-1424762D02*
X1452143Y-1529524D01*
X1452143Y-1424762D02*
X1461667Y-1405714D01*
X1461667Y-1405714D02*
X1480714Y-1396190D01*
X1480714Y-1396190D02*
X1509286Y-1396190D01*
X1509286Y-1396190D02*
X1528333Y-1405714D01*
X1528333Y-1405714D02*
X1537857Y-1424762D01*
X1537857Y-1424762D02*
X1537857Y-1529524D01*
X1928333Y-1320000D02*
X1756905Y-1577143D01*
X2185476Y-1329524D02*
X2204524Y-1329524D01*
X2204524Y-1329524D02*
X2223572Y-1339048D01*
X2223572Y-1339048D02*
X2233095Y-1348571D01*
X2233095Y-1348571D02*
X2242619Y-1367619D01*
X2242619Y-1367619D02*
X2252143Y-1405714D01*
X2252143Y-1405714D02*
X2252143Y-1453333D01*
X2252143Y-1453333D02*
X2242619Y-1491428D01*
X2242619Y-1491428D02*
X2233095Y-1510476D01*
X2233095Y-1510476D02*
X2223572Y-1520000D01*
X2223572Y-1520000D02*
X2204524Y-1529524D01*
X2204524Y-1529524D02*
X2185476Y-1529524D01*
X2185476Y-1529524D02*
X2166429Y-1520000D01*
X2166429Y-1520000D02*
X2156905Y-1510476D01*
X2156905Y-1510476D02*
X2147381Y-1491428D01*
X2147381Y-1491428D02*
X2137857Y-1453333D01*
X2137857Y-1453333D02*
X2137857Y-1405714D01*
X2137857Y-1405714D02*
X2147381Y-1367619D01*
X2147381Y-1367619D02*
X2156905Y-1348571D01*
X2156905Y-1348571D02*
X2166429Y-1339048D01*
X2166429Y-1339048D02*
X2185476Y-1329524D01*
X2337857Y-1510476D02*
X2347381Y-1520000D01*
X2347381Y-1520000D02*
X2337857Y-1529524D01*
X2337857Y-1529524D02*
X2328334Y-1520000D01*
X2328334Y-1520000D02*
X2337857Y-1510476D01*
X2337857Y-1510476D02*
X2337857Y-1529524D01*
X2471191Y-1329524D02*
X2490238Y-1329524D01*
X2490238Y-1329524D02*
X2509286Y-1339048D01*
X2509286Y-1339048D02*
X2518810Y-1348571D01*
X2518810Y-1348571D02*
X2528334Y-1367619D01*
X2528334Y-1367619D02*
X2537857Y-1405714D01*
X2537857Y-1405714D02*
X2537857Y-1453333D01*
X2537857Y-1453333D02*
X2528334Y-1491428D01*
X2528334Y-1491428D02*
X2518810Y-1510476D01*
X2518810Y-1510476D02*
X2509286Y-1520000D01*
X2509286Y-1520000D02*
X2490238Y-1529524D01*
X2490238Y-1529524D02*
X2471191Y-1529524D01*
X2471191Y-1529524D02*
X2452143Y-1520000D01*
X2452143Y-1520000D02*
X2442619Y-1510476D01*
X2442619Y-1510476D02*
X2433095Y-1491428D01*
X2433095Y-1491428D02*
X2423572Y-1453333D01*
X2423572Y-1453333D02*
X2423572Y-1405714D01*
X2423572Y-1405714D02*
X2433095Y-1367619D01*
X2433095Y-1367619D02*
X2442619Y-1348571D01*
X2442619Y-1348571D02*
X2452143Y-1339048D01*
X2452143Y-1339048D02*
X2471191Y-1329524D01*
X2614048Y-1348571D02*
X2623572Y-1339048D01*
X2623572Y-1339048D02*
X2642619Y-1329524D01*
X2642619Y-1329524D02*
X2690238Y-1329524D01*
X2690238Y-1329524D02*
X2709286Y-1339048D01*
X2709286Y-1339048D02*
X2718810Y-1348571D01*
X2718810Y-1348571D02*
X2728334Y-1367619D01*
X2728334Y-1367619D02*
X2728334Y-1386667D01*
X2728334Y-1386667D02*
X2718810Y-1415238D01*
X2718810Y-1415238D02*
X2604524Y-1529524D01*
X2604524Y-1529524D02*
X2728334Y-1529524D01*
X2918810Y-1529524D02*
X2804524Y-1529524D01*
X2861667Y-1529524D02*
X2861667Y-1329524D01*
X2861667Y-1329524D02*
X2842619Y-1358095D01*
X2842619Y-1358095D02*
X2823572Y-1377143D01*
X2823572Y-1377143D02*
X2804524Y-1386667D01*
X2985476Y-1329524D02*
X3118810Y-1329524D01*
X3118810Y-1329524D02*
X3033095Y-1529524D01*
X3185476Y-1329524D02*
X3185476Y-1367619D01*
X3261667Y-1329524D02*
X3261667Y-1367619D01*
X3556905Y-1605714D02*
X3547381Y-1596190D01*
X3547381Y-1596190D02*
X3528334Y-1567619D01*
X3528334Y-1567619D02*
X3518810Y-1548571D01*
X3518810Y-1548571D02*
X3509286Y-1520000D01*
X3509286Y-1520000D02*
X3499762Y-1472381D01*
X3499762Y-1472381D02*
X3499762Y-1434286D01*
X3499762Y-1434286D02*
X3509286Y-1386667D01*
X3509286Y-1386667D02*
X3518810Y-1358095D01*
X3518810Y-1358095D02*
X3528334Y-1339048D01*
X3528334Y-1339048D02*
X3547381Y-1310476D01*
X3547381Y-1310476D02*
X3556905Y-1300952D01*
X3671191Y-1329524D02*
X3690238Y-1329524D01*
X3690238Y-1329524D02*
X3709286Y-1339048D01*
X3709286Y-1339048D02*
X3718810Y-1348571D01*
X3718810Y-1348571D02*
X3728334Y-1367619D01*
X3728334Y-1367619D02*
X3737857Y-1405714D01*
X3737857Y-1405714D02*
X3737857Y-1453333D01*
X3737857Y-1453333D02*
X3728334Y-1491428D01*
X3728334Y-1491428D02*
X3718810Y-1510476D01*
X3718810Y-1510476D02*
X3709286Y-1520000D01*
X3709286Y-1520000D02*
X3690238Y-1529524D01*
X3690238Y-1529524D02*
X3671191Y-1529524D01*
X3671191Y-1529524D02*
X3652143Y-1520000D01*
X3652143Y-1520000D02*
X3642619Y-1510476D01*
X3642619Y-1510476D02*
X3633095Y-1491428D01*
X3633095Y-1491428D02*
X3623572Y-1453333D01*
X3623572Y-1453333D02*
X3623572Y-1405714D01*
X3623572Y-1405714D02*
X3633095Y-1367619D01*
X3633095Y-1367619D02*
X3642619Y-1348571D01*
X3642619Y-1348571D02*
X3652143Y-1339048D01*
X3652143Y-1339048D02*
X3671191Y-1329524D01*
X3975953Y-1529524D02*
X3975953Y-1329524D01*
X4061667Y-1529524D02*
X4061667Y-1424762D01*
X4061667Y-1424762D02*
X4052143Y-1405714D01*
X4052143Y-1405714D02*
X4033096Y-1396190D01*
X4033096Y-1396190D02*
X4004524Y-1396190D01*
X4004524Y-1396190D02*
X3985476Y-1405714D01*
X3985476Y-1405714D02*
X3975953Y-1415238D01*
X4185476Y-1529524D02*
X4166429Y-1520000D01*
X4166429Y-1520000D02*
X4156905Y-1510476D01*
X4156905Y-1510476D02*
X4147381Y-1491428D01*
X4147381Y-1491428D02*
X4147381Y-1434286D01*
X4147381Y-1434286D02*
X4156905Y-1415238D01*
X4156905Y-1415238D02*
X4166429Y-1405714D01*
X4166429Y-1405714D02*
X4185476Y-1396190D01*
X4185476Y-1396190D02*
X4214048Y-1396190D01*
X4214048Y-1396190D02*
X4233096Y-1405714D01*
X4233096Y-1405714D02*
X4242619Y-1415238D01*
X4242619Y-1415238D02*
X4252143Y-1434286D01*
X4252143Y-1434286D02*
X4252143Y-1491428D01*
X4252143Y-1491428D02*
X4242619Y-1510476D01*
X4242619Y-1510476D02*
X4233096Y-1520000D01*
X4233096Y-1520000D02*
X4214048Y-1529524D01*
X4214048Y-1529524D02*
X4185476Y-1529524D01*
X4366429Y-1529524D02*
X4347381Y-1520000D01*
X4347381Y-1520000D02*
X4337858Y-1500952D01*
X4337858Y-1500952D02*
X4337858Y-1329524D01*
X4518810Y-1520000D02*
X4499762Y-1529524D01*
X4499762Y-1529524D02*
X4461667Y-1529524D01*
X4461667Y-1529524D02*
X4442619Y-1520000D01*
X4442619Y-1520000D02*
X4433096Y-1500952D01*
X4433096Y-1500952D02*
X4433096Y-1424762D01*
X4433096Y-1424762D02*
X4442619Y-1405714D01*
X4442619Y-1405714D02*
X4461667Y-1396190D01*
X4461667Y-1396190D02*
X4499762Y-1396190D01*
X4499762Y-1396190D02*
X4518810Y-1405714D01*
X4518810Y-1405714D02*
X4528334Y-1424762D01*
X4528334Y-1424762D02*
X4528334Y-1443809D01*
X4528334Y-1443809D02*
X4433096Y-1462857D01*
X4604524Y-1520000D02*
X4623572Y-1529524D01*
X4623572Y-1529524D02*
X4661667Y-1529524D01*
X4661667Y-1529524D02*
X4680715Y-1520000D01*
X4680715Y-1520000D02*
X4690239Y-1500952D01*
X4690239Y-1500952D02*
X4690239Y-1491428D01*
X4690239Y-1491428D02*
X4680715Y-1472381D01*
X4680715Y-1472381D02*
X4661667Y-1462857D01*
X4661667Y-1462857D02*
X4633096Y-1462857D01*
X4633096Y-1462857D02*
X4614048Y-1453333D01*
X4614048Y-1453333D02*
X4604524Y-1434286D01*
X4604524Y-1434286D02*
X4604524Y-1424762D01*
X4604524Y-1424762D02*
X4614048Y-1405714D01*
X4614048Y-1405714D02*
X4633096Y-1396190D01*
X4633096Y-1396190D02*
X4661667Y-1396190D01*
X4661667Y-1396190D02*
X4680715Y-1405714D01*
X4928334Y-1453333D02*
X5080715Y-1453333D01*
X5004524Y-1529524D02*
X5004524Y-1377143D01*
X5318810Y-1348571D02*
X5328334Y-1339048D01*
X5328334Y-1339048D02*
X5347381Y-1329524D01*
X5347381Y-1329524D02*
X5395001Y-1329524D01*
X5395001Y-1329524D02*
X5414048Y-1339048D01*
X5414048Y-1339048D02*
X5423572Y-1348571D01*
X5423572Y-1348571D02*
X5433096Y-1367619D01*
X5433096Y-1367619D02*
X5433096Y-1386667D01*
X5433096Y-1386667D02*
X5423572Y-1415238D01*
X5423572Y-1415238D02*
X5309286Y-1529524D01*
X5309286Y-1529524D02*
X5433096Y-1529524D01*
X5661667Y-1520000D02*
X5680715Y-1529524D01*
X5680715Y-1529524D02*
X5718810Y-1529524D01*
X5718810Y-1529524D02*
X5737858Y-1520000D01*
X5737858Y-1520000D02*
X5747381Y-1500952D01*
X5747381Y-1500952D02*
X5747381Y-1491428D01*
X5747381Y-1491428D02*
X5737858Y-1472381D01*
X5737858Y-1472381D02*
X5718810Y-1462857D01*
X5718810Y-1462857D02*
X5690239Y-1462857D01*
X5690239Y-1462857D02*
X5671191Y-1453333D01*
X5671191Y-1453333D02*
X5661667Y-1434286D01*
X5661667Y-1434286D02*
X5661667Y-1424762D01*
X5661667Y-1424762D02*
X5671191Y-1405714D01*
X5671191Y-1405714D02*
X5690239Y-1396190D01*
X5690239Y-1396190D02*
X5718810Y-1396190D01*
X5718810Y-1396190D02*
X5737858Y-1405714D01*
X5861667Y-1529524D02*
X5842620Y-1520000D01*
X5842620Y-1520000D02*
X5833096Y-1500952D01*
X5833096Y-1500952D02*
X5833096Y-1329524D01*
X5966429Y-1529524D02*
X5947381Y-1520000D01*
X5947381Y-1520000D02*
X5937858Y-1510476D01*
X5937858Y-1510476D02*
X5928334Y-1491428D01*
X5928334Y-1491428D02*
X5928334Y-1434286D01*
X5928334Y-1434286D02*
X5937858Y-1415238D01*
X5937858Y-1415238D02*
X5947381Y-1405714D01*
X5947381Y-1405714D02*
X5966429Y-1396190D01*
X5966429Y-1396190D02*
X5995001Y-1396190D01*
X5995001Y-1396190D02*
X6014048Y-1405714D01*
X6014048Y-1405714D02*
X6023572Y-1415238D01*
X6023572Y-1415238D02*
X6033096Y-1434286D01*
X6033096Y-1434286D02*
X6033096Y-1491428D01*
X6033096Y-1491428D02*
X6023572Y-1510476D01*
X6023572Y-1510476D02*
X6014048Y-1520000D01*
X6014048Y-1520000D02*
X5995001Y-1529524D01*
X5995001Y-1529524D02*
X5966429Y-1529524D01*
X6090239Y-1396190D02*
X6166429Y-1396190D01*
X6118810Y-1329524D02*
X6118810Y-1500952D01*
X6118810Y-1500952D02*
X6128334Y-1520000D01*
X6128334Y-1520000D02*
X6147381Y-1529524D01*
X6147381Y-1529524D02*
X6166429Y-1529524D01*
X6223572Y-1520000D02*
X6242620Y-1529524D01*
X6242620Y-1529524D02*
X6280715Y-1529524D01*
X6280715Y-1529524D02*
X6299762Y-1520000D01*
X6299762Y-1520000D02*
X6309286Y-1500952D01*
X6309286Y-1500952D02*
X6309286Y-1491428D01*
X6309286Y-1491428D02*
X6299762Y-1472381D01*
X6299762Y-1472381D02*
X6280715Y-1462857D01*
X6280715Y-1462857D02*
X6252143Y-1462857D01*
X6252143Y-1462857D02*
X6233096Y-1453333D01*
X6233096Y-1453333D02*
X6223572Y-1434286D01*
X6223572Y-1434286D02*
X6223572Y-1424762D01*
X6223572Y-1424762D02*
X6233096Y-1405714D01*
X6233096Y-1405714D02*
X6252143Y-1396190D01*
X6252143Y-1396190D02*
X6280715Y-1396190D01*
X6280715Y-1396190D02*
X6299762Y-1405714D01*
X6375953Y-1605714D02*
X6385477Y-1596190D01*
X6385477Y-1596190D02*
X6404524Y-1567619D01*
X6404524Y-1567619D02*
X6414048Y-1548571D01*
X6414048Y-1548571D02*
X6423572Y-1520000D01*
X6423572Y-1520000D02*
X6433096Y-1472381D01*
X6433096Y-1472381D02*
X6433096Y-1434286D01*
X6433096Y-1434286D02*
X6423572Y-1386667D01*
X6423572Y-1386667D02*
X6414048Y-1358095D01*
X6414048Y-1358095D02*
X6404524Y-1339048D01*
X6404524Y-1339048D02*
X6385477Y-1310476D01*
X6385477Y-1310476D02*
X6375953Y-1300952D01*
D10*
X-55000Y-1751000D02*
X-5000Y-1701000D01*
X-55000Y-1651000D01*
X-105000Y-1701000D01*
X-55000Y-1751000D01*
D11*
X347381Y-1793524D02*
X233095Y-1793524D01*
X290238Y-1793524D02*
X290238Y-1593524D01*
X290238Y-1593524D02*
X271190Y-1622095D01*
X271190Y-1622095D02*
X252143Y-1641143D01*
X252143Y-1641143D02*
X233095Y-1650667D01*
X433095Y-1774476D02*
X442619Y-1784000D01*
X442619Y-1784000D02*
X433095Y-1793524D01*
X433095Y-1793524D02*
X423571Y-1784000D01*
X423571Y-1784000D02*
X433095Y-1774476D01*
X433095Y-1774476D02*
X433095Y-1793524D01*
X566429Y-1593524D02*
X585476Y-1593524D01*
X585476Y-1593524D02*
X604524Y-1603048D01*
X604524Y-1603048D02*
X614048Y-1612571D01*
X614048Y-1612571D02*
X623571Y-1631619D01*
X623571Y-1631619D02*
X633095Y-1669714D01*
X633095Y-1669714D02*
X633095Y-1717333D01*
X633095Y-1717333D02*
X623571Y-1755428D01*
X623571Y-1755428D02*
X614048Y-1774476D01*
X614048Y-1774476D02*
X604524Y-1784000D01*
X604524Y-1784000D02*
X585476Y-1793524D01*
X585476Y-1793524D02*
X566429Y-1793524D01*
X566429Y-1793524D02*
X547381Y-1784000D01*
X547381Y-1784000D02*
X537857Y-1774476D01*
X537857Y-1774476D02*
X528333Y-1755428D01*
X528333Y-1755428D02*
X518809Y-1717333D01*
X518809Y-1717333D02*
X518809Y-1669714D01*
X518809Y-1669714D02*
X528333Y-1631619D01*
X528333Y-1631619D02*
X537857Y-1612571D01*
X537857Y-1612571D02*
X547381Y-1603048D01*
X547381Y-1603048D02*
X566429Y-1593524D01*
X756905Y-1593524D02*
X775952Y-1593524D01*
X775952Y-1593524D02*
X795000Y-1603048D01*
X795000Y-1603048D02*
X804524Y-1612571D01*
X804524Y-1612571D02*
X814048Y-1631619D01*
X814048Y-1631619D02*
X823571Y-1669714D01*
X823571Y-1669714D02*
X823571Y-1717333D01*
X823571Y-1717333D02*
X814048Y-1755428D01*
X814048Y-1755428D02*
X804524Y-1774476D01*
X804524Y-1774476D02*
X795000Y-1784000D01*
X795000Y-1784000D02*
X775952Y-1793524D01*
X775952Y-1793524D02*
X756905Y-1793524D01*
X756905Y-1793524D02*
X737857Y-1784000D01*
X737857Y-1784000D02*
X728333Y-1774476D01*
X728333Y-1774476D02*
X718809Y-1755428D01*
X718809Y-1755428D02*
X709286Y-1717333D01*
X709286Y-1717333D02*
X709286Y-1669714D01*
X709286Y-1669714D02*
X718809Y-1631619D01*
X718809Y-1631619D02*
X728333Y-1612571D01*
X728333Y-1612571D02*
X737857Y-1603048D01*
X737857Y-1603048D02*
X756905Y-1593524D01*
X947381Y-1593524D02*
X966429Y-1593524D01*
X966429Y-1593524D02*
X985476Y-1603048D01*
X985476Y-1603048D02*
X995000Y-1612571D01*
X995000Y-1612571D02*
X1004524Y-1631619D01*
X1004524Y-1631619D02*
X1014048Y-1669714D01*
X1014048Y-1669714D02*
X1014048Y-1717333D01*
X1014048Y-1717333D02*
X1004524Y-1755428D01*
X1004524Y-1755428D02*
X995000Y-1774476D01*
X995000Y-1774476D02*
X985476Y-1784000D01*
X985476Y-1784000D02*
X966429Y-1793524D01*
X966429Y-1793524D02*
X947381Y-1793524D01*
X947381Y-1793524D02*
X928333Y-1784000D01*
X928333Y-1784000D02*
X918809Y-1774476D01*
X918809Y-1774476D02*
X909286Y-1755428D01*
X909286Y-1755428D02*
X899762Y-1717333D01*
X899762Y-1717333D02*
X899762Y-1669714D01*
X899762Y-1669714D02*
X909286Y-1631619D01*
X909286Y-1631619D02*
X918809Y-1612571D01*
X918809Y-1612571D02*
X928333Y-1603048D01*
X928333Y-1603048D02*
X947381Y-1593524D01*
X1099762Y-1793524D02*
X1099762Y-1660190D01*
X1099762Y-1679238D02*
X1109286Y-1669714D01*
X1109286Y-1669714D02*
X1128333Y-1660190D01*
X1128333Y-1660190D02*
X1156905Y-1660190D01*
X1156905Y-1660190D02*
X1175952Y-1669714D01*
X1175952Y-1669714D02*
X1185476Y-1688762D01*
X1185476Y-1688762D02*
X1185476Y-1793524D01*
X1185476Y-1688762D02*
X1195000Y-1669714D01*
X1195000Y-1669714D02*
X1214048Y-1660190D01*
X1214048Y-1660190D02*
X1242619Y-1660190D01*
X1242619Y-1660190D02*
X1261667Y-1669714D01*
X1261667Y-1669714D02*
X1271191Y-1688762D01*
X1271191Y-1688762D02*
X1271191Y-1793524D01*
X1366429Y-1793524D02*
X1366429Y-1660190D01*
X1366429Y-1679238D02*
X1375952Y-1669714D01*
X1375952Y-1669714D02*
X1395000Y-1660190D01*
X1395000Y-1660190D02*
X1423571Y-1660190D01*
X1423571Y-1660190D02*
X1442619Y-1669714D01*
X1442619Y-1669714D02*
X1452143Y-1688762D01*
X1452143Y-1688762D02*
X1452143Y-1793524D01*
X1452143Y-1688762D02*
X1461667Y-1669714D01*
X1461667Y-1669714D02*
X1480714Y-1660190D01*
X1480714Y-1660190D02*
X1509286Y-1660190D01*
X1509286Y-1660190D02*
X1528333Y-1669714D01*
X1528333Y-1669714D02*
X1537857Y-1688762D01*
X1537857Y-1688762D02*
X1537857Y-1793524D01*
X1928333Y-1584000D02*
X1756905Y-1841143D01*
X2185476Y-1593524D02*
X2204524Y-1593524D01*
X2204524Y-1593524D02*
X2223572Y-1603048D01*
X2223572Y-1603048D02*
X2233095Y-1612571D01*
X2233095Y-1612571D02*
X2242619Y-1631619D01*
X2242619Y-1631619D02*
X2252143Y-1669714D01*
X2252143Y-1669714D02*
X2252143Y-1717333D01*
X2252143Y-1717333D02*
X2242619Y-1755428D01*
X2242619Y-1755428D02*
X2233095Y-1774476D01*
X2233095Y-1774476D02*
X2223572Y-1784000D01*
X2223572Y-1784000D02*
X2204524Y-1793524D01*
X2204524Y-1793524D02*
X2185476Y-1793524D01*
X2185476Y-1793524D02*
X2166429Y-1784000D01*
X2166429Y-1784000D02*
X2156905Y-1774476D01*
X2156905Y-1774476D02*
X2147381Y-1755428D01*
X2147381Y-1755428D02*
X2137857Y-1717333D01*
X2137857Y-1717333D02*
X2137857Y-1669714D01*
X2137857Y-1669714D02*
X2147381Y-1631619D01*
X2147381Y-1631619D02*
X2156905Y-1612571D01*
X2156905Y-1612571D02*
X2166429Y-1603048D01*
X2166429Y-1603048D02*
X2185476Y-1593524D01*
X2337857Y-1774476D02*
X2347381Y-1784000D01*
X2347381Y-1784000D02*
X2337857Y-1793524D01*
X2337857Y-1793524D02*
X2328334Y-1784000D01*
X2328334Y-1784000D02*
X2337857Y-1774476D01*
X2337857Y-1774476D02*
X2337857Y-1793524D01*
X2471191Y-1593524D02*
X2490238Y-1593524D01*
X2490238Y-1593524D02*
X2509286Y-1603048D01*
X2509286Y-1603048D02*
X2518810Y-1612571D01*
X2518810Y-1612571D02*
X2528334Y-1631619D01*
X2528334Y-1631619D02*
X2537857Y-1669714D01*
X2537857Y-1669714D02*
X2537857Y-1717333D01*
X2537857Y-1717333D02*
X2528334Y-1755428D01*
X2528334Y-1755428D02*
X2518810Y-1774476D01*
X2518810Y-1774476D02*
X2509286Y-1784000D01*
X2509286Y-1784000D02*
X2490238Y-1793524D01*
X2490238Y-1793524D02*
X2471191Y-1793524D01*
X2471191Y-1793524D02*
X2452143Y-1784000D01*
X2452143Y-1784000D02*
X2442619Y-1774476D01*
X2442619Y-1774476D02*
X2433095Y-1755428D01*
X2433095Y-1755428D02*
X2423572Y-1717333D01*
X2423572Y-1717333D02*
X2423572Y-1669714D01*
X2423572Y-1669714D02*
X2433095Y-1631619D01*
X2433095Y-1631619D02*
X2442619Y-1612571D01*
X2442619Y-1612571D02*
X2452143Y-1603048D01*
X2452143Y-1603048D02*
X2471191Y-1593524D01*
X2604524Y-1593524D02*
X2728334Y-1593524D01*
X2728334Y-1593524D02*
X2661667Y-1669714D01*
X2661667Y-1669714D02*
X2690238Y-1669714D01*
X2690238Y-1669714D02*
X2709286Y-1679238D01*
X2709286Y-1679238D02*
X2718810Y-1688762D01*
X2718810Y-1688762D02*
X2728334Y-1707809D01*
X2728334Y-1707809D02*
X2728334Y-1755428D01*
X2728334Y-1755428D02*
X2718810Y-1774476D01*
X2718810Y-1774476D02*
X2709286Y-1784000D01*
X2709286Y-1784000D02*
X2690238Y-1793524D01*
X2690238Y-1793524D02*
X2633095Y-1793524D01*
X2633095Y-1793524D02*
X2614048Y-1784000D01*
X2614048Y-1784000D02*
X2604524Y-1774476D01*
X2823572Y-1793524D02*
X2861667Y-1793524D01*
X2861667Y-1793524D02*
X2880714Y-1784000D01*
X2880714Y-1784000D02*
X2890238Y-1774476D01*
X2890238Y-1774476D02*
X2909286Y-1745905D01*
X2909286Y-1745905D02*
X2918810Y-1707809D01*
X2918810Y-1707809D02*
X2918810Y-1631619D01*
X2918810Y-1631619D02*
X2909286Y-1612571D01*
X2909286Y-1612571D02*
X2899762Y-1603048D01*
X2899762Y-1603048D02*
X2880714Y-1593524D01*
X2880714Y-1593524D02*
X2842619Y-1593524D01*
X2842619Y-1593524D02*
X2823572Y-1603048D01*
X2823572Y-1603048D02*
X2814048Y-1612571D01*
X2814048Y-1612571D02*
X2804524Y-1631619D01*
X2804524Y-1631619D02*
X2804524Y-1679238D01*
X2804524Y-1679238D02*
X2814048Y-1698286D01*
X2814048Y-1698286D02*
X2823572Y-1707809D01*
X2823572Y-1707809D02*
X2842619Y-1717333D01*
X2842619Y-1717333D02*
X2880714Y-1717333D01*
X2880714Y-1717333D02*
X2899762Y-1707809D01*
X2899762Y-1707809D02*
X2909286Y-1698286D01*
X2909286Y-1698286D02*
X2918810Y-1679238D01*
X3090238Y-1660190D02*
X3090238Y-1793524D01*
X3042619Y-1584000D02*
X2995000Y-1726857D01*
X2995000Y-1726857D02*
X3118810Y-1726857D01*
X3185476Y-1593524D02*
X3185476Y-1631619D01*
X3261667Y-1593524D02*
X3261667Y-1631619D01*
X3556905Y-1869714D02*
X3547381Y-1860190D01*
X3547381Y-1860190D02*
X3528334Y-1831619D01*
X3528334Y-1831619D02*
X3518810Y-1812571D01*
X3518810Y-1812571D02*
X3509286Y-1784000D01*
X3509286Y-1784000D02*
X3499762Y-1736381D01*
X3499762Y-1736381D02*
X3499762Y-1698286D01*
X3499762Y-1698286D02*
X3509286Y-1650667D01*
X3509286Y-1650667D02*
X3518810Y-1622095D01*
X3518810Y-1622095D02*
X3528334Y-1603048D01*
X3528334Y-1603048D02*
X3547381Y-1574476D01*
X3547381Y-1574476D02*
X3556905Y-1564952D01*
X3737857Y-1793524D02*
X3623572Y-1793524D01*
X3680714Y-1793524D02*
X3680714Y-1593524D01*
X3680714Y-1593524D02*
X3661667Y-1622095D01*
X3661667Y-1622095D02*
X3642619Y-1641143D01*
X3642619Y-1641143D02*
X3623572Y-1650667D01*
X3909286Y-1660190D02*
X3909286Y-1793524D01*
X3861667Y-1584000D02*
X3814048Y-1726857D01*
X3814048Y-1726857D02*
X3937857Y-1726857D01*
X4166429Y-1793524D02*
X4166429Y-1593524D01*
X4252143Y-1793524D02*
X4252143Y-1688762D01*
X4252143Y-1688762D02*
X4242619Y-1669714D01*
X4242619Y-1669714D02*
X4223572Y-1660190D01*
X4223572Y-1660190D02*
X4195000Y-1660190D01*
X4195000Y-1660190D02*
X4175953Y-1669714D01*
X4175953Y-1669714D02*
X4166429Y-1679238D01*
X4375953Y-1793524D02*
X4356905Y-1784000D01*
X4356905Y-1784000D02*
X4347381Y-1774476D01*
X4347381Y-1774476D02*
X4337858Y-1755428D01*
X4337858Y-1755428D02*
X4337858Y-1698286D01*
X4337858Y-1698286D02*
X4347381Y-1679238D01*
X4347381Y-1679238D02*
X4356905Y-1669714D01*
X4356905Y-1669714D02*
X4375953Y-1660190D01*
X4375953Y-1660190D02*
X4404524Y-1660190D01*
X4404524Y-1660190D02*
X4423572Y-1669714D01*
X4423572Y-1669714D02*
X4433096Y-1679238D01*
X4433096Y-1679238D02*
X4442619Y-1698286D01*
X4442619Y-1698286D02*
X4442619Y-1755428D01*
X4442619Y-1755428D02*
X4433096Y-1774476D01*
X4433096Y-1774476D02*
X4423572Y-1784000D01*
X4423572Y-1784000D02*
X4404524Y-1793524D01*
X4404524Y-1793524D02*
X4375953Y-1793524D01*
X4556905Y-1793524D02*
X4537858Y-1784000D01*
X4537858Y-1784000D02*
X4528334Y-1764952D01*
X4528334Y-1764952D02*
X4528334Y-1593524D01*
X4709286Y-1784000D02*
X4690239Y-1793524D01*
X4690239Y-1793524D02*
X4652143Y-1793524D01*
X4652143Y-1793524D02*
X4633096Y-1784000D01*
X4633096Y-1784000D02*
X4623572Y-1764952D01*
X4623572Y-1764952D02*
X4623572Y-1688762D01*
X4623572Y-1688762D02*
X4633096Y-1669714D01*
X4633096Y-1669714D02*
X4652143Y-1660190D01*
X4652143Y-1660190D02*
X4690239Y-1660190D01*
X4690239Y-1660190D02*
X4709286Y-1669714D01*
X4709286Y-1669714D02*
X4718810Y-1688762D01*
X4718810Y-1688762D02*
X4718810Y-1707809D01*
X4718810Y-1707809D02*
X4623572Y-1726857D01*
X4795000Y-1784000D02*
X4814048Y-1793524D01*
X4814048Y-1793524D02*
X4852143Y-1793524D01*
X4852143Y-1793524D02*
X4871191Y-1784000D01*
X4871191Y-1784000D02*
X4880715Y-1764952D01*
X4880715Y-1764952D02*
X4880715Y-1755428D01*
X4880715Y-1755428D02*
X4871191Y-1736381D01*
X4871191Y-1736381D02*
X4852143Y-1726857D01*
X4852143Y-1726857D02*
X4823572Y-1726857D01*
X4823572Y-1726857D02*
X4804524Y-1717333D01*
X4804524Y-1717333D02*
X4795000Y-1698286D01*
X4795000Y-1698286D02*
X4795000Y-1688762D01*
X4795000Y-1688762D02*
X4804524Y-1669714D01*
X4804524Y-1669714D02*
X4823572Y-1660190D01*
X4823572Y-1660190D02*
X4852143Y-1660190D01*
X4852143Y-1660190D02*
X4871191Y-1669714D01*
X4947381Y-1869714D02*
X4956905Y-1860190D01*
X4956905Y-1860190D02*
X4975953Y-1831619D01*
X4975953Y-1831619D02*
X4985477Y-1812571D01*
X4985477Y-1812571D02*
X4995000Y-1784000D01*
X4995000Y-1784000D02*
X5004524Y-1736381D01*
X5004524Y-1736381D02*
X5004524Y-1698286D01*
X5004524Y-1698286D02*
X4995000Y-1650667D01*
X4995000Y-1650667D02*
X4985477Y-1622095D01*
X4985477Y-1622095D02*
X4975953Y-1603048D01*
X4975953Y-1603048D02*
X4956905Y-1574476D01*
X4956905Y-1574476D02*
X4947381Y-1564952D01*
M02*
