G04 #@! TF.GenerationSoftware,KiCad,Pcbnew,7.0.1-0*
G04 #@! TF.CreationDate,2023-03-28T15:50:41-07:00*
G04 #@! TF.ProjectId,Kit-Brainboard,4b69742d-4272-4616-996e-626f6172642e,rev?*
G04 #@! TF.SameCoordinates,Original*
G04 #@! TF.FileFunction,Legend,Top*
G04 #@! TF.FilePolarity,Positive*
%FSLAX46Y46*%
G04 Gerber Fmt 4.6, Leading zero omitted, Abs format (unit mm)*
G04 Created by KiCad (PCBNEW 7.0.1-0) date 2023-03-28 15:50:41*
%MOMM*%
%LPD*%
G01*
G04 APERTURE LIST*
G04 Aperture macros list*
%AMRoundRect*
0 Rectangle with rounded corners*
0 $1 Rounding radius*
0 $2 $3 $4 $5 $6 $7 $8 $9 X,Y pos of 4 corners*
0 Add a 4 corners polygon primitive as box body*
4,1,4,$2,$3,$4,$5,$6,$7,$8,$9,$2,$3,0*
0 Add four circle primitives for the rounded corners*
1,1,$1+$1,$2,$3*
1,1,$1+$1,$4,$5*
1,1,$1+$1,$6,$7*
1,1,$1+$1,$8,$9*
0 Add four rect primitives between the rounded corners*
20,1,$1+$1,$2,$3,$4,$5,0*
20,1,$1+$1,$4,$5,$6,$7,0*
20,1,$1+$1,$6,$7,$8,$9,0*
20,1,$1+$1,$8,$9,$2,$3,0*%
G04 Aperture macros list end*
%ADD10C,0.150000*%
%ADD11C,0.149860*%
%ADD12C,0.120000*%
%ADD13C,0.100000*%
%ADD14C,0.200000*%
%ADD15R,0.600000X2.000000*%
%ADD16O,1.550000X0.890000*%
%ADD17O,0.950000X1.250000*%
%ADD18R,1.700000X1.700000*%
%ADD19O,1.700000X1.700000*%
%ADD20R,0.800100X0.800100*%
%ADD21RoundRect,0.147500X0.172500X-0.147500X0.172500X0.147500X-0.172500X0.147500X-0.172500X-0.147500X0*%
%ADD22RoundRect,0.147500X-0.147500X-0.172500X0.147500X-0.172500X0.147500X0.172500X-0.147500X0.172500X0*%
%ADD23R,3.150000X1.000000*%
%ADD24RoundRect,0.147500X-0.172500X0.147500X-0.172500X-0.147500X0.172500X-0.147500X0.172500X0.147500X0*%
%ADD25R,0.160000X0.500000*%
%ADD26R,0.500000X0.500000*%
%ADD27R,1.000000X1.000000*%
%ADD28C,0.230000*%
%ADD29RoundRect,0.050000X0.400000X0.350000X-0.400000X0.350000X-0.400000X-0.350000X0.400000X-0.350000X0*%
%ADD30R,1.000000X3.150000*%
%ADD31C,0.500000*%
%ADD32RoundRect,0.147500X0.147500X0.172500X-0.147500X0.172500X-0.147500X-0.172500X0.147500X-0.172500X0*%
%ADD33RoundRect,0.100000X0.637500X0.100000X-0.637500X0.100000X-0.637500X-0.100000X0.637500X-0.100000X0*%
%ADD34R,2.400000X0.740000*%
%ADD35R,0.500000X0.160000*%
G04 APERTURE END LIST*
D10*
G04 #@! TO.C,U5*
X217422619Y-86071904D02*
X218232142Y-86071904D01*
X218232142Y-86071904D02*
X218327380Y-86024285D01*
X218327380Y-86024285D02*
X218375000Y-85976666D01*
X218375000Y-85976666D02*
X218422619Y-85881428D01*
X218422619Y-85881428D02*
X218422619Y-85690952D01*
X218422619Y-85690952D02*
X218375000Y-85595714D01*
X218375000Y-85595714D02*
X218327380Y-85548095D01*
X218327380Y-85548095D02*
X218232142Y-85500476D01*
X218232142Y-85500476D02*
X217422619Y-85500476D01*
X217422619Y-84548095D02*
X217422619Y-85024285D01*
X217422619Y-85024285D02*
X217898809Y-85071904D01*
X217898809Y-85071904D02*
X217851190Y-85024285D01*
X217851190Y-85024285D02*
X217803571Y-84929047D01*
X217803571Y-84929047D02*
X217803571Y-84690952D01*
X217803571Y-84690952D02*
X217851190Y-84595714D01*
X217851190Y-84595714D02*
X217898809Y-84548095D01*
X217898809Y-84548095D02*
X217994047Y-84500476D01*
X217994047Y-84500476D02*
X218232142Y-84500476D01*
X218232142Y-84500476D02*
X218327380Y-84548095D01*
X218327380Y-84548095D02*
X218375000Y-84595714D01*
X218375000Y-84595714D02*
X218422619Y-84690952D01*
X218422619Y-84690952D02*
X218422619Y-84929047D01*
X218422619Y-84929047D02*
X218375000Y-85024285D01*
X218375000Y-85024285D02*
X218327380Y-85071904D01*
G04 #@! TO.C,AN1*
X230576905Y-80876904D02*
X231053095Y-80876904D01*
X230481667Y-81162619D02*
X230815000Y-80162619D01*
X230815000Y-80162619D02*
X231148333Y-81162619D01*
X231481667Y-81162619D02*
X231481667Y-80162619D01*
X231481667Y-80162619D02*
X232053095Y-81162619D01*
X232053095Y-81162619D02*
X232053095Y-80162619D01*
X233053095Y-81162619D02*
X232481667Y-81162619D01*
X232767381Y-81162619D02*
X232767381Y-80162619D01*
X232767381Y-80162619D02*
X232672143Y-80305476D01*
X232672143Y-80305476D02*
X232576905Y-80400714D01*
X232576905Y-80400714D02*
X232481667Y-80448333D01*
G04 #@! TO.C,J1*
X187561666Y-98932619D02*
X187561666Y-99646904D01*
X187561666Y-99646904D02*
X187514047Y-99789761D01*
X187514047Y-99789761D02*
X187418809Y-99885000D01*
X187418809Y-99885000D02*
X187275952Y-99932619D01*
X187275952Y-99932619D02*
X187180714Y-99932619D01*
X188561666Y-99932619D02*
X187990238Y-99932619D01*
X188275952Y-99932619D02*
X188275952Y-98932619D01*
X188275952Y-98932619D02*
X188180714Y-99075476D01*
X188180714Y-99075476D02*
X188085476Y-99170714D01*
X188085476Y-99170714D02*
X187990238Y-99218333D01*
D11*
G04 #@! TO.C,D19*
X205120423Y-104180813D02*
X205120423Y-103530573D01*
X205120423Y-103530573D02*
X205275242Y-103530573D01*
X205275242Y-103530573D02*
X205368133Y-103561537D01*
X205368133Y-103561537D02*
X205430061Y-103623465D01*
X205430061Y-103623465D02*
X205461024Y-103685392D01*
X205461024Y-103685392D02*
X205491988Y-103809248D01*
X205491988Y-103809248D02*
X205491988Y-103902139D01*
X205491988Y-103902139D02*
X205461024Y-104025994D01*
X205461024Y-104025994D02*
X205430061Y-104087922D01*
X205430061Y-104087922D02*
X205368133Y-104149850D01*
X205368133Y-104149850D02*
X205275242Y-104180813D01*
X205275242Y-104180813D02*
X205120423Y-104180813D01*
X206111264Y-104180813D02*
X205739699Y-104180813D01*
X205925482Y-104180813D02*
X205925482Y-103530573D01*
X205925482Y-103530573D02*
X205863554Y-103623465D01*
X205863554Y-103623465D02*
X205801626Y-103685392D01*
X205801626Y-103685392D02*
X205739699Y-103716356D01*
X206420902Y-104180813D02*
X206544758Y-104180813D01*
X206544758Y-104180813D02*
X206606685Y-104149850D01*
X206606685Y-104149850D02*
X206637649Y-104118886D01*
X206637649Y-104118886D02*
X206699577Y-104025994D01*
X206699577Y-104025994D02*
X206730540Y-103902139D01*
X206730540Y-103902139D02*
X206730540Y-103654429D01*
X206730540Y-103654429D02*
X206699577Y-103592501D01*
X206699577Y-103592501D02*
X206668613Y-103561537D01*
X206668613Y-103561537D02*
X206606685Y-103530573D01*
X206606685Y-103530573D02*
X206482830Y-103530573D01*
X206482830Y-103530573D02*
X206420902Y-103561537D01*
X206420902Y-103561537D02*
X206389939Y-103592501D01*
X206389939Y-103592501D02*
X206358975Y-103654429D01*
X206358975Y-103654429D02*
X206358975Y-103809248D01*
X206358975Y-103809248D02*
X206389939Y-103871175D01*
X206389939Y-103871175D02*
X206420902Y-103902139D01*
X206420902Y-103902139D02*
X206482830Y-103933103D01*
X206482830Y-103933103D02*
X206606685Y-103933103D01*
X206606685Y-103933103D02*
X206668613Y-103902139D01*
X206668613Y-103902139D02*
X206699577Y-103871175D01*
X206699577Y-103871175D02*
X206730540Y-103809248D01*
G04 #@! TO.C,C42*
X202718793Y-68507847D02*
X202749745Y-68538799D01*
X202749745Y-68538799D02*
X202780696Y-68631654D01*
X202780696Y-68631654D02*
X202780696Y-68693558D01*
X202780696Y-68693558D02*
X202749745Y-68786413D01*
X202749745Y-68786413D02*
X202687841Y-68848316D01*
X202687841Y-68848316D02*
X202625938Y-68879268D01*
X202625938Y-68879268D02*
X202502131Y-68910220D01*
X202502131Y-68910220D02*
X202409276Y-68910220D01*
X202409276Y-68910220D02*
X202285469Y-68879268D01*
X202285469Y-68879268D02*
X202223565Y-68848316D01*
X202223565Y-68848316D02*
X202161662Y-68786413D01*
X202161662Y-68786413D02*
X202130710Y-68693558D01*
X202130710Y-68693558D02*
X202130710Y-68631654D01*
X202130710Y-68631654D02*
X202161662Y-68538799D01*
X202161662Y-68538799D02*
X202192614Y-68507847D01*
X202347372Y-67950717D02*
X202780696Y-67950717D01*
X202099759Y-68105475D02*
X202564034Y-68260234D01*
X202564034Y-68260234D02*
X202564034Y-67857861D01*
X202192614Y-67641200D02*
X202161662Y-67610248D01*
X202161662Y-67610248D02*
X202130710Y-67548345D01*
X202130710Y-67548345D02*
X202130710Y-67393586D01*
X202130710Y-67393586D02*
X202161662Y-67331683D01*
X202161662Y-67331683D02*
X202192614Y-67300731D01*
X202192614Y-67300731D02*
X202254517Y-67269779D01*
X202254517Y-67269779D02*
X202316421Y-67269779D01*
X202316421Y-67269779D02*
X202409276Y-67300731D01*
X202409276Y-67300731D02*
X202780696Y-67672151D01*
X202780696Y-67672151D02*
X202780696Y-67269779D01*
G04 #@! TO.C,C2*
X213818793Y-112138330D02*
X213849745Y-112169282D01*
X213849745Y-112169282D02*
X213880696Y-112262137D01*
X213880696Y-112262137D02*
X213880696Y-112324041D01*
X213880696Y-112324041D02*
X213849745Y-112416896D01*
X213849745Y-112416896D02*
X213787841Y-112478799D01*
X213787841Y-112478799D02*
X213725938Y-112509751D01*
X213725938Y-112509751D02*
X213602131Y-112540703D01*
X213602131Y-112540703D02*
X213509276Y-112540703D01*
X213509276Y-112540703D02*
X213385469Y-112509751D01*
X213385469Y-112509751D02*
X213323565Y-112478799D01*
X213323565Y-112478799D02*
X213261662Y-112416896D01*
X213261662Y-112416896D02*
X213230710Y-112324041D01*
X213230710Y-112324041D02*
X213230710Y-112262137D01*
X213230710Y-112262137D02*
X213261662Y-112169282D01*
X213261662Y-112169282D02*
X213292614Y-112138330D01*
X213292614Y-111890717D02*
X213261662Y-111859765D01*
X213261662Y-111859765D02*
X213230710Y-111797862D01*
X213230710Y-111797862D02*
X213230710Y-111643103D01*
X213230710Y-111643103D02*
X213261662Y-111581200D01*
X213261662Y-111581200D02*
X213292614Y-111550248D01*
X213292614Y-111550248D02*
X213354517Y-111519296D01*
X213354517Y-111519296D02*
X213416421Y-111519296D01*
X213416421Y-111519296D02*
X213509276Y-111550248D01*
X213509276Y-111550248D02*
X213880696Y-111921668D01*
X213880696Y-111921668D02*
X213880696Y-111519296D01*
D10*
G04 #@! TO.C,D24*
X200823379Y-93374285D02*
X199823379Y-93374285D01*
X199823379Y-93374285D02*
X199823379Y-93136190D01*
X199823379Y-93136190D02*
X199870998Y-92993333D01*
X199870998Y-92993333D02*
X199966236Y-92898095D01*
X199966236Y-92898095D02*
X200061474Y-92850476D01*
X200061474Y-92850476D02*
X200251950Y-92802857D01*
X200251950Y-92802857D02*
X200394807Y-92802857D01*
X200394807Y-92802857D02*
X200585283Y-92850476D01*
X200585283Y-92850476D02*
X200680521Y-92898095D01*
X200680521Y-92898095D02*
X200775760Y-92993333D01*
X200775760Y-92993333D02*
X200823379Y-93136190D01*
X200823379Y-93136190D02*
X200823379Y-93374285D01*
X199918617Y-92421904D02*
X199870998Y-92374285D01*
X199870998Y-92374285D02*
X199823379Y-92279047D01*
X199823379Y-92279047D02*
X199823379Y-92040952D01*
X199823379Y-92040952D02*
X199870998Y-91945714D01*
X199870998Y-91945714D02*
X199918617Y-91898095D01*
X199918617Y-91898095D02*
X200013855Y-91850476D01*
X200013855Y-91850476D02*
X200109093Y-91850476D01*
X200109093Y-91850476D02*
X200251950Y-91898095D01*
X200251950Y-91898095D02*
X200823379Y-92469523D01*
X200823379Y-92469523D02*
X200823379Y-91850476D01*
X200156712Y-90993333D02*
X200823379Y-90993333D01*
X199775760Y-91231428D02*
X200490045Y-91469523D01*
X200490045Y-91469523D02*
X200490045Y-90850476D01*
D11*
G04 #@! TO.C,R40*
X203742152Y-115280696D02*
X203525490Y-114971179D01*
X203370731Y-115280696D02*
X203370731Y-114630710D01*
X203370731Y-114630710D02*
X203618345Y-114630710D01*
X203618345Y-114630710D02*
X203680248Y-114661662D01*
X203680248Y-114661662D02*
X203711200Y-114692614D01*
X203711200Y-114692614D02*
X203742152Y-114754517D01*
X203742152Y-114754517D02*
X203742152Y-114847372D01*
X203742152Y-114847372D02*
X203711200Y-114909276D01*
X203711200Y-114909276D02*
X203680248Y-114940227D01*
X203680248Y-114940227D02*
X203618345Y-114971179D01*
X203618345Y-114971179D02*
X203370731Y-114971179D01*
X204299283Y-114847372D02*
X204299283Y-115280696D01*
X204144524Y-114599759D02*
X203989765Y-115064034D01*
X203989765Y-115064034D02*
X204392138Y-115064034D01*
X204763558Y-114630710D02*
X204825461Y-114630710D01*
X204825461Y-114630710D02*
X204887365Y-114661662D01*
X204887365Y-114661662D02*
X204918317Y-114692614D01*
X204918317Y-114692614D02*
X204949268Y-114754517D01*
X204949268Y-114754517D02*
X204980220Y-114878324D01*
X204980220Y-114878324D02*
X204980220Y-115033083D01*
X204980220Y-115033083D02*
X204949268Y-115156889D01*
X204949268Y-115156889D02*
X204918317Y-115218793D01*
X204918317Y-115218793D02*
X204887365Y-115249745D01*
X204887365Y-115249745D02*
X204825461Y-115280696D01*
X204825461Y-115280696D02*
X204763558Y-115280696D01*
X204763558Y-115280696D02*
X204701655Y-115249745D01*
X204701655Y-115249745D02*
X204670703Y-115218793D01*
X204670703Y-115218793D02*
X204639751Y-115156889D01*
X204639751Y-115156889D02*
X204608799Y-115033083D01*
X204608799Y-115033083D02*
X204608799Y-114878324D01*
X204608799Y-114878324D02*
X204639751Y-114754517D01*
X204639751Y-114754517D02*
X204670703Y-114692614D01*
X204670703Y-114692614D02*
X204701655Y-114661662D01*
X204701655Y-114661662D02*
X204763558Y-114630710D01*
G04 #@! TO.C,JA1*
X194579772Y-70325710D02*
X194579772Y-70789986D01*
X194579772Y-70789986D02*
X194548821Y-70882841D01*
X194548821Y-70882841D02*
X194486917Y-70944745D01*
X194486917Y-70944745D02*
X194394062Y-70975696D01*
X194394062Y-70975696D02*
X194332159Y-70975696D01*
X194858337Y-70789986D02*
X195167855Y-70789986D01*
X194796434Y-70975696D02*
X195013096Y-70325710D01*
X195013096Y-70325710D02*
X195229758Y-70975696D01*
X195786889Y-70975696D02*
X195415468Y-70975696D01*
X195601179Y-70975696D02*
X195601179Y-70325710D01*
X195601179Y-70325710D02*
X195539275Y-70418565D01*
X195539275Y-70418565D02*
X195477372Y-70480469D01*
X195477372Y-70480469D02*
X195415468Y-70511421D01*
G04 #@! TO.C,C98*
X214378793Y-60347847D02*
X214409745Y-60378799D01*
X214409745Y-60378799D02*
X214440696Y-60471654D01*
X214440696Y-60471654D02*
X214440696Y-60533558D01*
X214440696Y-60533558D02*
X214409745Y-60626413D01*
X214409745Y-60626413D02*
X214347841Y-60688316D01*
X214347841Y-60688316D02*
X214285938Y-60719268D01*
X214285938Y-60719268D02*
X214162131Y-60750220D01*
X214162131Y-60750220D02*
X214069276Y-60750220D01*
X214069276Y-60750220D02*
X213945469Y-60719268D01*
X213945469Y-60719268D02*
X213883565Y-60688316D01*
X213883565Y-60688316D02*
X213821662Y-60626413D01*
X213821662Y-60626413D02*
X213790710Y-60533558D01*
X213790710Y-60533558D02*
X213790710Y-60471654D01*
X213790710Y-60471654D02*
X213821662Y-60378799D01*
X213821662Y-60378799D02*
X213852614Y-60347847D01*
X214440696Y-60038330D02*
X214440696Y-59914523D01*
X214440696Y-59914523D02*
X214409745Y-59852620D01*
X214409745Y-59852620D02*
X214378793Y-59821668D01*
X214378793Y-59821668D02*
X214285938Y-59759765D01*
X214285938Y-59759765D02*
X214162131Y-59728813D01*
X214162131Y-59728813D02*
X213914517Y-59728813D01*
X213914517Y-59728813D02*
X213852614Y-59759765D01*
X213852614Y-59759765D02*
X213821662Y-59790717D01*
X213821662Y-59790717D02*
X213790710Y-59852620D01*
X213790710Y-59852620D02*
X213790710Y-59976427D01*
X213790710Y-59976427D02*
X213821662Y-60038330D01*
X213821662Y-60038330D02*
X213852614Y-60069282D01*
X213852614Y-60069282D02*
X213914517Y-60100234D01*
X213914517Y-60100234D02*
X214069276Y-60100234D01*
X214069276Y-60100234D02*
X214131179Y-60069282D01*
X214131179Y-60069282D02*
X214162131Y-60038330D01*
X214162131Y-60038330D02*
X214193083Y-59976427D01*
X214193083Y-59976427D02*
X214193083Y-59852620D01*
X214193083Y-59852620D02*
X214162131Y-59790717D01*
X214162131Y-59790717D02*
X214131179Y-59759765D01*
X214131179Y-59759765D02*
X214069276Y-59728813D01*
X214069276Y-59357393D02*
X214038324Y-59419296D01*
X214038324Y-59419296D02*
X214007372Y-59450248D01*
X214007372Y-59450248D02*
X213945469Y-59481200D01*
X213945469Y-59481200D02*
X213914517Y-59481200D01*
X213914517Y-59481200D02*
X213852614Y-59450248D01*
X213852614Y-59450248D02*
X213821662Y-59419296D01*
X213821662Y-59419296D02*
X213790710Y-59357393D01*
X213790710Y-59357393D02*
X213790710Y-59233586D01*
X213790710Y-59233586D02*
X213821662Y-59171683D01*
X213821662Y-59171683D02*
X213852614Y-59140731D01*
X213852614Y-59140731D02*
X213914517Y-59109779D01*
X213914517Y-59109779D02*
X213945469Y-59109779D01*
X213945469Y-59109779D02*
X214007372Y-59140731D01*
X214007372Y-59140731D02*
X214038324Y-59171683D01*
X214038324Y-59171683D02*
X214069276Y-59233586D01*
X214069276Y-59233586D02*
X214069276Y-59357393D01*
X214069276Y-59357393D02*
X214100227Y-59419296D01*
X214100227Y-59419296D02*
X214131179Y-59450248D01*
X214131179Y-59450248D02*
X214193083Y-59481200D01*
X214193083Y-59481200D02*
X214316889Y-59481200D01*
X214316889Y-59481200D02*
X214378793Y-59450248D01*
X214378793Y-59450248D02*
X214409745Y-59419296D01*
X214409745Y-59419296D02*
X214440696Y-59357393D01*
X214440696Y-59357393D02*
X214440696Y-59233586D01*
X214440696Y-59233586D02*
X214409745Y-59171683D01*
X214409745Y-59171683D02*
X214378793Y-59140731D01*
X214378793Y-59140731D02*
X214316889Y-59109779D01*
X214316889Y-59109779D02*
X214193083Y-59109779D01*
X214193083Y-59109779D02*
X214131179Y-59140731D01*
X214131179Y-59140731D02*
X214100227Y-59171683D01*
X214100227Y-59171683D02*
X214069276Y-59233586D01*
G04 #@! TO.C,JP1*
X193148345Y-82040710D02*
X193148345Y-82504986D01*
X193148345Y-82504986D02*
X193117394Y-82597841D01*
X193117394Y-82597841D02*
X193055490Y-82659745D01*
X193055490Y-82659745D02*
X192962635Y-82690696D01*
X192962635Y-82690696D02*
X192900732Y-82690696D01*
X193457862Y-82690696D02*
X193457862Y-82040710D01*
X193457862Y-82040710D02*
X193705476Y-82040710D01*
X193705476Y-82040710D02*
X193767379Y-82071662D01*
X193767379Y-82071662D02*
X193798331Y-82102614D01*
X193798331Y-82102614D02*
X193829283Y-82164517D01*
X193829283Y-82164517D02*
X193829283Y-82257372D01*
X193829283Y-82257372D02*
X193798331Y-82319276D01*
X193798331Y-82319276D02*
X193767379Y-82350227D01*
X193767379Y-82350227D02*
X193705476Y-82381179D01*
X193705476Y-82381179D02*
X193457862Y-82381179D01*
X194448317Y-82690696D02*
X194076896Y-82690696D01*
X194262607Y-82690696D02*
X194262607Y-82040710D01*
X194262607Y-82040710D02*
X194200703Y-82133565D01*
X194200703Y-82133565D02*
X194138800Y-82195469D01*
X194138800Y-82195469D02*
X194076896Y-82226421D01*
G04 #@! TO.C,C3*
X211758793Y-121888330D02*
X211789745Y-121919282D01*
X211789745Y-121919282D02*
X211820696Y-122012137D01*
X211820696Y-122012137D02*
X211820696Y-122074041D01*
X211820696Y-122074041D02*
X211789745Y-122166896D01*
X211789745Y-122166896D02*
X211727841Y-122228799D01*
X211727841Y-122228799D02*
X211665938Y-122259751D01*
X211665938Y-122259751D02*
X211542131Y-122290703D01*
X211542131Y-122290703D02*
X211449276Y-122290703D01*
X211449276Y-122290703D02*
X211325469Y-122259751D01*
X211325469Y-122259751D02*
X211263565Y-122228799D01*
X211263565Y-122228799D02*
X211201662Y-122166896D01*
X211201662Y-122166896D02*
X211170710Y-122074041D01*
X211170710Y-122074041D02*
X211170710Y-122012137D01*
X211170710Y-122012137D02*
X211201662Y-121919282D01*
X211201662Y-121919282D02*
X211232614Y-121888330D01*
X211170710Y-121671668D02*
X211170710Y-121269296D01*
X211170710Y-121269296D02*
X211418324Y-121485958D01*
X211418324Y-121485958D02*
X211418324Y-121393103D01*
X211418324Y-121393103D02*
X211449276Y-121331200D01*
X211449276Y-121331200D02*
X211480227Y-121300248D01*
X211480227Y-121300248D02*
X211542131Y-121269296D01*
X211542131Y-121269296D02*
X211696889Y-121269296D01*
X211696889Y-121269296D02*
X211758793Y-121300248D01*
X211758793Y-121300248D02*
X211789745Y-121331200D01*
X211789745Y-121331200D02*
X211820696Y-121393103D01*
X211820696Y-121393103D02*
X211820696Y-121578813D01*
X211820696Y-121578813D02*
X211789745Y-121640717D01*
X211789745Y-121640717D02*
X211758793Y-121671668D01*
G04 #@! TO.C,R67*
X215800696Y-70014626D02*
X215491179Y-70231288D01*
X215800696Y-70386047D02*
X215150710Y-70386047D01*
X215150710Y-70386047D02*
X215150710Y-70138433D01*
X215150710Y-70138433D02*
X215181662Y-70076530D01*
X215181662Y-70076530D02*
X215212614Y-70045578D01*
X215212614Y-70045578D02*
X215274517Y-70014626D01*
X215274517Y-70014626D02*
X215367372Y-70014626D01*
X215367372Y-70014626D02*
X215429276Y-70045578D01*
X215429276Y-70045578D02*
X215460227Y-70076530D01*
X215460227Y-70076530D02*
X215491179Y-70138433D01*
X215491179Y-70138433D02*
X215491179Y-70386047D01*
X215150710Y-69457496D02*
X215150710Y-69581302D01*
X215150710Y-69581302D02*
X215181662Y-69643206D01*
X215181662Y-69643206D02*
X215212614Y-69674158D01*
X215212614Y-69674158D02*
X215305469Y-69736061D01*
X215305469Y-69736061D02*
X215429276Y-69767013D01*
X215429276Y-69767013D02*
X215676889Y-69767013D01*
X215676889Y-69767013D02*
X215738793Y-69736061D01*
X215738793Y-69736061D02*
X215769745Y-69705109D01*
X215769745Y-69705109D02*
X215800696Y-69643206D01*
X215800696Y-69643206D02*
X215800696Y-69519399D01*
X215800696Y-69519399D02*
X215769745Y-69457496D01*
X215769745Y-69457496D02*
X215738793Y-69426544D01*
X215738793Y-69426544D02*
X215676889Y-69395592D01*
X215676889Y-69395592D02*
X215522131Y-69395592D01*
X215522131Y-69395592D02*
X215460227Y-69426544D01*
X215460227Y-69426544D02*
X215429276Y-69457496D01*
X215429276Y-69457496D02*
X215398324Y-69519399D01*
X215398324Y-69519399D02*
X215398324Y-69643206D01*
X215398324Y-69643206D02*
X215429276Y-69705109D01*
X215429276Y-69705109D02*
X215460227Y-69736061D01*
X215460227Y-69736061D02*
X215522131Y-69767013D01*
X215150710Y-69178930D02*
X215150710Y-68745606D01*
X215150710Y-68745606D02*
X215800696Y-69024172D01*
G04 #@! TO.C,C81*
X211522152Y-58538793D02*
X211491200Y-58569745D01*
X211491200Y-58569745D02*
X211398345Y-58600696D01*
X211398345Y-58600696D02*
X211336441Y-58600696D01*
X211336441Y-58600696D02*
X211243586Y-58569745D01*
X211243586Y-58569745D02*
X211181683Y-58507841D01*
X211181683Y-58507841D02*
X211150731Y-58445938D01*
X211150731Y-58445938D02*
X211119779Y-58322131D01*
X211119779Y-58322131D02*
X211119779Y-58229276D01*
X211119779Y-58229276D02*
X211150731Y-58105469D01*
X211150731Y-58105469D02*
X211181683Y-58043565D01*
X211181683Y-58043565D02*
X211243586Y-57981662D01*
X211243586Y-57981662D02*
X211336441Y-57950710D01*
X211336441Y-57950710D02*
X211398345Y-57950710D01*
X211398345Y-57950710D02*
X211491200Y-57981662D01*
X211491200Y-57981662D02*
X211522152Y-58012614D01*
X211893572Y-58229276D02*
X211831669Y-58198324D01*
X211831669Y-58198324D02*
X211800717Y-58167372D01*
X211800717Y-58167372D02*
X211769765Y-58105469D01*
X211769765Y-58105469D02*
X211769765Y-58074517D01*
X211769765Y-58074517D02*
X211800717Y-58012614D01*
X211800717Y-58012614D02*
X211831669Y-57981662D01*
X211831669Y-57981662D02*
X211893572Y-57950710D01*
X211893572Y-57950710D02*
X212017379Y-57950710D01*
X212017379Y-57950710D02*
X212079283Y-57981662D01*
X212079283Y-57981662D02*
X212110234Y-58012614D01*
X212110234Y-58012614D02*
X212141186Y-58074517D01*
X212141186Y-58074517D02*
X212141186Y-58105469D01*
X212141186Y-58105469D02*
X212110234Y-58167372D01*
X212110234Y-58167372D02*
X212079283Y-58198324D01*
X212079283Y-58198324D02*
X212017379Y-58229276D01*
X212017379Y-58229276D02*
X211893572Y-58229276D01*
X211893572Y-58229276D02*
X211831669Y-58260227D01*
X211831669Y-58260227D02*
X211800717Y-58291179D01*
X211800717Y-58291179D02*
X211769765Y-58353083D01*
X211769765Y-58353083D02*
X211769765Y-58476889D01*
X211769765Y-58476889D02*
X211800717Y-58538793D01*
X211800717Y-58538793D02*
X211831669Y-58569745D01*
X211831669Y-58569745D02*
X211893572Y-58600696D01*
X211893572Y-58600696D02*
X212017379Y-58600696D01*
X212017379Y-58600696D02*
X212079283Y-58569745D01*
X212079283Y-58569745D02*
X212110234Y-58538793D01*
X212110234Y-58538793D02*
X212141186Y-58476889D01*
X212141186Y-58476889D02*
X212141186Y-58353083D01*
X212141186Y-58353083D02*
X212110234Y-58291179D01*
X212110234Y-58291179D02*
X212079283Y-58260227D01*
X212079283Y-58260227D02*
X212017379Y-58229276D01*
X212760220Y-58600696D02*
X212388799Y-58600696D01*
X212574510Y-58600696D02*
X212574510Y-57950710D01*
X212574510Y-57950710D02*
X212512606Y-58043565D01*
X212512606Y-58043565D02*
X212450703Y-58105469D01*
X212450703Y-58105469D02*
X212388799Y-58136421D01*
G04 #@! TO.C,C13*
X203325793Y-89334847D02*
X203356745Y-89365799D01*
X203356745Y-89365799D02*
X203387696Y-89458654D01*
X203387696Y-89458654D02*
X203387696Y-89520558D01*
X203387696Y-89520558D02*
X203356745Y-89613413D01*
X203356745Y-89613413D02*
X203294841Y-89675316D01*
X203294841Y-89675316D02*
X203232938Y-89706268D01*
X203232938Y-89706268D02*
X203109131Y-89737220D01*
X203109131Y-89737220D02*
X203016276Y-89737220D01*
X203016276Y-89737220D02*
X202892469Y-89706268D01*
X202892469Y-89706268D02*
X202830565Y-89675316D01*
X202830565Y-89675316D02*
X202768662Y-89613413D01*
X202768662Y-89613413D02*
X202737710Y-89520558D01*
X202737710Y-89520558D02*
X202737710Y-89458654D01*
X202737710Y-89458654D02*
X202768662Y-89365799D01*
X202768662Y-89365799D02*
X202799614Y-89334847D01*
X203387696Y-88715813D02*
X203387696Y-89087234D01*
X203387696Y-88901523D02*
X202737710Y-88901523D01*
X202737710Y-88901523D02*
X202830565Y-88963427D01*
X202830565Y-88963427D02*
X202892469Y-89025330D01*
X202892469Y-89025330D02*
X202923421Y-89087234D01*
X202737710Y-88499151D02*
X202737710Y-88096779D01*
X202737710Y-88096779D02*
X202985324Y-88313441D01*
X202985324Y-88313441D02*
X202985324Y-88220586D01*
X202985324Y-88220586D02*
X203016276Y-88158683D01*
X203016276Y-88158683D02*
X203047227Y-88127731D01*
X203047227Y-88127731D02*
X203109131Y-88096779D01*
X203109131Y-88096779D02*
X203263889Y-88096779D01*
X203263889Y-88096779D02*
X203325793Y-88127731D01*
X203325793Y-88127731D02*
X203356745Y-88158683D01*
X203356745Y-88158683D02*
X203387696Y-88220586D01*
X203387696Y-88220586D02*
X203387696Y-88406296D01*
X203387696Y-88406296D02*
X203356745Y-88468200D01*
X203356745Y-88468200D02*
X203325793Y-88499151D01*
G04 #@! TO.C,C64*
X216318793Y-60407847D02*
X216349745Y-60438799D01*
X216349745Y-60438799D02*
X216380696Y-60531654D01*
X216380696Y-60531654D02*
X216380696Y-60593558D01*
X216380696Y-60593558D02*
X216349745Y-60686413D01*
X216349745Y-60686413D02*
X216287841Y-60748316D01*
X216287841Y-60748316D02*
X216225938Y-60779268D01*
X216225938Y-60779268D02*
X216102131Y-60810220D01*
X216102131Y-60810220D02*
X216009276Y-60810220D01*
X216009276Y-60810220D02*
X215885469Y-60779268D01*
X215885469Y-60779268D02*
X215823565Y-60748316D01*
X215823565Y-60748316D02*
X215761662Y-60686413D01*
X215761662Y-60686413D02*
X215730710Y-60593558D01*
X215730710Y-60593558D02*
X215730710Y-60531654D01*
X215730710Y-60531654D02*
X215761662Y-60438799D01*
X215761662Y-60438799D02*
X215792614Y-60407847D01*
X215730710Y-59850717D02*
X215730710Y-59974523D01*
X215730710Y-59974523D02*
X215761662Y-60036427D01*
X215761662Y-60036427D02*
X215792614Y-60067379D01*
X215792614Y-60067379D02*
X215885469Y-60129282D01*
X215885469Y-60129282D02*
X216009276Y-60160234D01*
X216009276Y-60160234D02*
X216256889Y-60160234D01*
X216256889Y-60160234D02*
X216318793Y-60129282D01*
X216318793Y-60129282D02*
X216349745Y-60098330D01*
X216349745Y-60098330D02*
X216380696Y-60036427D01*
X216380696Y-60036427D02*
X216380696Y-59912620D01*
X216380696Y-59912620D02*
X216349745Y-59850717D01*
X216349745Y-59850717D02*
X216318793Y-59819765D01*
X216318793Y-59819765D02*
X216256889Y-59788813D01*
X216256889Y-59788813D02*
X216102131Y-59788813D01*
X216102131Y-59788813D02*
X216040227Y-59819765D01*
X216040227Y-59819765D02*
X216009276Y-59850717D01*
X216009276Y-59850717D02*
X215978324Y-59912620D01*
X215978324Y-59912620D02*
X215978324Y-60036427D01*
X215978324Y-60036427D02*
X216009276Y-60098330D01*
X216009276Y-60098330D02*
X216040227Y-60129282D01*
X216040227Y-60129282D02*
X216102131Y-60160234D01*
X215947372Y-59231683D02*
X216380696Y-59231683D01*
X215699759Y-59386441D02*
X216164034Y-59541200D01*
X216164034Y-59541200D02*
X216164034Y-59138827D01*
G04 #@! TO.C,C55*
X216758793Y-64117847D02*
X216789745Y-64148799D01*
X216789745Y-64148799D02*
X216820696Y-64241654D01*
X216820696Y-64241654D02*
X216820696Y-64303558D01*
X216820696Y-64303558D02*
X216789745Y-64396413D01*
X216789745Y-64396413D02*
X216727841Y-64458316D01*
X216727841Y-64458316D02*
X216665938Y-64489268D01*
X216665938Y-64489268D02*
X216542131Y-64520220D01*
X216542131Y-64520220D02*
X216449276Y-64520220D01*
X216449276Y-64520220D02*
X216325469Y-64489268D01*
X216325469Y-64489268D02*
X216263565Y-64458316D01*
X216263565Y-64458316D02*
X216201662Y-64396413D01*
X216201662Y-64396413D02*
X216170710Y-64303558D01*
X216170710Y-64303558D02*
X216170710Y-64241654D01*
X216170710Y-64241654D02*
X216201662Y-64148799D01*
X216201662Y-64148799D02*
X216232614Y-64117847D01*
X216170710Y-63529765D02*
X216170710Y-63839282D01*
X216170710Y-63839282D02*
X216480227Y-63870234D01*
X216480227Y-63870234D02*
X216449276Y-63839282D01*
X216449276Y-63839282D02*
X216418324Y-63777379D01*
X216418324Y-63777379D02*
X216418324Y-63622620D01*
X216418324Y-63622620D02*
X216449276Y-63560717D01*
X216449276Y-63560717D02*
X216480227Y-63529765D01*
X216480227Y-63529765D02*
X216542131Y-63498813D01*
X216542131Y-63498813D02*
X216696889Y-63498813D01*
X216696889Y-63498813D02*
X216758793Y-63529765D01*
X216758793Y-63529765D02*
X216789745Y-63560717D01*
X216789745Y-63560717D02*
X216820696Y-63622620D01*
X216820696Y-63622620D02*
X216820696Y-63777379D01*
X216820696Y-63777379D02*
X216789745Y-63839282D01*
X216789745Y-63839282D02*
X216758793Y-63870234D01*
X216170710Y-62910731D02*
X216170710Y-63220248D01*
X216170710Y-63220248D02*
X216480227Y-63251200D01*
X216480227Y-63251200D02*
X216449276Y-63220248D01*
X216449276Y-63220248D02*
X216418324Y-63158345D01*
X216418324Y-63158345D02*
X216418324Y-63003586D01*
X216418324Y-63003586D02*
X216449276Y-62941683D01*
X216449276Y-62941683D02*
X216480227Y-62910731D01*
X216480227Y-62910731D02*
X216542131Y-62879779D01*
X216542131Y-62879779D02*
X216696889Y-62879779D01*
X216696889Y-62879779D02*
X216758793Y-62910731D01*
X216758793Y-62910731D02*
X216789745Y-62941683D01*
X216789745Y-62941683D02*
X216820696Y-63003586D01*
X216820696Y-63003586D02*
X216820696Y-63158345D01*
X216820696Y-63158345D02*
X216789745Y-63220248D01*
X216789745Y-63220248D02*
X216758793Y-63251200D01*
G04 #@! TO.C,U2*
X202332430Y-86731746D02*
X202858609Y-86731746D01*
X202858609Y-86731746D02*
X202920513Y-86700794D01*
X202920513Y-86700794D02*
X202951465Y-86669843D01*
X202951465Y-86669843D02*
X202982416Y-86607939D01*
X202982416Y-86607939D02*
X202982416Y-86484132D01*
X202982416Y-86484132D02*
X202951465Y-86422229D01*
X202951465Y-86422229D02*
X202920513Y-86391277D01*
X202920513Y-86391277D02*
X202858609Y-86360325D01*
X202858609Y-86360325D02*
X202332430Y-86360325D01*
X202394334Y-86081760D02*
X202363382Y-86050808D01*
X202363382Y-86050808D02*
X202332430Y-85988905D01*
X202332430Y-85988905D02*
X202332430Y-85834146D01*
X202332430Y-85834146D02*
X202363382Y-85772243D01*
X202363382Y-85772243D02*
X202394334Y-85741291D01*
X202394334Y-85741291D02*
X202456237Y-85710339D01*
X202456237Y-85710339D02*
X202518141Y-85710339D01*
X202518141Y-85710339D02*
X202610996Y-85741291D01*
X202610996Y-85741291D02*
X202982416Y-86112711D01*
X202982416Y-86112711D02*
X202982416Y-85710339D01*
G04 #@! TO.C,C83*
X205072152Y-58403793D02*
X205041200Y-58434745D01*
X205041200Y-58434745D02*
X204948345Y-58465696D01*
X204948345Y-58465696D02*
X204886441Y-58465696D01*
X204886441Y-58465696D02*
X204793586Y-58434745D01*
X204793586Y-58434745D02*
X204731683Y-58372841D01*
X204731683Y-58372841D02*
X204700731Y-58310938D01*
X204700731Y-58310938D02*
X204669779Y-58187131D01*
X204669779Y-58187131D02*
X204669779Y-58094276D01*
X204669779Y-58094276D02*
X204700731Y-57970469D01*
X204700731Y-57970469D02*
X204731683Y-57908565D01*
X204731683Y-57908565D02*
X204793586Y-57846662D01*
X204793586Y-57846662D02*
X204886441Y-57815710D01*
X204886441Y-57815710D02*
X204948345Y-57815710D01*
X204948345Y-57815710D02*
X205041200Y-57846662D01*
X205041200Y-57846662D02*
X205072152Y-57877614D01*
X205443572Y-58094276D02*
X205381669Y-58063324D01*
X205381669Y-58063324D02*
X205350717Y-58032372D01*
X205350717Y-58032372D02*
X205319765Y-57970469D01*
X205319765Y-57970469D02*
X205319765Y-57939517D01*
X205319765Y-57939517D02*
X205350717Y-57877614D01*
X205350717Y-57877614D02*
X205381669Y-57846662D01*
X205381669Y-57846662D02*
X205443572Y-57815710D01*
X205443572Y-57815710D02*
X205567379Y-57815710D01*
X205567379Y-57815710D02*
X205629283Y-57846662D01*
X205629283Y-57846662D02*
X205660234Y-57877614D01*
X205660234Y-57877614D02*
X205691186Y-57939517D01*
X205691186Y-57939517D02*
X205691186Y-57970469D01*
X205691186Y-57970469D02*
X205660234Y-58032372D01*
X205660234Y-58032372D02*
X205629283Y-58063324D01*
X205629283Y-58063324D02*
X205567379Y-58094276D01*
X205567379Y-58094276D02*
X205443572Y-58094276D01*
X205443572Y-58094276D02*
X205381669Y-58125227D01*
X205381669Y-58125227D02*
X205350717Y-58156179D01*
X205350717Y-58156179D02*
X205319765Y-58218083D01*
X205319765Y-58218083D02*
X205319765Y-58341889D01*
X205319765Y-58341889D02*
X205350717Y-58403793D01*
X205350717Y-58403793D02*
X205381669Y-58434745D01*
X205381669Y-58434745D02*
X205443572Y-58465696D01*
X205443572Y-58465696D02*
X205567379Y-58465696D01*
X205567379Y-58465696D02*
X205629283Y-58434745D01*
X205629283Y-58434745D02*
X205660234Y-58403793D01*
X205660234Y-58403793D02*
X205691186Y-58341889D01*
X205691186Y-58341889D02*
X205691186Y-58218083D01*
X205691186Y-58218083D02*
X205660234Y-58156179D01*
X205660234Y-58156179D02*
X205629283Y-58125227D01*
X205629283Y-58125227D02*
X205567379Y-58094276D01*
X205907848Y-57815710D02*
X206310220Y-57815710D01*
X206310220Y-57815710D02*
X206093558Y-58063324D01*
X206093558Y-58063324D02*
X206186413Y-58063324D01*
X206186413Y-58063324D02*
X206248317Y-58094276D01*
X206248317Y-58094276D02*
X206279268Y-58125227D01*
X206279268Y-58125227D02*
X206310220Y-58187131D01*
X206310220Y-58187131D02*
X206310220Y-58341889D01*
X206310220Y-58341889D02*
X206279268Y-58403793D01*
X206279268Y-58403793D02*
X206248317Y-58434745D01*
X206248317Y-58434745D02*
X206186413Y-58465696D01*
X206186413Y-58465696D02*
X206000703Y-58465696D01*
X206000703Y-58465696D02*
X205938799Y-58434745D01*
X205938799Y-58434745D02*
X205907848Y-58403793D01*
G04 #@! TO.C,X1*
X205602855Y-89880468D02*
X206036179Y-90530454D01*
X206036179Y-89880468D02*
X205602855Y-90530454D01*
X206624261Y-90530454D02*
X206252840Y-90530454D01*
X206438551Y-90530454D02*
X206438551Y-89880468D01*
X206438551Y-89880468D02*
X206376647Y-89973323D01*
X206376647Y-89973323D02*
X206314744Y-90035227D01*
X206314744Y-90035227D02*
X206252840Y-90066179D01*
G04 #@! TO.C,C24*
X207912532Y-91186053D02*
X207881580Y-91217005D01*
X207881580Y-91217005D02*
X207788725Y-91247956D01*
X207788725Y-91247956D02*
X207726821Y-91247956D01*
X207726821Y-91247956D02*
X207633966Y-91217005D01*
X207633966Y-91217005D02*
X207572063Y-91155101D01*
X207572063Y-91155101D02*
X207541111Y-91093198D01*
X207541111Y-91093198D02*
X207510159Y-90969391D01*
X207510159Y-90969391D02*
X207510159Y-90876536D01*
X207510159Y-90876536D02*
X207541111Y-90752729D01*
X207541111Y-90752729D02*
X207572063Y-90690825D01*
X207572063Y-90690825D02*
X207633966Y-90628922D01*
X207633966Y-90628922D02*
X207726821Y-90597970D01*
X207726821Y-90597970D02*
X207788725Y-90597970D01*
X207788725Y-90597970D02*
X207881580Y-90628922D01*
X207881580Y-90628922D02*
X207912532Y-90659874D01*
X208160145Y-90659874D02*
X208191097Y-90628922D01*
X208191097Y-90628922D02*
X208253001Y-90597970D01*
X208253001Y-90597970D02*
X208407759Y-90597970D01*
X208407759Y-90597970D02*
X208469663Y-90628922D01*
X208469663Y-90628922D02*
X208500614Y-90659874D01*
X208500614Y-90659874D02*
X208531566Y-90721777D01*
X208531566Y-90721777D02*
X208531566Y-90783681D01*
X208531566Y-90783681D02*
X208500614Y-90876536D01*
X208500614Y-90876536D02*
X208129194Y-91247956D01*
X208129194Y-91247956D02*
X208531566Y-91247956D01*
X209088697Y-90814632D02*
X209088697Y-91247956D01*
X208933938Y-90567019D02*
X208779179Y-91031294D01*
X208779179Y-91031294D02*
X209181552Y-91031294D01*
G04 #@! TO.C,R20*
X195100696Y-100277847D02*
X194791179Y-100494509D01*
X195100696Y-100649268D02*
X194450710Y-100649268D01*
X194450710Y-100649268D02*
X194450710Y-100401654D01*
X194450710Y-100401654D02*
X194481662Y-100339751D01*
X194481662Y-100339751D02*
X194512614Y-100308799D01*
X194512614Y-100308799D02*
X194574517Y-100277847D01*
X194574517Y-100277847D02*
X194667372Y-100277847D01*
X194667372Y-100277847D02*
X194729276Y-100308799D01*
X194729276Y-100308799D02*
X194760227Y-100339751D01*
X194760227Y-100339751D02*
X194791179Y-100401654D01*
X194791179Y-100401654D02*
X194791179Y-100649268D01*
X194512614Y-100030234D02*
X194481662Y-99999282D01*
X194481662Y-99999282D02*
X194450710Y-99937379D01*
X194450710Y-99937379D02*
X194450710Y-99782620D01*
X194450710Y-99782620D02*
X194481662Y-99720717D01*
X194481662Y-99720717D02*
X194512614Y-99689765D01*
X194512614Y-99689765D02*
X194574517Y-99658813D01*
X194574517Y-99658813D02*
X194636421Y-99658813D01*
X194636421Y-99658813D02*
X194729276Y-99689765D01*
X194729276Y-99689765D02*
X195100696Y-100061185D01*
X195100696Y-100061185D02*
X195100696Y-99658813D01*
X194450710Y-99256441D02*
X194450710Y-99194538D01*
X194450710Y-99194538D02*
X194481662Y-99132634D01*
X194481662Y-99132634D02*
X194512614Y-99101683D01*
X194512614Y-99101683D02*
X194574517Y-99070731D01*
X194574517Y-99070731D02*
X194698324Y-99039779D01*
X194698324Y-99039779D02*
X194853083Y-99039779D01*
X194853083Y-99039779D02*
X194976889Y-99070731D01*
X194976889Y-99070731D02*
X195038793Y-99101683D01*
X195038793Y-99101683D02*
X195069745Y-99132634D01*
X195069745Y-99132634D02*
X195100696Y-99194538D01*
X195100696Y-99194538D02*
X195100696Y-99256441D01*
X195100696Y-99256441D02*
X195069745Y-99318345D01*
X195069745Y-99318345D02*
X195038793Y-99349296D01*
X195038793Y-99349296D02*
X194976889Y-99380248D01*
X194976889Y-99380248D02*
X194853083Y-99411200D01*
X194853083Y-99411200D02*
X194698324Y-99411200D01*
X194698324Y-99411200D02*
X194574517Y-99380248D01*
X194574517Y-99380248D02*
X194512614Y-99349296D01*
X194512614Y-99349296D02*
X194481662Y-99318345D01*
X194481662Y-99318345D02*
X194450710Y-99256441D01*
G04 #@! TO.C,JB1*
X198678345Y-122740710D02*
X198678345Y-123204986D01*
X198678345Y-123204986D02*
X198647394Y-123297841D01*
X198647394Y-123297841D02*
X198585490Y-123359745D01*
X198585490Y-123359745D02*
X198492635Y-123390696D01*
X198492635Y-123390696D02*
X198430732Y-123390696D01*
X199204524Y-123050227D02*
X199297379Y-123081179D01*
X199297379Y-123081179D02*
X199328331Y-123112131D01*
X199328331Y-123112131D02*
X199359283Y-123174034D01*
X199359283Y-123174034D02*
X199359283Y-123266889D01*
X199359283Y-123266889D02*
X199328331Y-123328793D01*
X199328331Y-123328793D02*
X199297379Y-123359745D01*
X199297379Y-123359745D02*
X199235476Y-123390696D01*
X199235476Y-123390696D02*
X198987862Y-123390696D01*
X198987862Y-123390696D02*
X198987862Y-122740710D01*
X198987862Y-122740710D02*
X199204524Y-122740710D01*
X199204524Y-122740710D02*
X199266428Y-122771662D01*
X199266428Y-122771662D02*
X199297379Y-122802614D01*
X199297379Y-122802614D02*
X199328331Y-122864517D01*
X199328331Y-122864517D02*
X199328331Y-122926421D01*
X199328331Y-122926421D02*
X199297379Y-122988324D01*
X199297379Y-122988324D02*
X199266428Y-123019276D01*
X199266428Y-123019276D02*
X199204524Y-123050227D01*
X199204524Y-123050227D02*
X198987862Y-123050227D01*
X199978317Y-123390696D02*
X199606896Y-123390696D01*
X199792607Y-123390696D02*
X199792607Y-122740710D01*
X199792607Y-122740710D02*
X199730703Y-122833565D01*
X199730703Y-122833565D02*
X199668800Y-122895469D01*
X199668800Y-122895469D02*
X199606896Y-122926421D01*
G04 #@! TO.C,R2*
X206671669Y-106190696D02*
X206455007Y-105881179D01*
X206300248Y-106190696D02*
X206300248Y-105540710D01*
X206300248Y-105540710D02*
X206547862Y-105540710D01*
X206547862Y-105540710D02*
X206609765Y-105571662D01*
X206609765Y-105571662D02*
X206640717Y-105602614D01*
X206640717Y-105602614D02*
X206671669Y-105664517D01*
X206671669Y-105664517D02*
X206671669Y-105757372D01*
X206671669Y-105757372D02*
X206640717Y-105819276D01*
X206640717Y-105819276D02*
X206609765Y-105850227D01*
X206609765Y-105850227D02*
X206547862Y-105881179D01*
X206547862Y-105881179D02*
X206300248Y-105881179D01*
X206919282Y-105602614D02*
X206950234Y-105571662D01*
X206950234Y-105571662D02*
X207012138Y-105540710D01*
X207012138Y-105540710D02*
X207166896Y-105540710D01*
X207166896Y-105540710D02*
X207228800Y-105571662D01*
X207228800Y-105571662D02*
X207259751Y-105602614D01*
X207259751Y-105602614D02*
X207290703Y-105664517D01*
X207290703Y-105664517D02*
X207290703Y-105726421D01*
X207290703Y-105726421D02*
X207259751Y-105819276D01*
X207259751Y-105819276D02*
X206888331Y-106190696D01*
X206888331Y-106190696D02*
X207290703Y-106190696D01*
G04 #@! TO.C,R30*
X204220696Y-95497847D02*
X203911179Y-95714509D01*
X204220696Y-95869268D02*
X203570710Y-95869268D01*
X203570710Y-95869268D02*
X203570710Y-95621654D01*
X203570710Y-95621654D02*
X203601662Y-95559751D01*
X203601662Y-95559751D02*
X203632614Y-95528799D01*
X203632614Y-95528799D02*
X203694517Y-95497847D01*
X203694517Y-95497847D02*
X203787372Y-95497847D01*
X203787372Y-95497847D02*
X203849276Y-95528799D01*
X203849276Y-95528799D02*
X203880227Y-95559751D01*
X203880227Y-95559751D02*
X203911179Y-95621654D01*
X203911179Y-95621654D02*
X203911179Y-95869268D01*
X203570710Y-95281185D02*
X203570710Y-94878813D01*
X203570710Y-94878813D02*
X203818324Y-95095475D01*
X203818324Y-95095475D02*
X203818324Y-95002620D01*
X203818324Y-95002620D02*
X203849276Y-94940717D01*
X203849276Y-94940717D02*
X203880227Y-94909765D01*
X203880227Y-94909765D02*
X203942131Y-94878813D01*
X203942131Y-94878813D02*
X204096889Y-94878813D01*
X204096889Y-94878813D02*
X204158793Y-94909765D01*
X204158793Y-94909765D02*
X204189745Y-94940717D01*
X204189745Y-94940717D02*
X204220696Y-95002620D01*
X204220696Y-95002620D02*
X204220696Y-95188330D01*
X204220696Y-95188330D02*
X204189745Y-95250234D01*
X204189745Y-95250234D02*
X204158793Y-95281185D01*
X203570710Y-94476441D02*
X203570710Y-94414538D01*
X203570710Y-94414538D02*
X203601662Y-94352634D01*
X203601662Y-94352634D02*
X203632614Y-94321683D01*
X203632614Y-94321683D02*
X203694517Y-94290731D01*
X203694517Y-94290731D02*
X203818324Y-94259779D01*
X203818324Y-94259779D02*
X203973083Y-94259779D01*
X203973083Y-94259779D02*
X204096889Y-94290731D01*
X204096889Y-94290731D02*
X204158793Y-94321683D01*
X204158793Y-94321683D02*
X204189745Y-94352634D01*
X204189745Y-94352634D02*
X204220696Y-94414538D01*
X204220696Y-94414538D02*
X204220696Y-94476441D01*
X204220696Y-94476441D02*
X204189745Y-94538345D01*
X204189745Y-94538345D02*
X204158793Y-94569296D01*
X204158793Y-94569296D02*
X204096889Y-94600248D01*
X204096889Y-94600248D02*
X203973083Y-94631200D01*
X203973083Y-94631200D02*
X203818324Y-94631200D01*
X203818324Y-94631200D02*
X203694517Y-94600248D01*
X203694517Y-94600248D02*
X203632614Y-94569296D01*
X203632614Y-94569296D02*
X203601662Y-94538345D01*
X203601662Y-94538345D02*
X203570710Y-94476441D01*
G04 #@! TO.C,C102*
X215698793Y-67714143D02*
X215729745Y-67745095D01*
X215729745Y-67745095D02*
X215760696Y-67837950D01*
X215760696Y-67837950D02*
X215760696Y-67899854D01*
X215760696Y-67899854D02*
X215729745Y-67992709D01*
X215729745Y-67992709D02*
X215667841Y-68054612D01*
X215667841Y-68054612D02*
X215605938Y-68085564D01*
X215605938Y-68085564D02*
X215482131Y-68116516D01*
X215482131Y-68116516D02*
X215389276Y-68116516D01*
X215389276Y-68116516D02*
X215265469Y-68085564D01*
X215265469Y-68085564D02*
X215203565Y-68054612D01*
X215203565Y-68054612D02*
X215141662Y-67992709D01*
X215141662Y-67992709D02*
X215110710Y-67899854D01*
X215110710Y-67899854D02*
X215110710Y-67837950D01*
X215110710Y-67837950D02*
X215141662Y-67745095D01*
X215141662Y-67745095D02*
X215172614Y-67714143D01*
X215760696Y-67095109D02*
X215760696Y-67466530D01*
X215760696Y-67280819D02*
X215110710Y-67280819D01*
X215110710Y-67280819D02*
X215203565Y-67342723D01*
X215203565Y-67342723D02*
X215265469Y-67404626D01*
X215265469Y-67404626D02*
X215296421Y-67466530D01*
X215110710Y-66692737D02*
X215110710Y-66630834D01*
X215110710Y-66630834D02*
X215141662Y-66568930D01*
X215141662Y-66568930D02*
X215172614Y-66537979D01*
X215172614Y-66537979D02*
X215234517Y-66507027D01*
X215234517Y-66507027D02*
X215358324Y-66476075D01*
X215358324Y-66476075D02*
X215513083Y-66476075D01*
X215513083Y-66476075D02*
X215636889Y-66507027D01*
X215636889Y-66507027D02*
X215698793Y-66537979D01*
X215698793Y-66537979D02*
X215729745Y-66568930D01*
X215729745Y-66568930D02*
X215760696Y-66630834D01*
X215760696Y-66630834D02*
X215760696Y-66692737D01*
X215760696Y-66692737D02*
X215729745Y-66754641D01*
X215729745Y-66754641D02*
X215698793Y-66785592D01*
X215698793Y-66785592D02*
X215636889Y-66816544D01*
X215636889Y-66816544D02*
X215513083Y-66847496D01*
X215513083Y-66847496D02*
X215358324Y-66847496D01*
X215358324Y-66847496D02*
X215234517Y-66816544D01*
X215234517Y-66816544D02*
X215172614Y-66785592D01*
X215172614Y-66785592D02*
X215141662Y-66754641D01*
X215141662Y-66754641D02*
X215110710Y-66692737D01*
X215172614Y-66228462D02*
X215141662Y-66197510D01*
X215141662Y-66197510D02*
X215110710Y-66135607D01*
X215110710Y-66135607D02*
X215110710Y-65980848D01*
X215110710Y-65980848D02*
X215141662Y-65918945D01*
X215141662Y-65918945D02*
X215172614Y-65887993D01*
X215172614Y-65887993D02*
X215234517Y-65857041D01*
X215234517Y-65857041D02*
X215296421Y-65857041D01*
X215296421Y-65857041D02*
X215389276Y-65887993D01*
X215389276Y-65887993D02*
X215760696Y-66259413D01*
X215760696Y-66259413D02*
X215760696Y-65857041D01*
G04 #@! TO.C,R39*
X203772152Y-118340696D02*
X203555490Y-118031179D01*
X203400731Y-118340696D02*
X203400731Y-117690710D01*
X203400731Y-117690710D02*
X203648345Y-117690710D01*
X203648345Y-117690710D02*
X203710248Y-117721662D01*
X203710248Y-117721662D02*
X203741200Y-117752614D01*
X203741200Y-117752614D02*
X203772152Y-117814517D01*
X203772152Y-117814517D02*
X203772152Y-117907372D01*
X203772152Y-117907372D02*
X203741200Y-117969276D01*
X203741200Y-117969276D02*
X203710248Y-118000227D01*
X203710248Y-118000227D02*
X203648345Y-118031179D01*
X203648345Y-118031179D02*
X203400731Y-118031179D01*
X203988814Y-117690710D02*
X204391186Y-117690710D01*
X204391186Y-117690710D02*
X204174524Y-117938324D01*
X204174524Y-117938324D02*
X204267379Y-117938324D01*
X204267379Y-117938324D02*
X204329283Y-117969276D01*
X204329283Y-117969276D02*
X204360234Y-118000227D01*
X204360234Y-118000227D02*
X204391186Y-118062131D01*
X204391186Y-118062131D02*
X204391186Y-118216889D01*
X204391186Y-118216889D02*
X204360234Y-118278793D01*
X204360234Y-118278793D02*
X204329283Y-118309745D01*
X204329283Y-118309745D02*
X204267379Y-118340696D01*
X204267379Y-118340696D02*
X204081669Y-118340696D01*
X204081669Y-118340696D02*
X204019765Y-118309745D01*
X204019765Y-118309745D02*
X203988814Y-118278793D01*
X204700703Y-118340696D02*
X204824510Y-118340696D01*
X204824510Y-118340696D02*
X204886413Y-118309745D01*
X204886413Y-118309745D02*
X204917365Y-118278793D01*
X204917365Y-118278793D02*
X204979268Y-118185938D01*
X204979268Y-118185938D02*
X205010220Y-118062131D01*
X205010220Y-118062131D02*
X205010220Y-117814517D01*
X205010220Y-117814517D02*
X204979268Y-117752614D01*
X204979268Y-117752614D02*
X204948317Y-117721662D01*
X204948317Y-117721662D02*
X204886413Y-117690710D01*
X204886413Y-117690710D02*
X204762606Y-117690710D01*
X204762606Y-117690710D02*
X204700703Y-117721662D01*
X204700703Y-117721662D02*
X204669751Y-117752614D01*
X204669751Y-117752614D02*
X204638799Y-117814517D01*
X204638799Y-117814517D02*
X204638799Y-117969276D01*
X204638799Y-117969276D02*
X204669751Y-118031179D01*
X204669751Y-118031179D02*
X204700703Y-118062131D01*
X204700703Y-118062131D02*
X204762606Y-118093083D01*
X204762606Y-118093083D02*
X204886413Y-118093083D01*
X204886413Y-118093083D02*
X204948317Y-118062131D01*
X204948317Y-118062131D02*
X204979268Y-118031179D01*
X204979268Y-118031179D02*
X205010220Y-117969276D01*
G04 #@! TO.C,C94*
X208618793Y-57797847D02*
X208649745Y-57828799D01*
X208649745Y-57828799D02*
X208680696Y-57921654D01*
X208680696Y-57921654D02*
X208680696Y-57983558D01*
X208680696Y-57983558D02*
X208649745Y-58076413D01*
X208649745Y-58076413D02*
X208587841Y-58138316D01*
X208587841Y-58138316D02*
X208525938Y-58169268D01*
X208525938Y-58169268D02*
X208402131Y-58200220D01*
X208402131Y-58200220D02*
X208309276Y-58200220D01*
X208309276Y-58200220D02*
X208185469Y-58169268D01*
X208185469Y-58169268D02*
X208123565Y-58138316D01*
X208123565Y-58138316D02*
X208061662Y-58076413D01*
X208061662Y-58076413D02*
X208030710Y-57983558D01*
X208030710Y-57983558D02*
X208030710Y-57921654D01*
X208030710Y-57921654D02*
X208061662Y-57828799D01*
X208061662Y-57828799D02*
X208092614Y-57797847D01*
X208680696Y-57488330D02*
X208680696Y-57364523D01*
X208680696Y-57364523D02*
X208649745Y-57302620D01*
X208649745Y-57302620D02*
X208618793Y-57271668D01*
X208618793Y-57271668D02*
X208525938Y-57209765D01*
X208525938Y-57209765D02*
X208402131Y-57178813D01*
X208402131Y-57178813D02*
X208154517Y-57178813D01*
X208154517Y-57178813D02*
X208092614Y-57209765D01*
X208092614Y-57209765D02*
X208061662Y-57240717D01*
X208061662Y-57240717D02*
X208030710Y-57302620D01*
X208030710Y-57302620D02*
X208030710Y-57426427D01*
X208030710Y-57426427D02*
X208061662Y-57488330D01*
X208061662Y-57488330D02*
X208092614Y-57519282D01*
X208092614Y-57519282D02*
X208154517Y-57550234D01*
X208154517Y-57550234D02*
X208309276Y-57550234D01*
X208309276Y-57550234D02*
X208371179Y-57519282D01*
X208371179Y-57519282D02*
X208402131Y-57488330D01*
X208402131Y-57488330D02*
X208433083Y-57426427D01*
X208433083Y-57426427D02*
X208433083Y-57302620D01*
X208433083Y-57302620D02*
X208402131Y-57240717D01*
X208402131Y-57240717D02*
X208371179Y-57209765D01*
X208371179Y-57209765D02*
X208309276Y-57178813D01*
X208247372Y-56621683D02*
X208680696Y-56621683D01*
X207999759Y-56776441D02*
X208464034Y-56931200D01*
X208464034Y-56931200D02*
X208464034Y-56528827D01*
G04 #@! TO.C,C15*
X200758793Y-97117847D02*
X200789745Y-97148799D01*
X200789745Y-97148799D02*
X200820696Y-97241654D01*
X200820696Y-97241654D02*
X200820696Y-97303558D01*
X200820696Y-97303558D02*
X200789745Y-97396413D01*
X200789745Y-97396413D02*
X200727841Y-97458316D01*
X200727841Y-97458316D02*
X200665938Y-97489268D01*
X200665938Y-97489268D02*
X200542131Y-97520220D01*
X200542131Y-97520220D02*
X200449276Y-97520220D01*
X200449276Y-97520220D02*
X200325469Y-97489268D01*
X200325469Y-97489268D02*
X200263565Y-97458316D01*
X200263565Y-97458316D02*
X200201662Y-97396413D01*
X200201662Y-97396413D02*
X200170710Y-97303558D01*
X200170710Y-97303558D02*
X200170710Y-97241654D01*
X200170710Y-97241654D02*
X200201662Y-97148799D01*
X200201662Y-97148799D02*
X200232614Y-97117847D01*
X200820696Y-96498813D02*
X200820696Y-96870234D01*
X200820696Y-96684523D02*
X200170710Y-96684523D01*
X200170710Y-96684523D02*
X200263565Y-96746427D01*
X200263565Y-96746427D02*
X200325469Y-96808330D01*
X200325469Y-96808330D02*
X200356421Y-96870234D01*
X200170710Y-95910731D02*
X200170710Y-96220248D01*
X200170710Y-96220248D02*
X200480227Y-96251200D01*
X200480227Y-96251200D02*
X200449276Y-96220248D01*
X200449276Y-96220248D02*
X200418324Y-96158345D01*
X200418324Y-96158345D02*
X200418324Y-96003586D01*
X200418324Y-96003586D02*
X200449276Y-95941683D01*
X200449276Y-95941683D02*
X200480227Y-95910731D01*
X200480227Y-95910731D02*
X200542131Y-95879779D01*
X200542131Y-95879779D02*
X200696889Y-95879779D01*
X200696889Y-95879779D02*
X200758793Y-95910731D01*
X200758793Y-95910731D02*
X200789745Y-95941683D01*
X200789745Y-95941683D02*
X200820696Y-96003586D01*
X200820696Y-96003586D02*
X200820696Y-96158345D01*
X200820696Y-96158345D02*
X200789745Y-96220248D01*
X200789745Y-96220248D02*
X200758793Y-96251200D01*
G04 #@! TO.C,C14*
X209118793Y-88677847D02*
X209149745Y-88708799D01*
X209149745Y-88708799D02*
X209180696Y-88801654D01*
X209180696Y-88801654D02*
X209180696Y-88863558D01*
X209180696Y-88863558D02*
X209149745Y-88956413D01*
X209149745Y-88956413D02*
X209087841Y-89018316D01*
X209087841Y-89018316D02*
X209025938Y-89049268D01*
X209025938Y-89049268D02*
X208902131Y-89080220D01*
X208902131Y-89080220D02*
X208809276Y-89080220D01*
X208809276Y-89080220D02*
X208685469Y-89049268D01*
X208685469Y-89049268D02*
X208623565Y-89018316D01*
X208623565Y-89018316D02*
X208561662Y-88956413D01*
X208561662Y-88956413D02*
X208530710Y-88863558D01*
X208530710Y-88863558D02*
X208530710Y-88801654D01*
X208530710Y-88801654D02*
X208561662Y-88708799D01*
X208561662Y-88708799D02*
X208592614Y-88677847D01*
X209180696Y-88058813D02*
X209180696Y-88430234D01*
X209180696Y-88244523D02*
X208530710Y-88244523D01*
X208530710Y-88244523D02*
X208623565Y-88306427D01*
X208623565Y-88306427D02*
X208685469Y-88368330D01*
X208685469Y-88368330D02*
X208716421Y-88430234D01*
X208747372Y-87501683D02*
X209180696Y-87501683D01*
X208499759Y-87656441D02*
X208964034Y-87811200D01*
X208964034Y-87811200D02*
X208964034Y-87408827D01*
G04 #@! TO.C,JC1*
X225358345Y-122850710D02*
X225358345Y-123314986D01*
X225358345Y-123314986D02*
X225327394Y-123407841D01*
X225327394Y-123407841D02*
X225265490Y-123469745D01*
X225265490Y-123469745D02*
X225172635Y-123500696D01*
X225172635Y-123500696D02*
X225110732Y-123500696D01*
X226039283Y-123438793D02*
X226008331Y-123469745D01*
X226008331Y-123469745D02*
X225915476Y-123500696D01*
X225915476Y-123500696D02*
X225853572Y-123500696D01*
X225853572Y-123500696D02*
X225760717Y-123469745D01*
X225760717Y-123469745D02*
X225698814Y-123407841D01*
X225698814Y-123407841D02*
X225667862Y-123345938D01*
X225667862Y-123345938D02*
X225636910Y-123222131D01*
X225636910Y-123222131D02*
X225636910Y-123129276D01*
X225636910Y-123129276D02*
X225667862Y-123005469D01*
X225667862Y-123005469D02*
X225698814Y-122943565D01*
X225698814Y-122943565D02*
X225760717Y-122881662D01*
X225760717Y-122881662D02*
X225853572Y-122850710D01*
X225853572Y-122850710D02*
X225915476Y-122850710D01*
X225915476Y-122850710D02*
X226008331Y-122881662D01*
X226008331Y-122881662D02*
X226039283Y-122912614D01*
X226658317Y-123500696D02*
X226286896Y-123500696D01*
X226472607Y-123500696D02*
X226472607Y-122850710D01*
X226472607Y-122850710D02*
X226410703Y-122943565D01*
X226410703Y-122943565D02*
X226348800Y-123005469D01*
X226348800Y-123005469D02*
X226286896Y-123036421D01*
G04 #@! TO.C,U13*
X213435255Y-90040710D02*
X213435255Y-90566889D01*
X213435255Y-90566889D02*
X213466207Y-90628793D01*
X213466207Y-90628793D02*
X213497159Y-90659745D01*
X213497159Y-90659745D02*
X213559062Y-90690696D01*
X213559062Y-90690696D02*
X213682869Y-90690696D01*
X213682869Y-90690696D02*
X213744772Y-90659745D01*
X213744772Y-90659745D02*
X213775724Y-90628793D01*
X213775724Y-90628793D02*
X213806676Y-90566889D01*
X213806676Y-90566889D02*
X213806676Y-90040710D01*
X214456662Y-90690696D02*
X214085241Y-90690696D01*
X214270952Y-90690696D02*
X214270952Y-90040710D01*
X214270952Y-90040710D02*
X214209048Y-90133565D01*
X214209048Y-90133565D02*
X214147145Y-90195469D01*
X214147145Y-90195469D02*
X214085241Y-90226421D01*
X214673324Y-90040710D02*
X215075696Y-90040710D01*
X215075696Y-90040710D02*
X214859034Y-90288324D01*
X214859034Y-90288324D02*
X214951889Y-90288324D01*
X214951889Y-90288324D02*
X215013793Y-90319276D01*
X215013793Y-90319276D02*
X215044744Y-90350227D01*
X215044744Y-90350227D02*
X215075696Y-90412131D01*
X215075696Y-90412131D02*
X215075696Y-90566889D01*
X215075696Y-90566889D02*
X215044744Y-90628793D01*
X215044744Y-90628793D02*
X215013793Y-90659745D01*
X215013793Y-90659745D02*
X214951889Y-90690696D01*
X214951889Y-90690696D02*
X214766179Y-90690696D01*
X214766179Y-90690696D02*
X214704275Y-90659745D01*
X214704275Y-90659745D02*
X214673324Y-90628793D01*
G04 #@! TO.C,C12*
X217187152Y-81808793D02*
X217156200Y-81839745D01*
X217156200Y-81839745D02*
X217063345Y-81870696D01*
X217063345Y-81870696D02*
X217001441Y-81870696D01*
X217001441Y-81870696D02*
X216908586Y-81839745D01*
X216908586Y-81839745D02*
X216846683Y-81777841D01*
X216846683Y-81777841D02*
X216815731Y-81715938D01*
X216815731Y-81715938D02*
X216784779Y-81592131D01*
X216784779Y-81592131D02*
X216784779Y-81499276D01*
X216784779Y-81499276D02*
X216815731Y-81375469D01*
X216815731Y-81375469D02*
X216846683Y-81313565D01*
X216846683Y-81313565D02*
X216908586Y-81251662D01*
X216908586Y-81251662D02*
X217001441Y-81220710D01*
X217001441Y-81220710D02*
X217063345Y-81220710D01*
X217063345Y-81220710D02*
X217156200Y-81251662D01*
X217156200Y-81251662D02*
X217187152Y-81282614D01*
X217806186Y-81870696D02*
X217434765Y-81870696D01*
X217620476Y-81870696D02*
X217620476Y-81220710D01*
X217620476Y-81220710D02*
X217558572Y-81313565D01*
X217558572Y-81313565D02*
X217496669Y-81375469D01*
X217496669Y-81375469D02*
X217434765Y-81406421D01*
X218053799Y-81282614D02*
X218084751Y-81251662D01*
X218084751Y-81251662D02*
X218146655Y-81220710D01*
X218146655Y-81220710D02*
X218301413Y-81220710D01*
X218301413Y-81220710D02*
X218363317Y-81251662D01*
X218363317Y-81251662D02*
X218394268Y-81282614D01*
X218394268Y-81282614D02*
X218425220Y-81344517D01*
X218425220Y-81344517D02*
X218425220Y-81406421D01*
X218425220Y-81406421D02*
X218394268Y-81499276D01*
X218394268Y-81499276D02*
X218022848Y-81870696D01*
X218022848Y-81870696D02*
X218425220Y-81870696D01*
G04 #@! TO.C,U14*
X203549885Y-60044567D02*
X203549885Y-60570746D01*
X203549885Y-60570746D02*
X203580837Y-60632650D01*
X203580837Y-60632650D02*
X203611789Y-60663602D01*
X203611789Y-60663602D02*
X203673692Y-60694553D01*
X203673692Y-60694553D02*
X203797499Y-60694553D01*
X203797499Y-60694553D02*
X203859402Y-60663602D01*
X203859402Y-60663602D02*
X203890354Y-60632650D01*
X203890354Y-60632650D02*
X203921306Y-60570746D01*
X203921306Y-60570746D02*
X203921306Y-60044567D01*
X204571292Y-60694553D02*
X204199871Y-60694553D01*
X204385582Y-60694553D02*
X204385582Y-60044567D01*
X204385582Y-60044567D02*
X204323678Y-60137422D01*
X204323678Y-60137422D02*
X204261775Y-60199326D01*
X204261775Y-60199326D02*
X204199871Y-60230278D01*
X205128423Y-60261229D02*
X205128423Y-60694553D01*
X204973664Y-60013616D02*
X204818905Y-60477891D01*
X204818905Y-60477891D02*
X205221278Y-60477891D01*
G04 #@! TO.C,C40*
X214888872Y-76894992D02*
X214857920Y-76925944D01*
X214857920Y-76925944D02*
X214765065Y-76956895D01*
X214765065Y-76956895D02*
X214703161Y-76956895D01*
X214703161Y-76956895D02*
X214610306Y-76925944D01*
X214610306Y-76925944D02*
X214548403Y-76864040D01*
X214548403Y-76864040D02*
X214517451Y-76802137D01*
X214517451Y-76802137D02*
X214486499Y-76678330D01*
X214486499Y-76678330D02*
X214486499Y-76585475D01*
X214486499Y-76585475D02*
X214517451Y-76461668D01*
X214517451Y-76461668D02*
X214548403Y-76399764D01*
X214548403Y-76399764D02*
X214610306Y-76337861D01*
X214610306Y-76337861D02*
X214703161Y-76306909D01*
X214703161Y-76306909D02*
X214765065Y-76306909D01*
X214765065Y-76306909D02*
X214857920Y-76337861D01*
X214857920Y-76337861D02*
X214888872Y-76368813D01*
X215446003Y-76523571D02*
X215446003Y-76956895D01*
X215291244Y-76275958D02*
X215136485Y-76740233D01*
X215136485Y-76740233D02*
X215538858Y-76740233D01*
X215910278Y-76306909D02*
X215972181Y-76306909D01*
X215972181Y-76306909D02*
X216034085Y-76337861D01*
X216034085Y-76337861D02*
X216065037Y-76368813D01*
X216065037Y-76368813D02*
X216095988Y-76430716D01*
X216095988Y-76430716D02*
X216126940Y-76554523D01*
X216126940Y-76554523D02*
X216126940Y-76709282D01*
X216126940Y-76709282D02*
X216095988Y-76833088D01*
X216095988Y-76833088D02*
X216065037Y-76894992D01*
X216065037Y-76894992D02*
X216034085Y-76925944D01*
X216034085Y-76925944D02*
X215972181Y-76956895D01*
X215972181Y-76956895D02*
X215910278Y-76956895D01*
X215910278Y-76956895D02*
X215848375Y-76925944D01*
X215848375Y-76925944D02*
X215817423Y-76894992D01*
X215817423Y-76894992D02*
X215786471Y-76833088D01*
X215786471Y-76833088D02*
X215755519Y-76709282D01*
X215755519Y-76709282D02*
X215755519Y-76554523D01*
X215755519Y-76554523D02*
X215786471Y-76430716D01*
X215786471Y-76430716D02*
X215817423Y-76368813D01*
X215817423Y-76368813D02*
X215848375Y-76337861D01*
X215848375Y-76337861D02*
X215910278Y-76306909D01*
G04 #@! TO.C,R1*
X209511669Y-108540696D02*
X209295007Y-108231179D01*
X209140248Y-108540696D02*
X209140248Y-107890710D01*
X209140248Y-107890710D02*
X209387862Y-107890710D01*
X209387862Y-107890710D02*
X209449765Y-107921662D01*
X209449765Y-107921662D02*
X209480717Y-107952614D01*
X209480717Y-107952614D02*
X209511669Y-108014517D01*
X209511669Y-108014517D02*
X209511669Y-108107372D01*
X209511669Y-108107372D02*
X209480717Y-108169276D01*
X209480717Y-108169276D02*
X209449765Y-108200227D01*
X209449765Y-108200227D02*
X209387862Y-108231179D01*
X209387862Y-108231179D02*
X209140248Y-108231179D01*
X210130703Y-108540696D02*
X209759282Y-108540696D01*
X209944993Y-108540696D02*
X209944993Y-107890710D01*
X209944993Y-107890710D02*
X209883089Y-107983565D01*
X209883089Y-107983565D02*
X209821186Y-108045469D01*
X209821186Y-108045469D02*
X209759282Y-108076421D01*
G04 #@! TO.C,C29*
X220492152Y-78948793D02*
X220461200Y-78979745D01*
X220461200Y-78979745D02*
X220368345Y-79010696D01*
X220368345Y-79010696D02*
X220306441Y-79010696D01*
X220306441Y-79010696D02*
X220213586Y-78979745D01*
X220213586Y-78979745D02*
X220151683Y-78917841D01*
X220151683Y-78917841D02*
X220120731Y-78855938D01*
X220120731Y-78855938D02*
X220089779Y-78732131D01*
X220089779Y-78732131D02*
X220089779Y-78639276D01*
X220089779Y-78639276D02*
X220120731Y-78515469D01*
X220120731Y-78515469D02*
X220151683Y-78453565D01*
X220151683Y-78453565D02*
X220213586Y-78391662D01*
X220213586Y-78391662D02*
X220306441Y-78360710D01*
X220306441Y-78360710D02*
X220368345Y-78360710D01*
X220368345Y-78360710D02*
X220461200Y-78391662D01*
X220461200Y-78391662D02*
X220492152Y-78422614D01*
X220739765Y-78422614D02*
X220770717Y-78391662D01*
X220770717Y-78391662D02*
X220832621Y-78360710D01*
X220832621Y-78360710D02*
X220987379Y-78360710D01*
X220987379Y-78360710D02*
X221049283Y-78391662D01*
X221049283Y-78391662D02*
X221080234Y-78422614D01*
X221080234Y-78422614D02*
X221111186Y-78484517D01*
X221111186Y-78484517D02*
X221111186Y-78546421D01*
X221111186Y-78546421D02*
X221080234Y-78639276D01*
X221080234Y-78639276D02*
X220708814Y-79010696D01*
X220708814Y-79010696D02*
X221111186Y-79010696D01*
X221420703Y-79010696D02*
X221544510Y-79010696D01*
X221544510Y-79010696D02*
X221606413Y-78979745D01*
X221606413Y-78979745D02*
X221637365Y-78948793D01*
X221637365Y-78948793D02*
X221699268Y-78855938D01*
X221699268Y-78855938D02*
X221730220Y-78732131D01*
X221730220Y-78732131D02*
X221730220Y-78484517D01*
X221730220Y-78484517D02*
X221699268Y-78422614D01*
X221699268Y-78422614D02*
X221668317Y-78391662D01*
X221668317Y-78391662D02*
X221606413Y-78360710D01*
X221606413Y-78360710D02*
X221482606Y-78360710D01*
X221482606Y-78360710D02*
X221420703Y-78391662D01*
X221420703Y-78391662D02*
X221389751Y-78422614D01*
X221389751Y-78422614D02*
X221358799Y-78484517D01*
X221358799Y-78484517D02*
X221358799Y-78639276D01*
X221358799Y-78639276D02*
X221389751Y-78701179D01*
X221389751Y-78701179D02*
X221420703Y-78732131D01*
X221420703Y-78732131D02*
X221482606Y-78763083D01*
X221482606Y-78763083D02*
X221606413Y-78763083D01*
X221606413Y-78763083D02*
X221668317Y-78732131D01*
X221668317Y-78732131D02*
X221699268Y-78701179D01*
X221699268Y-78701179D02*
X221730220Y-78639276D01*
G04 #@! TO.C,C82*
X202868793Y-65407847D02*
X202899745Y-65438799D01*
X202899745Y-65438799D02*
X202930696Y-65531654D01*
X202930696Y-65531654D02*
X202930696Y-65593558D01*
X202930696Y-65593558D02*
X202899745Y-65686413D01*
X202899745Y-65686413D02*
X202837841Y-65748316D01*
X202837841Y-65748316D02*
X202775938Y-65779268D01*
X202775938Y-65779268D02*
X202652131Y-65810220D01*
X202652131Y-65810220D02*
X202559276Y-65810220D01*
X202559276Y-65810220D02*
X202435469Y-65779268D01*
X202435469Y-65779268D02*
X202373565Y-65748316D01*
X202373565Y-65748316D02*
X202311662Y-65686413D01*
X202311662Y-65686413D02*
X202280710Y-65593558D01*
X202280710Y-65593558D02*
X202280710Y-65531654D01*
X202280710Y-65531654D02*
X202311662Y-65438799D01*
X202311662Y-65438799D02*
X202342614Y-65407847D01*
X202559276Y-65036427D02*
X202528324Y-65098330D01*
X202528324Y-65098330D02*
X202497372Y-65129282D01*
X202497372Y-65129282D02*
X202435469Y-65160234D01*
X202435469Y-65160234D02*
X202404517Y-65160234D01*
X202404517Y-65160234D02*
X202342614Y-65129282D01*
X202342614Y-65129282D02*
X202311662Y-65098330D01*
X202311662Y-65098330D02*
X202280710Y-65036427D01*
X202280710Y-65036427D02*
X202280710Y-64912620D01*
X202280710Y-64912620D02*
X202311662Y-64850717D01*
X202311662Y-64850717D02*
X202342614Y-64819765D01*
X202342614Y-64819765D02*
X202404517Y-64788813D01*
X202404517Y-64788813D02*
X202435469Y-64788813D01*
X202435469Y-64788813D02*
X202497372Y-64819765D01*
X202497372Y-64819765D02*
X202528324Y-64850717D01*
X202528324Y-64850717D02*
X202559276Y-64912620D01*
X202559276Y-64912620D02*
X202559276Y-65036427D01*
X202559276Y-65036427D02*
X202590227Y-65098330D01*
X202590227Y-65098330D02*
X202621179Y-65129282D01*
X202621179Y-65129282D02*
X202683083Y-65160234D01*
X202683083Y-65160234D02*
X202806889Y-65160234D01*
X202806889Y-65160234D02*
X202868793Y-65129282D01*
X202868793Y-65129282D02*
X202899745Y-65098330D01*
X202899745Y-65098330D02*
X202930696Y-65036427D01*
X202930696Y-65036427D02*
X202930696Y-64912620D01*
X202930696Y-64912620D02*
X202899745Y-64850717D01*
X202899745Y-64850717D02*
X202868793Y-64819765D01*
X202868793Y-64819765D02*
X202806889Y-64788813D01*
X202806889Y-64788813D02*
X202683083Y-64788813D01*
X202683083Y-64788813D02*
X202621179Y-64819765D01*
X202621179Y-64819765D02*
X202590227Y-64850717D01*
X202590227Y-64850717D02*
X202559276Y-64912620D01*
X202342614Y-64541200D02*
X202311662Y-64510248D01*
X202311662Y-64510248D02*
X202280710Y-64448345D01*
X202280710Y-64448345D02*
X202280710Y-64293586D01*
X202280710Y-64293586D02*
X202311662Y-64231683D01*
X202311662Y-64231683D02*
X202342614Y-64200731D01*
X202342614Y-64200731D02*
X202404517Y-64169779D01*
X202404517Y-64169779D02*
X202466421Y-64169779D01*
X202466421Y-64169779D02*
X202559276Y-64200731D01*
X202559276Y-64200731D02*
X202930696Y-64572151D01*
X202930696Y-64572151D02*
X202930696Y-64169779D01*
G04 #@! TO.C,U1*
X205157272Y-119171643D02*
X205157272Y-119697822D01*
X205157272Y-119697822D02*
X205188224Y-119759726D01*
X205188224Y-119759726D02*
X205219176Y-119790678D01*
X205219176Y-119790678D02*
X205281079Y-119821629D01*
X205281079Y-119821629D02*
X205404886Y-119821629D01*
X205404886Y-119821629D02*
X205466789Y-119790678D01*
X205466789Y-119790678D02*
X205497741Y-119759726D01*
X205497741Y-119759726D02*
X205528693Y-119697822D01*
X205528693Y-119697822D02*
X205528693Y-119171643D01*
X206178679Y-119821629D02*
X205807258Y-119821629D01*
X205992969Y-119821629D02*
X205992969Y-119171643D01*
X205992969Y-119171643D02*
X205931065Y-119264498D01*
X205931065Y-119264498D02*
X205869162Y-119326402D01*
X205869162Y-119326402D02*
X205807258Y-119357354D01*
G04 #@! TO.C,C1*
X203968793Y-121728330D02*
X203999745Y-121759282D01*
X203999745Y-121759282D02*
X204030696Y-121852137D01*
X204030696Y-121852137D02*
X204030696Y-121914041D01*
X204030696Y-121914041D02*
X203999745Y-122006896D01*
X203999745Y-122006896D02*
X203937841Y-122068799D01*
X203937841Y-122068799D02*
X203875938Y-122099751D01*
X203875938Y-122099751D02*
X203752131Y-122130703D01*
X203752131Y-122130703D02*
X203659276Y-122130703D01*
X203659276Y-122130703D02*
X203535469Y-122099751D01*
X203535469Y-122099751D02*
X203473565Y-122068799D01*
X203473565Y-122068799D02*
X203411662Y-122006896D01*
X203411662Y-122006896D02*
X203380710Y-121914041D01*
X203380710Y-121914041D02*
X203380710Y-121852137D01*
X203380710Y-121852137D02*
X203411662Y-121759282D01*
X203411662Y-121759282D02*
X203442614Y-121728330D01*
X204030696Y-121109296D02*
X204030696Y-121480717D01*
X204030696Y-121295006D02*
X203380710Y-121295006D01*
X203380710Y-121295006D02*
X203473565Y-121356910D01*
X203473565Y-121356910D02*
X203535469Y-121418813D01*
X203535469Y-121418813D02*
X203566421Y-121480717D01*
G04 #@! TO.C,C99*
X213818793Y-64187847D02*
X213849745Y-64218799D01*
X213849745Y-64218799D02*
X213880696Y-64311654D01*
X213880696Y-64311654D02*
X213880696Y-64373558D01*
X213880696Y-64373558D02*
X213849745Y-64466413D01*
X213849745Y-64466413D02*
X213787841Y-64528316D01*
X213787841Y-64528316D02*
X213725938Y-64559268D01*
X213725938Y-64559268D02*
X213602131Y-64590220D01*
X213602131Y-64590220D02*
X213509276Y-64590220D01*
X213509276Y-64590220D02*
X213385469Y-64559268D01*
X213385469Y-64559268D02*
X213323565Y-64528316D01*
X213323565Y-64528316D02*
X213261662Y-64466413D01*
X213261662Y-64466413D02*
X213230710Y-64373558D01*
X213230710Y-64373558D02*
X213230710Y-64311654D01*
X213230710Y-64311654D02*
X213261662Y-64218799D01*
X213261662Y-64218799D02*
X213292614Y-64187847D01*
X213880696Y-63878330D02*
X213880696Y-63754523D01*
X213880696Y-63754523D02*
X213849745Y-63692620D01*
X213849745Y-63692620D02*
X213818793Y-63661668D01*
X213818793Y-63661668D02*
X213725938Y-63599765D01*
X213725938Y-63599765D02*
X213602131Y-63568813D01*
X213602131Y-63568813D02*
X213354517Y-63568813D01*
X213354517Y-63568813D02*
X213292614Y-63599765D01*
X213292614Y-63599765D02*
X213261662Y-63630717D01*
X213261662Y-63630717D02*
X213230710Y-63692620D01*
X213230710Y-63692620D02*
X213230710Y-63816427D01*
X213230710Y-63816427D02*
X213261662Y-63878330D01*
X213261662Y-63878330D02*
X213292614Y-63909282D01*
X213292614Y-63909282D02*
X213354517Y-63940234D01*
X213354517Y-63940234D02*
X213509276Y-63940234D01*
X213509276Y-63940234D02*
X213571179Y-63909282D01*
X213571179Y-63909282D02*
X213602131Y-63878330D01*
X213602131Y-63878330D02*
X213633083Y-63816427D01*
X213633083Y-63816427D02*
X213633083Y-63692620D01*
X213633083Y-63692620D02*
X213602131Y-63630717D01*
X213602131Y-63630717D02*
X213571179Y-63599765D01*
X213571179Y-63599765D02*
X213509276Y-63568813D01*
X213880696Y-63259296D02*
X213880696Y-63135489D01*
X213880696Y-63135489D02*
X213849745Y-63073586D01*
X213849745Y-63073586D02*
X213818793Y-63042634D01*
X213818793Y-63042634D02*
X213725938Y-62980731D01*
X213725938Y-62980731D02*
X213602131Y-62949779D01*
X213602131Y-62949779D02*
X213354517Y-62949779D01*
X213354517Y-62949779D02*
X213292614Y-62980731D01*
X213292614Y-62980731D02*
X213261662Y-63011683D01*
X213261662Y-63011683D02*
X213230710Y-63073586D01*
X213230710Y-63073586D02*
X213230710Y-63197393D01*
X213230710Y-63197393D02*
X213261662Y-63259296D01*
X213261662Y-63259296D02*
X213292614Y-63290248D01*
X213292614Y-63290248D02*
X213354517Y-63321200D01*
X213354517Y-63321200D02*
X213509276Y-63321200D01*
X213509276Y-63321200D02*
X213571179Y-63290248D01*
X213571179Y-63290248D02*
X213602131Y-63259296D01*
X213602131Y-63259296D02*
X213633083Y-63197393D01*
X213633083Y-63197393D02*
X213633083Y-63073586D01*
X213633083Y-63073586D02*
X213602131Y-63011683D01*
X213602131Y-63011683D02*
X213571179Y-62980731D01*
X213571179Y-62980731D02*
X213509276Y-62949779D01*
G04 #@! TO.C,C21*
X196442152Y-91118793D02*
X196411200Y-91149745D01*
X196411200Y-91149745D02*
X196318345Y-91180696D01*
X196318345Y-91180696D02*
X196256441Y-91180696D01*
X196256441Y-91180696D02*
X196163586Y-91149745D01*
X196163586Y-91149745D02*
X196101683Y-91087841D01*
X196101683Y-91087841D02*
X196070731Y-91025938D01*
X196070731Y-91025938D02*
X196039779Y-90902131D01*
X196039779Y-90902131D02*
X196039779Y-90809276D01*
X196039779Y-90809276D02*
X196070731Y-90685469D01*
X196070731Y-90685469D02*
X196101683Y-90623565D01*
X196101683Y-90623565D02*
X196163586Y-90561662D01*
X196163586Y-90561662D02*
X196256441Y-90530710D01*
X196256441Y-90530710D02*
X196318345Y-90530710D01*
X196318345Y-90530710D02*
X196411200Y-90561662D01*
X196411200Y-90561662D02*
X196442152Y-90592614D01*
X196689765Y-90592614D02*
X196720717Y-90561662D01*
X196720717Y-90561662D02*
X196782621Y-90530710D01*
X196782621Y-90530710D02*
X196937379Y-90530710D01*
X196937379Y-90530710D02*
X196999283Y-90561662D01*
X196999283Y-90561662D02*
X197030234Y-90592614D01*
X197030234Y-90592614D02*
X197061186Y-90654517D01*
X197061186Y-90654517D02*
X197061186Y-90716421D01*
X197061186Y-90716421D02*
X197030234Y-90809276D01*
X197030234Y-90809276D02*
X196658814Y-91180696D01*
X196658814Y-91180696D02*
X197061186Y-91180696D01*
X197680220Y-91180696D02*
X197308799Y-91180696D01*
X197494510Y-91180696D02*
X197494510Y-90530710D01*
X197494510Y-90530710D02*
X197432606Y-90623565D01*
X197432606Y-90623565D02*
X197370703Y-90685469D01*
X197370703Y-90685469D02*
X197308799Y-90716421D01*
G04 #@! TO.C,C87*
X209878793Y-57797847D02*
X209909745Y-57828799D01*
X209909745Y-57828799D02*
X209940696Y-57921654D01*
X209940696Y-57921654D02*
X209940696Y-57983558D01*
X209940696Y-57983558D02*
X209909745Y-58076413D01*
X209909745Y-58076413D02*
X209847841Y-58138316D01*
X209847841Y-58138316D02*
X209785938Y-58169268D01*
X209785938Y-58169268D02*
X209662131Y-58200220D01*
X209662131Y-58200220D02*
X209569276Y-58200220D01*
X209569276Y-58200220D02*
X209445469Y-58169268D01*
X209445469Y-58169268D02*
X209383565Y-58138316D01*
X209383565Y-58138316D02*
X209321662Y-58076413D01*
X209321662Y-58076413D02*
X209290710Y-57983558D01*
X209290710Y-57983558D02*
X209290710Y-57921654D01*
X209290710Y-57921654D02*
X209321662Y-57828799D01*
X209321662Y-57828799D02*
X209352614Y-57797847D01*
X209569276Y-57426427D02*
X209538324Y-57488330D01*
X209538324Y-57488330D02*
X209507372Y-57519282D01*
X209507372Y-57519282D02*
X209445469Y-57550234D01*
X209445469Y-57550234D02*
X209414517Y-57550234D01*
X209414517Y-57550234D02*
X209352614Y-57519282D01*
X209352614Y-57519282D02*
X209321662Y-57488330D01*
X209321662Y-57488330D02*
X209290710Y-57426427D01*
X209290710Y-57426427D02*
X209290710Y-57302620D01*
X209290710Y-57302620D02*
X209321662Y-57240717D01*
X209321662Y-57240717D02*
X209352614Y-57209765D01*
X209352614Y-57209765D02*
X209414517Y-57178813D01*
X209414517Y-57178813D02*
X209445469Y-57178813D01*
X209445469Y-57178813D02*
X209507372Y-57209765D01*
X209507372Y-57209765D02*
X209538324Y-57240717D01*
X209538324Y-57240717D02*
X209569276Y-57302620D01*
X209569276Y-57302620D02*
X209569276Y-57426427D01*
X209569276Y-57426427D02*
X209600227Y-57488330D01*
X209600227Y-57488330D02*
X209631179Y-57519282D01*
X209631179Y-57519282D02*
X209693083Y-57550234D01*
X209693083Y-57550234D02*
X209816889Y-57550234D01*
X209816889Y-57550234D02*
X209878793Y-57519282D01*
X209878793Y-57519282D02*
X209909745Y-57488330D01*
X209909745Y-57488330D02*
X209940696Y-57426427D01*
X209940696Y-57426427D02*
X209940696Y-57302620D01*
X209940696Y-57302620D02*
X209909745Y-57240717D01*
X209909745Y-57240717D02*
X209878793Y-57209765D01*
X209878793Y-57209765D02*
X209816889Y-57178813D01*
X209816889Y-57178813D02*
X209693083Y-57178813D01*
X209693083Y-57178813D02*
X209631179Y-57209765D01*
X209631179Y-57209765D02*
X209600227Y-57240717D01*
X209600227Y-57240717D02*
X209569276Y-57302620D01*
X209290710Y-56962151D02*
X209290710Y-56528827D01*
X209290710Y-56528827D02*
X209940696Y-56807393D01*
G04 #@! TO.C,JD1*
X226148345Y-70540710D02*
X226148345Y-71004986D01*
X226148345Y-71004986D02*
X226117394Y-71097841D01*
X226117394Y-71097841D02*
X226055490Y-71159745D01*
X226055490Y-71159745D02*
X225962635Y-71190696D01*
X225962635Y-71190696D02*
X225900732Y-71190696D01*
X226457862Y-71190696D02*
X226457862Y-70540710D01*
X226457862Y-70540710D02*
X226612621Y-70540710D01*
X226612621Y-70540710D02*
X226705476Y-70571662D01*
X226705476Y-70571662D02*
X226767379Y-70633565D01*
X226767379Y-70633565D02*
X226798331Y-70695469D01*
X226798331Y-70695469D02*
X226829283Y-70819276D01*
X226829283Y-70819276D02*
X226829283Y-70912131D01*
X226829283Y-70912131D02*
X226798331Y-71035938D01*
X226798331Y-71035938D02*
X226767379Y-71097841D01*
X226767379Y-71097841D02*
X226705476Y-71159745D01*
X226705476Y-71159745D02*
X226612621Y-71190696D01*
X226612621Y-71190696D02*
X226457862Y-71190696D01*
X227448317Y-71190696D02*
X227076896Y-71190696D01*
X227262607Y-71190696D02*
X227262607Y-70540710D01*
X227262607Y-70540710D02*
X227200703Y-70633565D01*
X227200703Y-70633565D02*
X227138800Y-70695469D01*
X227138800Y-70695469D02*
X227076896Y-70726421D01*
G04 #@! TO.C,J2*
X190743338Y-72560710D02*
X190743338Y-73024986D01*
X190743338Y-73024986D02*
X190712387Y-73117841D01*
X190712387Y-73117841D02*
X190650483Y-73179745D01*
X190650483Y-73179745D02*
X190557628Y-73210696D01*
X190557628Y-73210696D02*
X190495725Y-73210696D01*
X191021903Y-72622614D02*
X191052855Y-72591662D01*
X191052855Y-72591662D02*
X191114759Y-72560710D01*
X191114759Y-72560710D02*
X191269517Y-72560710D01*
X191269517Y-72560710D02*
X191331421Y-72591662D01*
X191331421Y-72591662D02*
X191362372Y-72622614D01*
X191362372Y-72622614D02*
X191393324Y-72684517D01*
X191393324Y-72684517D02*
X191393324Y-72746421D01*
X191393324Y-72746421D02*
X191362372Y-72839276D01*
X191362372Y-72839276D02*
X190990952Y-73210696D01*
X190990952Y-73210696D02*
X191393324Y-73210696D01*
D10*
G04 #@! TO.C,D22*
X216825714Y-91802619D02*
X216825714Y-90802619D01*
X216825714Y-90802619D02*
X217063809Y-90802619D01*
X217063809Y-90802619D02*
X217206666Y-90850238D01*
X217206666Y-90850238D02*
X217301904Y-90945476D01*
X217301904Y-90945476D02*
X217349523Y-91040714D01*
X217349523Y-91040714D02*
X217397142Y-91231190D01*
X217397142Y-91231190D02*
X217397142Y-91374047D01*
X217397142Y-91374047D02*
X217349523Y-91564523D01*
X217349523Y-91564523D02*
X217301904Y-91659761D01*
X217301904Y-91659761D02*
X217206666Y-91755000D01*
X217206666Y-91755000D02*
X217063809Y-91802619D01*
X217063809Y-91802619D02*
X216825714Y-91802619D01*
X217778095Y-90897857D02*
X217825714Y-90850238D01*
X217825714Y-90850238D02*
X217920952Y-90802619D01*
X217920952Y-90802619D02*
X218159047Y-90802619D01*
X218159047Y-90802619D02*
X218254285Y-90850238D01*
X218254285Y-90850238D02*
X218301904Y-90897857D01*
X218301904Y-90897857D02*
X218349523Y-90993095D01*
X218349523Y-90993095D02*
X218349523Y-91088333D01*
X218349523Y-91088333D02*
X218301904Y-91231190D01*
X218301904Y-91231190D02*
X217730476Y-91802619D01*
X217730476Y-91802619D02*
X218349523Y-91802619D01*
X218730476Y-90897857D02*
X218778095Y-90850238D01*
X218778095Y-90850238D02*
X218873333Y-90802619D01*
X218873333Y-90802619D02*
X219111428Y-90802619D01*
X219111428Y-90802619D02*
X219206666Y-90850238D01*
X219206666Y-90850238D02*
X219254285Y-90897857D01*
X219254285Y-90897857D02*
X219301904Y-90993095D01*
X219301904Y-90993095D02*
X219301904Y-91088333D01*
X219301904Y-91088333D02*
X219254285Y-91231190D01*
X219254285Y-91231190D02*
X218682857Y-91802619D01*
X218682857Y-91802619D02*
X219301904Y-91802619D01*
D11*
G04 #@! TO.C,C92*
X202704280Y-61971726D02*
X202735232Y-62002678D01*
X202735232Y-62002678D02*
X202766183Y-62095533D01*
X202766183Y-62095533D02*
X202766183Y-62157437D01*
X202766183Y-62157437D02*
X202735232Y-62250292D01*
X202735232Y-62250292D02*
X202673328Y-62312195D01*
X202673328Y-62312195D02*
X202611425Y-62343147D01*
X202611425Y-62343147D02*
X202487618Y-62374099D01*
X202487618Y-62374099D02*
X202394763Y-62374099D01*
X202394763Y-62374099D02*
X202270956Y-62343147D01*
X202270956Y-62343147D02*
X202209052Y-62312195D01*
X202209052Y-62312195D02*
X202147149Y-62250292D01*
X202147149Y-62250292D02*
X202116197Y-62157437D01*
X202116197Y-62157437D02*
X202116197Y-62095533D01*
X202116197Y-62095533D02*
X202147149Y-62002678D01*
X202147149Y-62002678D02*
X202178101Y-61971726D01*
X202766183Y-61662209D02*
X202766183Y-61538402D01*
X202766183Y-61538402D02*
X202735232Y-61476499D01*
X202735232Y-61476499D02*
X202704280Y-61445547D01*
X202704280Y-61445547D02*
X202611425Y-61383644D01*
X202611425Y-61383644D02*
X202487618Y-61352692D01*
X202487618Y-61352692D02*
X202240004Y-61352692D01*
X202240004Y-61352692D02*
X202178101Y-61383644D01*
X202178101Y-61383644D02*
X202147149Y-61414596D01*
X202147149Y-61414596D02*
X202116197Y-61476499D01*
X202116197Y-61476499D02*
X202116197Y-61600306D01*
X202116197Y-61600306D02*
X202147149Y-61662209D01*
X202147149Y-61662209D02*
X202178101Y-61693161D01*
X202178101Y-61693161D02*
X202240004Y-61724113D01*
X202240004Y-61724113D02*
X202394763Y-61724113D01*
X202394763Y-61724113D02*
X202456666Y-61693161D01*
X202456666Y-61693161D02*
X202487618Y-61662209D01*
X202487618Y-61662209D02*
X202518570Y-61600306D01*
X202518570Y-61600306D02*
X202518570Y-61476499D01*
X202518570Y-61476499D02*
X202487618Y-61414596D01*
X202487618Y-61414596D02*
X202456666Y-61383644D01*
X202456666Y-61383644D02*
X202394763Y-61352692D01*
X202178101Y-61105079D02*
X202147149Y-61074127D01*
X202147149Y-61074127D02*
X202116197Y-61012224D01*
X202116197Y-61012224D02*
X202116197Y-60857465D01*
X202116197Y-60857465D02*
X202147149Y-60795562D01*
X202147149Y-60795562D02*
X202178101Y-60764610D01*
X202178101Y-60764610D02*
X202240004Y-60733658D01*
X202240004Y-60733658D02*
X202301908Y-60733658D01*
X202301908Y-60733658D02*
X202394763Y-60764610D01*
X202394763Y-60764610D02*
X202766183Y-61136030D01*
X202766183Y-61136030D02*
X202766183Y-60733658D01*
G04 #@! TO.C,C44*
X210798912Y-96028303D02*
X210767960Y-96059255D01*
X210767960Y-96059255D02*
X210675105Y-96090206D01*
X210675105Y-96090206D02*
X210613201Y-96090206D01*
X210613201Y-96090206D02*
X210520346Y-96059255D01*
X210520346Y-96059255D02*
X210458443Y-95997351D01*
X210458443Y-95997351D02*
X210427491Y-95935448D01*
X210427491Y-95935448D02*
X210396539Y-95811641D01*
X210396539Y-95811641D02*
X210396539Y-95718786D01*
X210396539Y-95718786D02*
X210427491Y-95594979D01*
X210427491Y-95594979D02*
X210458443Y-95533075D01*
X210458443Y-95533075D02*
X210520346Y-95471172D01*
X210520346Y-95471172D02*
X210613201Y-95440220D01*
X210613201Y-95440220D02*
X210675105Y-95440220D01*
X210675105Y-95440220D02*
X210767960Y-95471172D01*
X210767960Y-95471172D02*
X210798912Y-95502124D01*
X211356043Y-95656882D02*
X211356043Y-96090206D01*
X211201284Y-95409269D02*
X211046525Y-95873544D01*
X211046525Y-95873544D02*
X211448898Y-95873544D01*
X211975077Y-95656882D02*
X211975077Y-96090206D01*
X211820318Y-95409269D02*
X211665559Y-95873544D01*
X211665559Y-95873544D02*
X212067932Y-95873544D01*
G04 #@! TO.C,C106*
X202678793Y-72097364D02*
X202709745Y-72128316D01*
X202709745Y-72128316D02*
X202740696Y-72221171D01*
X202740696Y-72221171D02*
X202740696Y-72283075D01*
X202740696Y-72283075D02*
X202709745Y-72375930D01*
X202709745Y-72375930D02*
X202647841Y-72437833D01*
X202647841Y-72437833D02*
X202585938Y-72468785D01*
X202585938Y-72468785D02*
X202462131Y-72499737D01*
X202462131Y-72499737D02*
X202369276Y-72499737D01*
X202369276Y-72499737D02*
X202245469Y-72468785D01*
X202245469Y-72468785D02*
X202183565Y-72437833D01*
X202183565Y-72437833D02*
X202121662Y-72375930D01*
X202121662Y-72375930D02*
X202090710Y-72283075D01*
X202090710Y-72283075D02*
X202090710Y-72221171D01*
X202090710Y-72221171D02*
X202121662Y-72128316D01*
X202121662Y-72128316D02*
X202152614Y-72097364D01*
X202740696Y-71478330D02*
X202740696Y-71849751D01*
X202740696Y-71664040D02*
X202090710Y-71664040D01*
X202090710Y-71664040D02*
X202183565Y-71725944D01*
X202183565Y-71725944D02*
X202245469Y-71787847D01*
X202245469Y-71787847D02*
X202276421Y-71849751D01*
X202090710Y-71075958D02*
X202090710Y-71014055D01*
X202090710Y-71014055D02*
X202121662Y-70952151D01*
X202121662Y-70952151D02*
X202152614Y-70921200D01*
X202152614Y-70921200D02*
X202214517Y-70890248D01*
X202214517Y-70890248D02*
X202338324Y-70859296D01*
X202338324Y-70859296D02*
X202493083Y-70859296D01*
X202493083Y-70859296D02*
X202616889Y-70890248D01*
X202616889Y-70890248D02*
X202678793Y-70921200D01*
X202678793Y-70921200D02*
X202709745Y-70952151D01*
X202709745Y-70952151D02*
X202740696Y-71014055D01*
X202740696Y-71014055D02*
X202740696Y-71075958D01*
X202740696Y-71075958D02*
X202709745Y-71137862D01*
X202709745Y-71137862D02*
X202678793Y-71168813D01*
X202678793Y-71168813D02*
X202616889Y-71199765D01*
X202616889Y-71199765D02*
X202493083Y-71230717D01*
X202493083Y-71230717D02*
X202338324Y-71230717D01*
X202338324Y-71230717D02*
X202214517Y-71199765D01*
X202214517Y-71199765D02*
X202152614Y-71168813D01*
X202152614Y-71168813D02*
X202121662Y-71137862D01*
X202121662Y-71137862D02*
X202090710Y-71075958D01*
X202090710Y-70302166D02*
X202090710Y-70425972D01*
X202090710Y-70425972D02*
X202121662Y-70487876D01*
X202121662Y-70487876D02*
X202152614Y-70518828D01*
X202152614Y-70518828D02*
X202245469Y-70580731D01*
X202245469Y-70580731D02*
X202369276Y-70611683D01*
X202369276Y-70611683D02*
X202616889Y-70611683D01*
X202616889Y-70611683D02*
X202678793Y-70580731D01*
X202678793Y-70580731D02*
X202709745Y-70549779D01*
X202709745Y-70549779D02*
X202740696Y-70487876D01*
X202740696Y-70487876D02*
X202740696Y-70364069D01*
X202740696Y-70364069D02*
X202709745Y-70302166D01*
X202709745Y-70302166D02*
X202678793Y-70271214D01*
X202678793Y-70271214D02*
X202616889Y-70240262D01*
X202616889Y-70240262D02*
X202462131Y-70240262D01*
X202462131Y-70240262D02*
X202400227Y-70271214D01*
X202400227Y-70271214D02*
X202369276Y-70302166D01*
X202369276Y-70302166D02*
X202338324Y-70364069D01*
X202338324Y-70364069D02*
X202338324Y-70487876D01*
X202338324Y-70487876D02*
X202369276Y-70549779D01*
X202369276Y-70549779D02*
X202400227Y-70580731D01*
X202400227Y-70580731D02*
X202462131Y-70611683D01*
G04 #@! TO.C,C41*
X208518793Y-93167847D02*
X208549745Y-93198799D01*
X208549745Y-93198799D02*
X208580696Y-93291654D01*
X208580696Y-93291654D02*
X208580696Y-93353558D01*
X208580696Y-93353558D02*
X208549745Y-93446413D01*
X208549745Y-93446413D02*
X208487841Y-93508316D01*
X208487841Y-93508316D02*
X208425938Y-93539268D01*
X208425938Y-93539268D02*
X208302131Y-93570220D01*
X208302131Y-93570220D02*
X208209276Y-93570220D01*
X208209276Y-93570220D02*
X208085469Y-93539268D01*
X208085469Y-93539268D02*
X208023565Y-93508316D01*
X208023565Y-93508316D02*
X207961662Y-93446413D01*
X207961662Y-93446413D02*
X207930710Y-93353558D01*
X207930710Y-93353558D02*
X207930710Y-93291654D01*
X207930710Y-93291654D02*
X207961662Y-93198799D01*
X207961662Y-93198799D02*
X207992614Y-93167847D01*
X208147372Y-92610717D02*
X208580696Y-92610717D01*
X207899759Y-92765475D02*
X208364034Y-92920234D01*
X208364034Y-92920234D02*
X208364034Y-92517861D01*
X208580696Y-91929779D02*
X208580696Y-92301200D01*
X208580696Y-92115489D02*
X207930710Y-92115489D01*
X207930710Y-92115489D02*
X208023565Y-92177393D01*
X208023565Y-92177393D02*
X208085469Y-92239296D01*
X208085469Y-92239296D02*
X208116421Y-92301200D01*
G04 #@! TO.C,V1*
X207963821Y-122880710D02*
X208180483Y-123530696D01*
X208180483Y-123530696D02*
X208397145Y-122880710D01*
X208954276Y-123530696D02*
X208582855Y-123530696D01*
X208768566Y-123530696D02*
X208768566Y-122880710D01*
X208768566Y-122880710D02*
X208706662Y-122973565D01*
X208706662Y-122973565D02*
X208644759Y-123035469D01*
X208644759Y-123035469D02*
X208582855Y-123066421D01*
G04 #@! TO.C,R59*
X215820696Y-72224626D02*
X215511179Y-72441288D01*
X215820696Y-72596047D02*
X215170710Y-72596047D01*
X215170710Y-72596047D02*
X215170710Y-72348433D01*
X215170710Y-72348433D02*
X215201662Y-72286530D01*
X215201662Y-72286530D02*
X215232614Y-72255578D01*
X215232614Y-72255578D02*
X215294517Y-72224626D01*
X215294517Y-72224626D02*
X215387372Y-72224626D01*
X215387372Y-72224626D02*
X215449276Y-72255578D01*
X215449276Y-72255578D02*
X215480227Y-72286530D01*
X215480227Y-72286530D02*
X215511179Y-72348433D01*
X215511179Y-72348433D02*
X215511179Y-72596047D01*
X215170710Y-71636544D02*
X215170710Y-71946061D01*
X215170710Y-71946061D02*
X215480227Y-71977013D01*
X215480227Y-71977013D02*
X215449276Y-71946061D01*
X215449276Y-71946061D02*
X215418324Y-71884158D01*
X215418324Y-71884158D02*
X215418324Y-71729399D01*
X215418324Y-71729399D02*
X215449276Y-71667496D01*
X215449276Y-71667496D02*
X215480227Y-71636544D01*
X215480227Y-71636544D02*
X215542131Y-71605592D01*
X215542131Y-71605592D02*
X215696889Y-71605592D01*
X215696889Y-71605592D02*
X215758793Y-71636544D01*
X215758793Y-71636544D02*
X215789745Y-71667496D01*
X215789745Y-71667496D02*
X215820696Y-71729399D01*
X215820696Y-71729399D02*
X215820696Y-71884158D01*
X215820696Y-71884158D02*
X215789745Y-71946061D01*
X215789745Y-71946061D02*
X215758793Y-71977013D01*
X215820696Y-71296075D02*
X215820696Y-71172268D01*
X215820696Y-71172268D02*
X215789745Y-71110365D01*
X215789745Y-71110365D02*
X215758793Y-71079413D01*
X215758793Y-71079413D02*
X215665938Y-71017510D01*
X215665938Y-71017510D02*
X215542131Y-70986558D01*
X215542131Y-70986558D02*
X215294517Y-70986558D01*
X215294517Y-70986558D02*
X215232614Y-71017510D01*
X215232614Y-71017510D02*
X215201662Y-71048462D01*
X215201662Y-71048462D02*
X215170710Y-71110365D01*
X215170710Y-71110365D02*
X215170710Y-71234172D01*
X215170710Y-71234172D02*
X215201662Y-71296075D01*
X215201662Y-71296075D02*
X215232614Y-71327027D01*
X215232614Y-71327027D02*
X215294517Y-71357979D01*
X215294517Y-71357979D02*
X215449276Y-71357979D01*
X215449276Y-71357979D02*
X215511179Y-71327027D01*
X215511179Y-71327027D02*
X215542131Y-71296075D01*
X215542131Y-71296075D02*
X215573083Y-71234172D01*
X215573083Y-71234172D02*
X215573083Y-71110365D01*
X215573083Y-71110365D02*
X215542131Y-71048462D01*
X215542131Y-71048462D02*
X215511179Y-71017510D01*
X215511179Y-71017510D02*
X215449276Y-70986558D01*
G04 #@! TO.C,D1*
X196960248Y-101020696D02*
X196960248Y-100370710D01*
X196960248Y-100370710D02*
X197115007Y-100370710D01*
X197115007Y-100370710D02*
X197207862Y-100401662D01*
X197207862Y-100401662D02*
X197269765Y-100463565D01*
X197269765Y-100463565D02*
X197300717Y-100525469D01*
X197300717Y-100525469D02*
X197331669Y-100649276D01*
X197331669Y-100649276D02*
X197331669Y-100742131D01*
X197331669Y-100742131D02*
X197300717Y-100865938D01*
X197300717Y-100865938D02*
X197269765Y-100927841D01*
X197269765Y-100927841D02*
X197207862Y-100989745D01*
X197207862Y-100989745D02*
X197115007Y-101020696D01*
X197115007Y-101020696D02*
X196960248Y-101020696D01*
X197950703Y-101020696D02*
X197579282Y-101020696D01*
X197764993Y-101020696D02*
X197764993Y-100370710D01*
X197764993Y-100370710D02*
X197703089Y-100463565D01*
X197703089Y-100463565D02*
X197641186Y-100525469D01*
X197641186Y-100525469D02*
X197579282Y-100556421D01*
D10*
G04 #@! TO.C,U5*
X219811109Y-87968400D02*
G75*
G03*
X219811109Y-87968400I-261509J0D01*
G01*
X218905000Y-88875000D02*
X219050000Y-88875000D01*
X218905000Y-84725000D02*
X219050000Y-84725000D01*
X224055000Y-84725000D02*
X223910000Y-84725000D01*
X224055000Y-88875000D02*
X223910000Y-88875000D01*
X218905000Y-88875000D02*
X218905000Y-84725000D01*
X224055000Y-88875000D02*
X224055000Y-84725000D01*
D12*
G04 #@! TO.C,AN1*
X226160000Y-81700000D02*
X227430000Y-81700000D01*
X226160000Y-82970000D02*
X226160000Y-81700000D01*
X226199865Y-83808200D02*
X226199865Y-96999000D01*
X226199865Y-96999000D02*
X228859865Y-96999000D01*
X228472929Y-85130000D02*
X228870000Y-85130000D01*
X228472929Y-85890000D02*
X228870000Y-85890000D01*
X228472929Y-87670000D02*
X228870000Y-87670000D01*
X228472929Y-88430000D02*
X228870000Y-88430000D01*
X228472929Y-90210000D02*
X228870000Y-90210000D01*
X228472929Y-90970000D02*
X228870000Y-90970000D01*
X228472929Y-92750000D02*
X228870000Y-92750000D01*
X228472929Y-93510000D02*
X228870000Y-93510000D01*
X228472929Y-95290000D02*
X228870000Y-95290000D01*
X228472929Y-96050000D02*
X228870000Y-96050000D01*
X228540000Y-82590000D02*
X228870000Y-82590000D01*
X228540000Y-83350000D02*
X228870000Y-83350000D01*
X228859865Y-81639000D02*
X228217400Y-81639000D01*
X228859865Y-84239000D02*
X226199865Y-84239000D01*
X228859865Y-86779000D02*
X226199865Y-86779000D01*
X228859865Y-89319000D02*
X226199865Y-89319000D01*
X228859865Y-91859000D02*
X226199865Y-91859000D01*
X228859865Y-94399000D02*
X226199865Y-94399000D01*
X228870000Y-81640000D02*
X228870000Y-97000000D01*
G04 #@! TO.C,J1*
X189570000Y-98530000D02*
X189570000Y-88250000D01*
X189605200Y-90850000D02*
X192265200Y-90850000D01*
X189605200Y-93390000D02*
X192265200Y-93390000D01*
X189605200Y-95930000D02*
X192265200Y-95930000D01*
X189605200Y-98530000D02*
X192457800Y-98530000D01*
X189967071Y-89200000D02*
X189570000Y-89200000D01*
X189967071Y-89960000D02*
X189570000Y-89960000D01*
X189967071Y-91740000D02*
X189570000Y-91740000D01*
X189967071Y-92500000D02*
X189570000Y-92500000D01*
X189967071Y-94280000D02*
X189570000Y-94280000D01*
X189967071Y-95040000D02*
X189570000Y-95040000D01*
X189967071Y-96820000D02*
X189570000Y-96820000D01*
X189967071Y-97580000D02*
X189570000Y-97580000D01*
X192440000Y-96820000D02*
X192052929Y-96820000D01*
X192440000Y-97580000D02*
X192052929Y-97580000D01*
X192507071Y-89200000D02*
X192052929Y-89200000D01*
X192507071Y-89960000D02*
X192052929Y-89960000D01*
X192507071Y-91740000D02*
X192052929Y-91740000D01*
X192507071Y-92500000D02*
X192052929Y-92500000D01*
X192507071Y-94280000D02*
X192052929Y-94280000D01*
X192507071Y-95040000D02*
X192052929Y-95040000D01*
X194566000Y-88250000D02*
X189605200Y-88250000D01*
X194805200Y-96895200D02*
X194805200Y-88487800D01*
X194820000Y-97200000D02*
X194820000Y-98470000D01*
X194820000Y-98470000D02*
X193550000Y-98470000D01*
D10*
G04 #@! TO.C,D19*
X202860180Y-106349000D02*
X203109100Y-106349000D01*
X202860180Y-107050040D02*
X202860180Y-106349000D01*
X205659160Y-106349000D02*
X205610900Y-106349000D01*
X205659160Y-106349000D02*
X205859820Y-106349000D01*
X205859820Y-106349000D02*
X205859820Y-107050040D01*
D13*
G04 #@! TO.C,C42*
X203040000Y-68081779D02*
X203040000Y-67771779D01*
X203820000Y-68081779D02*
X203820000Y-67771779D01*
G04 #@! TO.C,C2*
X213140000Y-113685000D02*
X213140000Y-113375000D01*
X213920000Y-113685000D02*
X213920000Y-113375000D01*
D10*
G04 #@! TO.C,D24*
X198511000Y-90660180D02*
X198511000Y-90909100D01*
X197809960Y-90660180D02*
X198511000Y-90660180D01*
X198511000Y-93459160D02*
X198511000Y-93410900D01*
X198511000Y-93459160D02*
X198511000Y-93659820D01*
X198511000Y-93659820D02*
X197809960Y-93659820D01*
D13*
G04 #@! TO.C,R40*
X203325600Y-115455500D02*
X203325600Y-116344500D01*
X203325600Y-115455500D02*
X205154400Y-115455500D01*
X205154400Y-115455500D02*
X205154400Y-116344500D01*
X205154400Y-116344500D02*
X203325600Y-116344500D01*
D12*
G04 #@! TO.C,JA1*
X191229993Y-57370008D02*
X192669993Y-57370008D01*
X192669993Y-56800008D02*
X192669993Y-57370008D01*
X192669993Y-56800008D02*
X197869993Y-56800008D01*
X192669993Y-58890008D02*
X192669993Y-59910008D01*
X192669993Y-61430008D02*
X192669993Y-62450008D01*
X192669993Y-63970008D02*
X192669993Y-64990008D01*
X192669993Y-66510008D02*
X192669993Y-67530008D01*
X192669993Y-69050008D02*
X192669993Y-69620008D01*
X192669993Y-69620008D02*
X197869993Y-69620008D01*
X197869993Y-56800008D02*
X197869993Y-57370008D01*
X197869993Y-58890008D02*
X197869993Y-59910008D01*
X197869993Y-61430008D02*
X197869993Y-62450008D01*
X197869993Y-63970008D02*
X197869993Y-64990008D01*
X197869993Y-66510008D02*
X197869993Y-67530008D01*
X197869993Y-69050008D02*
X197869993Y-69620008D01*
D13*
G04 #@! TO.C,C98*
X214850000Y-61581779D02*
X214850000Y-61891779D01*
X214070000Y-61581779D02*
X214070000Y-61891779D01*
G04 #@! TO.C,JP1*
X194830000Y-81660000D02*
X192570000Y-81660000D01*
X194830000Y-80700000D02*
X194830000Y-81660000D01*
X192570000Y-80700000D02*
X194830000Y-80700000D01*
X192570000Y-80700000D02*
X192570000Y-81660000D01*
D12*
G04 #@! TO.C,C3*
X210820000Y-121630000D02*
X209620000Y-121630000D01*
X209620000Y-121930000D02*
X210820000Y-121930000D01*
D13*
G04 #@! TO.C,R67*
X213985500Y-70571179D02*
X214874500Y-70571179D01*
X213985500Y-70571179D02*
X213985500Y-68742379D01*
X213985500Y-68742379D02*
X214874500Y-68742379D01*
X214874500Y-68742379D02*
X214874500Y-70571179D01*
D12*
G04 #@! TO.C,C81*
X211770000Y-59956779D02*
X211770000Y-58756779D01*
X211470000Y-58756779D02*
X211470000Y-59956779D01*
D13*
G04 #@! TO.C,C13*
X204620000Y-88635000D02*
X204620000Y-88945000D01*
X203840000Y-88635000D02*
X203840000Y-88945000D01*
G04 #@! TO.C,C64*
X215083460Y-61896859D02*
X215083460Y-61586859D01*
X215863460Y-61896859D02*
X215863460Y-61586859D01*
G04 #@! TO.C,C55*
X215880000Y-63581779D02*
X215880000Y-63891779D01*
X215100000Y-63581779D02*
X215100000Y-63891779D01*
D12*
G04 #@! TO.C,U2*
X204760000Y-86250000D02*
X206140000Y-86250000D01*
X213880000Y-86250000D02*
X211380000Y-86250000D01*
X204380000Y-85860000D02*
X204760000Y-86250000D01*
X203640000Y-85135000D02*
X204020000Y-85525000D01*
X203640000Y-83750000D02*
X203640000Y-85130000D01*
X213880000Y-83750000D02*
X213880000Y-86250000D01*
X203640000Y-78510000D02*
X203640000Y-76010000D01*
X203640000Y-78510000D02*
X203640000Y-76010000D01*
X203640000Y-78510000D02*
X203640000Y-76010000D01*
X213880000Y-78510000D02*
X213880000Y-76010000D01*
X203640000Y-76010000D02*
X206140000Y-76010000D01*
X203640000Y-76010000D02*
X206140000Y-76010000D01*
X203640000Y-76010000D02*
X206140000Y-76010000D01*
X213880000Y-76010000D02*
X211380000Y-76010000D01*
D14*
X203860000Y-86130000D02*
G75*
G03*
X203860000Y-86130000I-100000J0D01*
G01*
D12*
G04 #@! TO.C,C83*
X206410000Y-59946779D02*
X206410000Y-58746779D01*
X206110000Y-58746779D02*
X206110000Y-59946779D01*
G04 #@! TO.C,X1*
X207220005Y-87951792D02*
X207220005Y-87551792D01*
X207220005Y-87551792D02*
X206820005Y-87551792D01*
X207095006Y-88551792D02*
X207095006Y-88501792D01*
X206945006Y-88551792D02*
X206945006Y-88501792D01*
X206170007Y-89376792D02*
X205920005Y-89376792D01*
X206170007Y-89226792D02*
X205920005Y-89226792D01*
X206170007Y-87826792D02*
X205920005Y-87826792D01*
X206170007Y-87676792D02*
X205920005Y-87676792D01*
X205145005Y-88551792D02*
X205145005Y-88501792D01*
X204995005Y-88551792D02*
X204995005Y-88501792D01*
X207489874Y-87376792D02*
G75*
G03*
X207489874Y-87376792I-94868J0D01*
G01*
D13*
G04 #@! TO.C,C24*
X208125000Y-89530000D02*
X208435000Y-89530000D01*
X208125000Y-90310000D02*
X208435000Y-90310000D01*
G04 #@! TO.C,R20*
X195445500Y-100044400D02*
X196334500Y-100044400D01*
X195445500Y-100044400D02*
X195445500Y-98215600D01*
X195445500Y-98215600D02*
X196334500Y-98215600D01*
X196334500Y-98215600D02*
X196334500Y-100044400D01*
D12*
G04 #@! TO.C,JB1*
X190429991Y-122250000D02*
X190429991Y-120810000D01*
X189859991Y-120810000D02*
X190429991Y-120810000D01*
X189859991Y-120810000D02*
X189859991Y-115610000D01*
X191949991Y-120810000D02*
X192969991Y-120810000D01*
X194489991Y-120810000D02*
X195509991Y-120810000D01*
X197029991Y-120810000D02*
X198049991Y-120810000D01*
X199569991Y-120810000D02*
X200589991Y-120810000D01*
X202109991Y-120810000D02*
X202679991Y-120810000D01*
X202679991Y-120810000D02*
X202679991Y-115610000D01*
X189859991Y-115610000D02*
X190429991Y-115610000D01*
X191949991Y-115610000D02*
X192969991Y-115610000D01*
X194489991Y-115610000D02*
X195509991Y-115610000D01*
X197029991Y-115610000D02*
X198049991Y-115610000D01*
X199569991Y-115610000D02*
X200589991Y-115610000D01*
X202109991Y-115610000D02*
X202679991Y-115610000D01*
D13*
G04 #@! TO.C,R2*
X206825600Y-106445500D02*
X206825600Y-107334500D01*
X206825600Y-106445500D02*
X208654400Y-106445500D01*
X208654400Y-106445500D02*
X208654400Y-107334500D01*
X208654400Y-107334500D02*
X206825600Y-107334500D01*
G04 #@! TO.C,R30*
X204645500Y-95994400D02*
X205534500Y-95994400D01*
X204645500Y-95994400D02*
X204645500Y-94165600D01*
X204645500Y-94165600D02*
X205534500Y-94165600D01*
X205534500Y-94165600D02*
X205534500Y-95994400D01*
G04 #@! TO.C,C102*
X214840000Y-66031779D02*
X214840000Y-66341779D01*
X214060000Y-66031779D02*
X214060000Y-66341779D01*
G04 #@! TO.C,R39*
X203315600Y-116475500D02*
X203315600Y-117364500D01*
X203315600Y-116475500D02*
X205144400Y-116475500D01*
X205144400Y-116475500D02*
X205144400Y-117364500D01*
X205144400Y-117364500D02*
X203315600Y-117364500D01*
G04 #@! TO.C,C94*
X208050000Y-59351779D02*
X208050000Y-59041779D01*
X208830000Y-59351779D02*
X208830000Y-59041779D01*
G04 #@! TO.C,C15*
X199060000Y-96765000D02*
X199060000Y-96455000D01*
X199840000Y-96765000D02*
X199840000Y-96455000D01*
G04 #@! TO.C,C14*
X207443460Y-88611859D02*
X207443460Y-88301859D01*
X208223460Y-88611859D02*
X208223460Y-88301859D01*
D12*
G04 #@! TO.C,JC1*
X216430015Y-122250000D02*
X216430015Y-120810000D01*
X215860015Y-120810000D02*
X216430015Y-120810000D01*
X215860015Y-120810000D02*
X215860015Y-115610000D01*
X217950015Y-120810000D02*
X218970015Y-120810000D01*
X220490015Y-120810000D02*
X221510015Y-120810000D01*
X223030015Y-120810000D02*
X224050015Y-120810000D01*
X225570015Y-120810000D02*
X226590015Y-120810000D01*
X228110015Y-120810000D02*
X228680015Y-120810000D01*
X228680015Y-120810000D02*
X228680015Y-115610000D01*
X215860015Y-115610000D02*
X216430015Y-115610000D01*
X217950015Y-115610000D02*
X218970015Y-115610000D01*
X220490015Y-115610000D02*
X221510015Y-115610000D01*
X223030015Y-115610000D02*
X224050015Y-115610000D01*
X225570015Y-115610000D02*
X226590015Y-115610000D01*
X228110015Y-115610000D02*
X228680015Y-115610000D01*
D10*
G04 #@! TO.C,U13*
X210600180Y-91259000D02*
X210849100Y-91259000D01*
X210600180Y-91960040D02*
X210600180Y-91259000D01*
X213399160Y-91259000D02*
X213350900Y-91259000D01*
X213399160Y-91259000D02*
X213599820Y-91259000D01*
X213599820Y-91259000D02*
X213599820Y-91960040D01*
D13*
G04 #@! TO.C,C12*
X219450000Y-81160000D02*
X219760000Y-81160000D01*
X219450000Y-81940000D02*
X219760000Y-81940000D01*
D12*
G04 #@! TO.C,U14*
X204739600Y-60931000D02*
X206189600Y-60931000D01*
X204739600Y-62506000D02*
X204739600Y-60931000D01*
X204889600Y-61081000D02*
X212989600Y-61081000D01*
X204889600Y-75181000D02*
X204889600Y-61081000D01*
X204889600Y-75181000D02*
X212989600Y-75181000D01*
X207664598Y-75181000D02*
X207664598Y-61081000D01*
X210214600Y-75181000D02*
X210214600Y-61081000D01*
X212989600Y-75181000D02*
X212989600Y-61081000D01*
X206088823Y-62107719D02*
G75*
G03*
X206089598Y-62131000I-349225J-23279D01*
G01*
D13*
G04 #@! TO.C,C40*
X215365000Y-78202779D02*
X215055000Y-78202779D01*
X215365000Y-77422779D02*
X215055000Y-77422779D01*
G04 #@! TO.C,R1*
X206495600Y-107665500D02*
X206495600Y-108554500D01*
X206495600Y-107665500D02*
X208324400Y-107665500D01*
X208324400Y-107665500D02*
X208324400Y-108554500D01*
X208324400Y-108554500D02*
X206495600Y-108554500D01*
G04 #@! TO.C,C29*
X221275000Y-80000000D02*
X220965000Y-80000000D01*
X221275000Y-79220000D02*
X220965000Y-79220000D01*
G04 #@! TO.C,C82*
X203820000Y-65851779D02*
X203820000Y-66161779D01*
X203040000Y-65851779D02*
X203040000Y-66161779D01*
D12*
G04 #@! TO.C,U1*
X211420000Y-118900000D02*
X211420000Y-118625000D01*
X211420000Y-118625000D02*
X212710000Y-118625000D01*
X211420000Y-108980000D02*
X211420000Y-109255000D01*
X209110000Y-118900000D02*
X211420000Y-118900000D01*
X209110000Y-118900000D02*
X206800000Y-118900000D01*
X209110000Y-108980000D02*
X211420000Y-108980000D01*
X209110000Y-108980000D02*
X206800000Y-108980000D01*
X206800000Y-118900000D02*
X206800000Y-118625000D01*
X206800000Y-108980000D02*
X206800000Y-109255000D01*
G04 #@! TO.C,C1*
X205390000Y-121010000D02*
X204190000Y-121010000D01*
X204190000Y-121310000D02*
X205390000Y-121310000D01*
D13*
G04 #@! TO.C,C99*
X214081260Y-63901459D02*
X214081260Y-63591459D01*
X214861260Y-63901459D02*
X214861260Y-63591459D01*
G04 #@! TO.C,C21*
X197625000Y-89340000D02*
X197935000Y-89340000D01*
X197625000Y-90120000D02*
X197935000Y-90120000D01*
G04 #@! TO.C,C87*
X209890000Y-59041779D02*
X209890000Y-59351779D01*
X209110000Y-59041779D02*
X209110000Y-59351779D01*
D12*
G04 #@! TO.C,JD1*
X219230013Y-57370008D02*
X220670013Y-57370008D01*
X220670013Y-56800008D02*
X220670013Y-57370008D01*
X220670013Y-56800008D02*
X225870013Y-56800008D01*
X220670013Y-58890008D02*
X220670013Y-59910008D01*
X220670013Y-61430008D02*
X220670013Y-62450008D01*
X220670013Y-63970008D02*
X220670013Y-64990008D01*
X220670013Y-66510008D02*
X220670013Y-67530008D01*
X220670013Y-69050008D02*
X220670013Y-69620008D01*
X220670013Y-69620008D02*
X225870013Y-69620008D01*
X225870013Y-56800008D02*
X225870013Y-57370008D01*
X225870013Y-58890008D02*
X225870013Y-59910008D01*
X225870013Y-61430008D02*
X225870013Y-62450008D01*
X225870013Y-63970008D02*
X225870013Y-64990008D01*
X225870013Y-66510008D02*
X225870013Y-67530008D01*
X225870013Y-69050008D02*
X225870013Y-69620008D01*
G04 #@! TO.C,J2*
X190510000Y-73630000D02*
X191835000Y-73630000D01*
X191835000Y-73565000D02*
X191835000Y-73630000D01*
X191835000Y-73565000D02*
X195365000Y-73565000D01*
X191835000Y-79970000D02*
X191835000Y-80035000D01*
X191835000Y-80035000D02*
X195365000Y-80035000D01*
X195365000Y-73565000D02*
X195365000Y-73630000D01*
X195365000Y-79970000D02*
X195365000Y-80035000D01*
D10*
G04 #@! TO.C,D22*
X216540180Y-93189760D02*
X216789100Y-93189760D01*
X216540180Y-93890800D02*
X216540180Y-93189760D01*
X219339160Y-93189760D02*
X219290900Y-93189760D01*
X219339160Y-93189760D02*
X219539820Y-93189760D01*
X219539820Y-93189760D02*
X219539820Y-93890800D01*
D13*
G04 #@! TO.C,C92*
X203040000Y-61941779D02*
X203040000Y-61631779D01*
X203820000Y-61941779D02*
X203820000Y-61631779D01*
D12*
G04 #@! TO.C,C44*
X212108000Y-95071000D02*
X212108000Y-93871000D01*
X211808000Y-93871000D02*
X211808000Y-95071000D01*
D13*
G04 #@! TO.C,C106*
X203050000Y-70611779D02*
X203050000Y-70301779D01*
X203830000Y-70611779D02*
X203830000Y-70301779D01*
D12*
G04 #@! TO.C,C41*
X210030000Y-92920000D02*
X208830000Y-92920000D01*
X208830000Y-93220000D02*
X210030000Y-93220000D01*
D10*
G04 #@! TO.C,V1*
X206150180Y-120279760D02*
X206399100Y-120279760D01*
X206150180Y-120980800D02*
X206150180Y-120279760D01*
X208949160Y-120279760D02*
X208900900Y-120279760D01*
X208949160Y-120279760D02*
X209149820Y-120279760D01*
X209149820Y-120279760D02*
X209149820Y-120980800D01*
D13*
G04 #@! TO.C,R59*
X214005500Y-72501179D02*
X214894500Y-72501179D01*
X214005500Y-72501179D02*
X214005500Y-70672379D01*
X214005500Y-70672379D02*
X214894500Y-70672379D01*
X214894500Y-70672379D02*
X214894500Y-72501179D01*
D10*
G04 #@! TO.C,D1*
X198698536Y-96816628D02*
X198698536Y-97065548D01*
X197997496Y-96816628D02*
X198698536Y-96816628D01*
X198698536Y-99615608D02*
X198698536Y-99567348D01*
X198698536Y-99615608D02*
X198698536Y-99816268D01*
X198698536Y-99816268D02*
X197997496Y-99816268D01*
G04 #@! TD*
%LPC*%
D15*
G04 #@! TO.C,U5*
X219575000Y-90102000D03*
X220845000Y-90102000D03*
X222115000Y-90102000D03*
X223385000Y-90102000D03*
X223385000Y-83498000D03*
X222115000Y-83498000D03*
X220845000Y-83498000D03*
X219575000Y-83498000D03*
G04 #@! TD*
D16*
G04 #@! TO.C,J3*
X227805000Y-72740000D03*
D17*
X225105000Y-73740000D03*
X225105000Y-78740000D03*
D16*
X227805000Y-79740000D03*
G04 #@! TD*
D18*
G04 #@! TO.C,AN1*
X227430000Y-82970000D03*
D19*
X227430000Y-85510000D03*
X227430000Y-88050000D03*
X227430000Y-90590000D03*
X227430000Y-93130000D03*
X227430000Y-95670000D03*
G04 #@! TD*
D18*
G04 #@! TO.C,J1*
X190980400Y-89580000D03*
D19*
X193520400Y-89580000D03*
X190980400Y-92120000D03*
X193520400Y-92120000D03*
X190980400Y-94660000D03*
X193520400Y-94660000D03*
X190980400Y-97200000D03*
X193520400Y-97200000D03*
G04 #@! TD*
D20*
G04 #@! TO.C,D19*
X203410000Y-108000000D03*
X205310000Y-108000000D03*
X204360000Y-106001020D03*
G04 #@! TD*
D21*
G04 #@! TO.C,C42*
X203430000Y-68411779D03*
X203430000Y-67441779D03*
G04 #@! TD*
G04 #@! TO.C,C2*
X213530000Y-114015000D03*
X213530000Y-113045000D03*
G04 #@! TD*
D20*
G04 #@! TO.C,D24*
X196860000Y-91210000D03*
X196860000Y-93110000D03*
X198858980Y-92160000D03*
G04 #@! TD*
D22*
G04 #@! TO.C,R40*
X203755000Y-115900000D03*
X204725000Y-115900000D03*
G04 #@! TD*
D23*
G04 #@! TO.C,JA1*
X192744993Y-58130008D03*
X197794993Y-58130008D03*
X192744993Y-60670008D03*
X197794993Y-60670008D03*
X192744993Y-63210008D03*
X197794993Y-63210008D03*
X192744993Y-65750008D03*
X197794993Y-65750008D03*
X192744993Y-68290008D03*
X197794993Y-68290008D03*
G04 #@! TD*
D24*
G04 #@! TO.C,C98*
X214460000Y-61251779D03*
X214460000Y-62221779D03*
G04 #@! TD*
D25*
G04 #@! TO.C,NT2*
X209580000Y-95160000D03*
X209580000Y-95660000D03*
G04 #@! TD*
D26*
G04 #@! TO.C,JP1*
X194380000Y-81180000D03*
X193700000Y-81180000D03*
X193020000Y-81180000D03*
G04 #@! TD*
D27*
G04 #@! TO.C,C3*
X210220000Y-120930000D03*
X210220000Y-122630000D03*
G04 #@! TD*
D21*
G04 #@! TO.C,R67*
X214430000Y-70141779D03*
X214430000Y-69171779D03*
G04 #@! TD*
D27*
G04 #@! TO.C,C81*
X212470000Y-59356779D03*
X210770000Y-59356779D03*
G04 #@! TD*
D24*
G04 #@! TO.C,C13*
X204230000Y-88305000D03*
X204230000Y-89275000D03*
G04 #@! TD*
D21*
G04 #@! TO.C,C64*
X215473460Y-62226859D03*
X215473460Y-61256859D03*
G04 #@! TD*
D24*
G04 #@! TO.C,C55*
X215490000Y-63251779D03*
X215490000Y-64221779D03*
G04 #@! TD*
D28*
G04 #@! TO.C,U2*
X206160000Y-83730000D03*
X206160000Y-83080000D03*
X206160000Y-82430000D03*
X206160000Y-81780000D03*
X206160000Y-81130000D03*
X206160000Y-80480000D03*
X206160000Y-79830000D03*
X206160000Y-79180000D03*
X206160000Y-78530000D03*
X206810000Y-83730000D03*
X206810000Y-83080000D03*
X206810000Y-82430000D03*
X206810000Y-81780000D03*
X206810000Y-81130000D03*
X206810000Y-80480000D03*
X206810000Y-79830000D03*
X206810000Y-79180000D03*
X206810000Y-78530000D03*
X207460000Y-83730000D03*
X207460000Y-83080000D03*
X207460000Y-82430000D03*
X207460000Y-81780000D03*
X207460000Y-81130000D03*
X207460000Y-80480000D03*
X207460000Y-79830000D03*
X207460000Y-79180000D03*
X207460000Y-78530000D03*
X208110000Y-83730000D03*
X208110000Y-83080000D03*
X208110000Y-82430000D03*
X208110000Y-81780000D03*
X208110000Y-81130000D03*
X208110000Y-80480000D03*
X208110000Y-79830000D03*
X208110000Y-79180000D03*
X208110000Y-78530000D03*
X208760000Y-83730000D03*
X208760000Y-83080000D03*
X208760000Y-82430000D03*
X208760000Y-81780000D03*
X208760000Y-81130000D03*
X208760000Y-80480000D03*
X208760000Y-79830000D03*
X208760000Y-79180000D03*
X208760000Y-78530000D03*
X209410000Y-83730000D03*
X209410000Y-83080000D03*
X209410000Y-82430000D03*
X209410000Y-81780000D03*
X209410000Y-81130000D03*
X209410000Y-80480000D03*
X209410000Y-79830000D03*
X209410000Y-79180000D03*
X209410000Y-78530000D03*
X210060000Y-83730000D03*
X210060000Y-83080000D03*
X210060000Y-82430000D03*
X210060000Y-81780000D03*
X210060000Y-81130000D03*
X210060000Y-80480000D03*
X210060000Y-79830000D03*
X210060000Y-79180000D03*
X210060000Y-78530000D03*
X210710000Y-83730000D03*
X210710000Y-83080000D03*
X210710000Y-82430000D03*
X210710000Y-81780000D03*
X210710000Y-81130000D03*
X210710000Y-80480000D03*
X210710000Y-79830000D03*
X210710000Y-79180000D03*
X210710000Y-78530000D03*
X211360000Y-83730000D03*
X211360000Y-83080000D03*
X211360000Y-82430000D03*
X211360000Y-81780000D03*
X211360000Y-81130000D03*
X211360000Y-80480000D03*
X211360000Y-79830000D03*
X211360000Y-79180000D03*
X211360000Y-78530000D03*
X204260000Y-85630000D03*
X204260000Y-85130000D03*
X204260000Y-84630000D03*
X204260000Y-84130000D03*
X204260000Y-83130000D03*
X204260000Y-82630000D03*
X204260000Y-81630000D03*
X204260000Y-81130000D03*
X204260000Y-80130000D03*
X204260000Y-79630000D03*
X204260000Y-78630000D03*
X204260000Y-78130000D03*
X204260000Y-77630000D03*
X204260000Y-77130000D03*
X204260000Y-76630000D03*
X204760000Y-85630000D03*
X204760000Y-85130000D03*
X204760000Y-84630000D03*
X204760000Y-84130000D03*
X204760000Y-83630000D03*
X204760000Y-83130000D03*
X204760000Y-82630000D03*
X204760000Y-82130000D03*
X204760000Y-81630000D03*
X204760000Y-81130000D03*
X204760000Y-80630000D03*
X204760000Y-80130000D03*
X204760000Y-79630000D03*
X204760000Y-79130000D03*
X204760000Y-78630000D03*
X204760000Y-78130000D03*
X204760000Y-77630000D03*
X204760000Y-77130000D03*
X204760000Y-76630000D03*
X205260000Y-85630000D03*
X205260000Y-85130000D03*
X205260000Y-84630000D03*
X205260000Y-84130000D03*
X205260000Y-83630000D03*
X205260000Y-83130000D03*
X205260000Y-82630000D03*
X205260000Y-82130000D03*
X205260000Y-81630000D03*
X205260000Y-81130000D03*
X205260000Y-80630000D03*
X205260000Y-80130000D03*
X205260000Y-79630000D03*
X205260000Y-79130000D03*
X205260000Y-78630000D03*
X205260000Y-78130000D03*
X205260000Y-77630000D03*
X205260000Y-77130000D03*
X205260000Y-76630000D03*
X205760000Y-85630000D03*
X205760000Y-85130000D03*
X205760000Y-84630000D03*
X205760000Y-77630000D03*
X205760000Y-77130000D03*
X205760000Y-76630000D03*
X206260000Y-85630000D03*
X206260000Y-85130000D03*
X206260000Y-84630000D03*
X206260000Y-77630000D03*
X206260000Y-77130000D03*
X206760000Y-85130000D03*
X206760000Y-84630000D03*
X206760000Y-77630000D03*
X206760000Y-77130000D03*
X206760000Y-76630000D03*
X207260000Y-85630000D03*
X207260000Y-85130000D03*
X207260000Y-84630000D03*
X207260000Y-77630000D03*
X207260000Y-77130000D03*
X207260000Y-76630000D03*
X207760000Y-85630000D03*
X207760000Y-85130000D03*
X207760000Y-84630000D03*
X207760000Y-77630000D03*
X207760000Y-77130000D03*
X208260000Y-85130000D03*
X208260000Y-84630000D03*
X208260000Y-77630000D03*
X208260000Y-77130000D03*
X208260000Y-76630000D03*
X208760000Y-85630000D03*
X208760000Y-85130000D03*
X208760000Y-84630000D03*
X208760000Y-77630000D03*
X208760000Y-77130000D03*
X208760000Y-76630000D03*
X209260000Y-85630000D03*
X209260000Y-85130000D03*
X209260000Y-84630000D03*
X209260000Y-77630000D03*
X209260000Y-77130000D03*
X209760000Y-85130000D03*
X209760000Y-84630000D03*
X209760000Y-77630000D03*
X209760000Y-77130000D03*
X209760000Y-76630000D03*
X210260000Y-85630000D03*
X210260000Y-85130000D03*
X210260000Y-84630000D03*
X210260000Y-77630000D03*
X210260000Y-77130000D03*
X210260000Y-76630000D03*
X210760000Y-85630000D03*
X210760000Y-85130000D03*
X210760000Y-84630000D03*
X210760000Y-77630000D03*
X210760000Y-77130000D03*
X211260000Y-85130000D03*
X211260000Y-84630000D03*
X211260000Y-77630000D03*
X211260000Y-77130000D03*
X211260000Y-76630000D03*
X211760000Y-85630000D03*
X211760000Y-85130000D03*
X211760000Y-84630000D03*
X211760000Y-77630000D03*
X211760000Y-77130000D03*
X211760000Y-76630000D03*
X212260000Y-85630000D03*
X212260000Y-85130000D03*
X212260000Y-84630000D03*
X212260000Y-84130000D03*
X212260000Y-83630000D03*
X212260000Y-83130000D03*
X212260000Y-82630000D03*
X212260000Y-82130000D03*
X212260000Y-81630000D03*
X212260000Y-81130000D03*
X212260000Y-80630000D03*
X212260000Y-80130000D03*
X212260000Y-79630000D03*
X212260000Y-79130000D03*
X212260000Y-78630000D03*
X212260000Y-78130000D03*
X212260000Y-77630000D03*
X212260000Y-77130000D03*
X212260000Y-76630000D03*
X212760000Y-85630000D03*
X212760000Y-85130000D03*
X212760000Y-84630000D03*
X212760000Y-84130000D03*
X212760000Y-83630000D03*
X212760000Y-83130000D03*
X212760000Y-82630000D03*
X212760000Y-82130000D03*
X212760000Y-81630000D03*
X212760000Y-81130000D03*
X212760000Y-80630000D03*
X212760000Y-80130000D03*
X212760000Y-79630000D03*
X212760000Y-79130000D03*
X212760000Y-78630000D03*
X212760000Y-78130000D03*
X212760000Y-77630000D03*
X212760000Y-77130000D03*
X212760000Y-76630000D03*
X213260000Y-85630000D03*
X213260000Y-85130000D03*
X213260000Y-84630000D03*
X213260000Y-84130000D03*
X213260000Y-83630000D03*
X213260000Y-82630000D03*
X213260000Y-82130000D03*
X213260000Y-81130000D03*
X213260000Y-80630000D03*
X213260000Y-79630000D03*
X213260000Y-79130000D03*
X213260000Y-78130000D03*
X213260000Y-77630000D03*
X213260000Y-77130000D03*
X213260000Y-76630000D03*
G04 #@! TD*
D27*
G04 #@! TO.C,C83*
X207110000Y-59346779D03*
X205410000Y-59346779D03*
G04 #@! TD*
D29*
G04 #@! TO.C,X1*
X206695007Y-88026792D03*
X205395003Y-88026792D03*
X205395003Y-89026792D03*
X206695007Y-89026792D03*
G04 #@! TD*
D22*
G04 #@! TO.C,C24*
X207795000Y-89920000D03*
X208765000Y-89920000D03*
G04 #@! TD*
D21*
G04 #@! TO.C,R20*
X195890000Y-99615000D03*
X195890000Y-98645000D03*
G04 #@! TD*
D30*
G04 #@! TO.C,JB1*
X191189991Y-120735000D03*
X191189991Y-115685000D03*
X193729991Y-120735000D03*
X193729991Y-115685000D03*
X196269991Y-120735000D03*
X196269991Y-115685000D03*
X198809991Y-120735000D03*
X198809991Y-115685000D03*
X201349991Y-120735000D03*
X201349991Y-115685000D03*
G04 #@! TD*
D22*
G04 #@! TO.C,R2*
X207255000Y-106890000D03*
X208225000Y-106890000D03*
G04 #@! TD*
D21*
G04 #@! TO.C,R30*
X205090000Y-95565000D03*
X205090000Y-94595000D03*
G04 #@! TD*
D24*
G04 #@! TO.C,C102*
X214450000Y-65701779D03*
X214450000Y-66671779D03*
G04 #@! TD*
D22*
G04 #@! TO.C,R39*
X203745000Y-116920000D03*
X204715000Y-116920000D03*
G04 #@! TD*
D21*
G04 #@! TO.C,C94*
X208440000Y-59681779D03*
X208440000Y-58711779D03*
G04 #@! TD*
G04 #@! TO.C,C15*
X199450000Y-97095000D03*
X199450000Y-96125000D03*
G04 #@! TD*
G04 #@! TO.C,C14*
X207833460Y-88941859D03*
X207833460Y-87971859D03*
G04 #@! TD*
D30*
G04 #@! TO.C,JC1*
X217190015Y-120735000D03*
X217190015Y-115685000D03*
X219730015Y-120735000D03*
X219730015Y-115685000D03*
X222270015Y-120735000D03*
X222270015Y-115685000D03*
X224810015Y-120735000D03*
X224810015Y-115685000D03*
X227350015Y-120735000D03*
X227350015Y-115685000D03*
G04 #@! TD*
D20*
G04 #@! TO.C,U13*
X211150000Y-92910000D03*
X213050000Y-92910000D03*
X212100000Y-90911020D03*
G04 #@! TD*
D22*
G04 #@! TO.C,C12*
X219120000Y-81550000D03*
X220090000Y-81550000D03*
G04 #@! TD*
D31*
G04 #@! TO.C,U14*
X205739598Y-62131000D03*
X206539600Y-62131000D03*
X207339600Y-62131000D03*
X210539600Y-62131000D03*
X211339600Y-62131000D03*
X212139600Y-62131000D03*
X205739598Y-62931000D03*
X206539600Y-62931000D03*
X207339600Y-62931000D03*
X210539600Y-62931000D03*
X211339600Y-62931000D03*
X212139600Y-62931000D03*
X205739598Y-63731000D03*
X206539600Y-63731000D03*
X207339600Y-63731000D03*
X210539600Y-63731000D03*
X211339600Y-63731000D03*
X212139600Y-63731000D03*
X205739598Y-64531000D03*
X206539600Y-64531000D03*
X207339600Y-64531000D03*
X210539600Y-64531000D03*
X211339600Y-64531000D03*
X212139600Y-64531000D03*
X205739598Y-65331000D03*
X206539600Y-65331000D03*
X207339600Y-65331000D03*
X210539600Y-65331000D03*
X211339600Y-65331000D03*
X212139600Y-65331000D03*
X205739598Y-66131000D03*
X206539600Y-66131000D03*
X207339600Y-66131000D03*
X210539600Y-66131000D03*
X211339600Y-66131000D03*
X212139600Y-66131000D03*
X205739598Y-66931000D03*
X206539600Y-66931000D03*
X207339600Y-66931000D03*
X210539600Y-66931000D03*
X211339600Y-66931000D03*
X212139600Y-66931000D03*
X205739598Y-67731000D03*
X206539600Y-67731000D03*
X207339600Y-67731000D03*
X210539600Y-67731000D03*
X211339600Y-67731000D03*
X212139600Y-67731000D03*
X205739598Y-68531000D03*
X206539600Y-68531000D03*
X207339600Y-68531000D03*
X210539600Y-68531000D03*
X211339600Y-68531000D03*
X212139600Y-68531000D03*
X205739598Y-69331000D03*
X206539600Y-69331000D03*
X207339600Y-69331000D03*
X210539600Y-69331000D03*
X211339600Y-69331000D03*
X212139600Y-69331000D03*
X205739598Y-70131000D03*
X206539600Y-70131000D03*
X207339600Y-70131000D03*
X210539600Y-70131000D03*
X211339600Y-70131000D03*
X212139600Y-70131000D03*
X205739598Y-70931000D03*
X206539600Y-70931000D03*
X207339600Y-70931000D03*
X210539600Y-70931000D03*
X211339600Y-70931000D03*
X212139600Y-70931000D03*
X205739598Y-71731000D03*
X206539600Y-71731000D03*
X207339600Y-71731000D03*
X210539600Y-71731000D03*
X211339600Y-71731000D03*
X212139600Y-71731000D03*
X205739598Y-72531000D03*
X206539600Y-72531000D03*
X207339600Y-72531000D03*
X210539600Y-72531000D03*
X211339600Y-72531000D03*
X212139600Y-72531000D03*
X205739598Y-73331000D03*
X206539600Y-73331000D03*
X207339600Y-73331000D03*
X210539600Y-73331000D03*
X211339600Y-73331000D03*
X212139600Y-73331000D03*
X205739598Y-74131000D03*
X206539600Y-74131000D03*
X207339600Y-74131000D03*
X210539600Y-74131000D03*
X211339600Y-74131000D03*
X212139600Y-74131000D03*
G04 #@! TD*
D32*
G04 #@! TO.C,C40*
X215695000Y-77812779D03*
X214725000Y-77812779D03*
G04 #@! TD*
D22*
G04 #@! TO.C,R1*
X206925000Y-108110000D03*
X207895000Y-108110000D03*
G04 #@! TD*
D32*
G04 #@! TO.C,C29*
X221605000Y-79610000D03*
X220635000Y-79610000D03*
G04 #@! TD*
D24*
G04 #@! TO.C,C82*
X203430000Y-65521779D03*
X203430000Y-66491779D03*
G04 #@! TD*
D33*
G04 #@! TO.C,U1*
X211972500Y-118165000D03*
X211972500Y-117515000D03*
X211972500Y-116865000D03*
X211972500Y-116215000D03*
X211972500Y-115565000D03*
X211972500Y-114915000D03*
X211972500Y-114265000D03*
X211972500Y-113615000D03*
X211972500Y-112965000D03*
X211972500Y-112315000D03*
X211972500Y-111665000D03*
X211972500Y-111015000D03*
X211972500Y-110365000D03*
X211972500Y-109715000D03*
X206247500Y-109715000D03*
X206247500Y-110365000D03*
X206247500Y-111015000D03*
X206247500Y-111665000D03*
X206247500Y-112315000D03*
X206247500Y-112965000D03*
X206247500Y-113615000D03*
X206247500Y-114265000D03*
X206247500Y-114915000D03*
X206247500Y-115565000D03*
X206247500Y-116215000D03*
X206247500Y-116865000D03*
X206247500Y-117515000D03*
X206247500Y-118165000D03*
G04 #@! TD*
D27*
G04 #@! TO.C,C1*
X204790000Y-120310000D03*
X204790000Y-122010000D03*
G04 #@! TD*
D21*
G04 #@! TO.C,C99*
X214471260Y-64231459D03*
X214471260Y-63261459D03*
G04 #@! TD*
D22*
G04 #@! TO.C,C21*
X197295000Y-89730000D03*
X198265000Y-89730000D03*
G04 #@! TD*
D24*
G04 #@! TO.C,C87*
X209500000Y-58711779D03*
X209500000Y-59681779D03*
G04 #@! TD*
D23*
G04 #@! TO.C,JD1*
X220745013Y-58130008D03*
X225795013Y-58130008D03*
X220745013Y-60670008D03*
X225795013Y-60670008D03*
X220745013Y-63210008D03*
X225795013Y-63210008D03*
X220745013Y-65750008D03*
X225795013Y-65750008D03*
X220745013Y-68290008D03*
X225795013Y-68290008D03*
G04 #@! TD*
D34*
G04 #@! TO.C,J2*
X191650000Y-74260000D03*
X195550000Y-74260000D03*
X191650000Y-75530000D03*
X195550000Y-75530000D03*
X191650000Y-76800000D03*
X195550000Y-76800000D03*
X191650000Y-78070000D03*
X195550000Y-78070000D03*
X191650000Y-79340000D03*
X195550000Y-79340000D03*
G04 #@! TD*
D20*
G04 #@! TO.C,D22*
X217090000Y-94840760D03*
X218990000Y-94840760D03*
X218040000Y-92841780D03*
G04 #@! TD*
D21*
G04 #@! TO.C,C92*
X203430000Y-62271779D03*
X203430000Y-61301779D03*
G04 #@! TD*
D27*
G04 #@! TO.C,C44*
X212808000Y-94471000D03*
X211108000Y-94471000D03*
G04 #@! TD*
D21*
G04 #@! TO.C,C106*
X203440000Y-70941779D03*
X203440000Y-69971779D03*
G04 #@! TD*
D27*
G04 #@! TO.C,C41*
X209430000Y-92220000D03*
X209430000Y-93920000D03*
G04 #@! TD*
D20*
G04 #@! TO.C,V1*
X206700000Y-121930760D03*
X208600000Y-121930760D03*
X207650000Y-119931780D03*
G04 #@! TD*
D21*
G04 #@! TO.C,R59*
X214450000Y-72071779D03*
X214450000Y-71101779D03*
G04 #@! TD*
D20*
G04 #@! TO.C,D1*
X197047536Y-97366448D03*
X197047536Y-99266448D03*
X199046516Y-98316448D03*
G04 #@! TD*
D35*
G04 #@! TO.C,NT1*
X207490000Y-114630000D03*
X207990000Y-114630000D03*
G04 #@! TD*
M02*
