M48
; DRILL file {KiCad 7.0.1-0} date 2023 March 28, Tuesday 15:50:48
; FORMAT={-:-/ absolute / metric / decimal}
; #@! TF.CreationDate,2023-03-28T15:50:48-07:00
; #@! TF.GenerationSoftware,Kicad,Pcbnew,7.0.1-0
; #@! TF.FileFunction,MixedPlating,1,4
FMAT,2
METRIC
; #@! TA.AperFunction,Plated,PTH,ViaDrill
T1C0.200
; #@! TA.AperFunction,Plated,PTH,ViaDrill
T2C0.300
; #@! TA.AperFunction,Plated,PTH,ComponentDrill
T3C0.500
; #@! TA.AperFunction,Plated,PTH,ComponentDrill
T4C0.550
; #@! TA.AperFunction,Plated,PTH,ComponentDrill
T5C1.000
%
G90
G05
T1
X0.55Y8.31
X0.76Y22.67
X1.18Y54.58
X1.44Y43.5
X1.448Y40.211
X1.578Y49.27
X1.58Y23.78
X1.87Y5.7
X1.99Y52.82
X2.0Y44.21
X2.39Y0.56
X2.47Y25.11
X2.982Y38.529
X3.091Y51.88
X3.2Y54.01
X3.3Y64.54
X3.42Y8.17
X3.49Y5.99
X3.626Y52.763
X3.635Y21.923
X3.64Y13.265
X3.71Y41.97
X4.013Y12.28
X4.07Y56.94
X4.12Y21.03
X4.18Y59.5
X4.24Y39.13
X4.45Y53.098
X4.57Y23.55
X4.61Y54.32
X5.09Y53.905
X5.21Y15.18
X5.44Y5.15
X5.49Y9.16
X5.55Y24.98
X5.68Y6.06
X5.71Y0.76
X5.88Y18.11
X5.89Y19.05
X5.97Y1.77
X6.012Y44.128
X6.1Y21.26
X6.12Y43.29
X6.12Y8.69
X6.13Y10.57
X6.21Y52.08
X6.32Y15.42
X6.38Y41.84
X6.48Y65.03
X6.549Y59.601
X6.73Y28.49
X7.06Y11.64
X7.09Y0.61
X7.195Y15.345
X7.21Y40.396
X7.3Y37.71
X7.69Y30.28
X7.69Y21.22
X7.71Y5.55
X7.73Y23.44
X7.9Y50.89
X7.9Y49.3
X7.9Y47.64
X7.927Y46.032
X7.94Y64.87
X8.13Y33.435
X8.2Y59.33
X8.24Y62.19
X8.31Y6.05
X8.38Y52.78
X8.46Y57.34
X8.59Y28.25
X8.78Y29.58
X9.0Y27.16
X9.025Y23.355
X9.06Y62.21
X9.07Y66.96
X9.35Y24.45
X9.44Y64.64
X9.63Y34.28
X9.65Y37.07
X9.67Y37.78
X9.7Y5.69
X9.964Y31.035
X10.07Y33.23
X10.12Y24.934
X10.3Y17.95
X10.37Y21.3
X10.375Y32.247
X10.59Y3.04
X10.64Y29.2
X10.709Y31.306
X10.79Y13.78
X11.08Y25.085
X11.15Y14.59
X11.204Y17.756
X11.3Y26.75
X11.54Y13.88
X11.69Y48.35
X11.82Y49.623
X11.98Y6.48
X12.18Y50.29
X12.38Y47.431
X12.38Y45.985
X12.38Y16.72
X12.565Y38.765
X12.58Y13.74
X12.67Y14.53
X12.82Y45.07
X12.89Y60.9
X13.04Y2.72
X13.152Y47.548
X13.48Y45.563
X13.48Y14.61
X13.805Y7.835
X14.07Y25.1
X14.119Y54.785
X14.12Y20.08
X14.18Y44.24
X14.26Y5.07
X14.29Y0.98
X14.319Y30.3
X14.33Y19.3
X14.339Y36.29
X14.4Y14.94
X14.4Y9.36
X14.528Y41.069
X14.56Y28.69
X14.58Y38.33
X14.59Y33.62
X14.66Y65.34
X14.695Y34.167
X14.7Y62.923
X14.7Y36.89
X14.76Y32.94
X14.78Y62.203
X14.87Y27.55
X14.896Y47.958
X14.947Y29.517
X14.95Y11.38
X15.324Y56.374
X15.39Y19.39
X15.484Y58.889
X15.49Y20.59
X15.52Y57.163
X15.53Y14.27
X15.67Y33.68
X15.72Y15.17
X15.793Y60.503
X15.884Y61.85
X15.922Y50.869
X15.93Y53.249
X15.935Y52.429
X15.948Y51.667
X15.968Y59.738
X15.97Y26.62
X15.971Y50.067
X15.98Y17.28
X16.0Y9.58
X16.032Y54.522
X16.061Y61.183
X16.076Y56.892
X16.08Y20.21
X16.32Y32.15
X16.367Y46.275
X16.38Y64.193
X16.41Y43.313
X16.41Y41.69
X16.446Y42.695
X16.45Y45.257
X16.46Y33.96
X16.477Y45.761
X16.485Y44.009
X16.75Y26.97
X16.766Y52.869
X16.78Y15.14
X16.83Y31.293
X16.847Y54.476
X16.852Y58.527
X16.865Y50.493
X16.87Y51.291
X16.874Y49.797
X16.882Y55.309
X16.887Y52.132
X16.889Y56.072
X16.902Y53.761
X16.91Y40.002
X16.961Y57.75
X16.98Y25.67
X17.03Y29.46
X17.06Y31.97
X17.079Y47.507
X17.13Y32.91
X17.21Y45.343
X17.216Y46.227
X17.225Y44.743
X17.399Y40.014
X17.43Y3.14
X17.44Y28.37
X17.45Y22.86
X17.544Y48.107
X17.615Y57.685
X17.62Y19.82
X17.662Y61.687
X17.664Y49.766
X17.667Y51.298
X17.672Y56.993
X17.686Y61.008
X17.688Y60.087
X17.688Y46.097
X17.688Y52.936
X17.69Y55.279
X17.69Y58.476
X17.69Y54.494
X17.703Y52.066
X17.722Y50.508
X17.74Y64.278
X17.743Y53.818
X17.818Y43.41
X17.837Y45.39
X17.87Y44.733
X17.89Y42.113
X17.932Y40.066
X17.96Y6.38
X18.03Y10.97
X18.04Y24.95
X18.052Y48.035
X18.176Y46.13
X18.35Y19.29
X18.38Y38.13
X18.38Y3.25
X18.41Y14.02
X18.44Y31.68
X18.477Y43.422
X18.478Y40.131
X18.483Y59.183
X18.505Y48.248
X18.52Y45.445
X18.52Y42.133
X18.544Y47.511
X18.666Y46.141
X18.967Y34.715
X19.06Y10.04
X19.075Y19.115
X19.098Y40.797
X19.126Y43.426
X19.15Y26.58
X19.152Y46.199
X19.17Y20.99
X19.18Y42.113
X19.34Y27.4
X19.355Y48.698
X19.465Y47.931
X19.67Y38.17
X19.78Y28.79
X19.794Y43.424
X19.8Y42.083
X19.833Y46.059
X20.005Y36.46
X20.01Y22.21
X20.191Y35.282
X20.194Y34.663
X20.296Y46.217
X20.345Y53.465
X20.37Y40.81
X20.421Y43.422
X20.513Y52.318
X20.58Y26.013
X20.745Y57.528
X20.775Y58.53
X20.78Y13.985
X20.8Y42.127
X20.857Y56.087
X20.93Y27.835
X21.09Y40.833
X21.09Y36.96
X21.094Y46.104
X21.095Y43.426
X21.097Y45.296
X21.13Y41.433
X21.188Y37.658
X21.237Y40.046
X21.25Y30.72
X21.48Y21.73
X21.583Y46.133
X21.64Y19.34
X21.641Y55.256
X21.647Y56.914
X21.683Y10.46
X21.687Y44.705
X21.74Y32.62
X21.746Y42.75
X21.757Y40.875
X21.821Y49.058
X21.87Y33.25
X22.081Y46.182
X22.16Y26.4
X22.173Y49.545
X22.262Y60.017
X22.268Y64.469
X22.277Y55.323
X22.365Y41.493
X22.415Y48.229
X22.424Y43.974
X22.43Y19.33
X22.454Y43.463
X22.462Y56.878
X22.465Y54.481
X22.481Y61.695
X22.51Y44.6
X22.589Y40.012
X22.607Y46.213
X22.65Y35.09
X22.86Y0.72
X22.872Y48.047
X23.07Y17.51
X23.1Y15.41
X23.175Y37.446
X23.183Y54.492
X23.2Y63.993
X23.215Y48.945
X23.22Y3.06
X23.31Y32.05
X23.345Y56.974
X23.354Y50.745
X23.354Y50.148
X23.39Y61.651
X23.405Y59.745
X23.41Y53.173
X23.415Y58.065
X23.428Y60.468
X23.43Y51.637
X23.43Y52.603
X23.445Y58.885
X23.733Y48.129
X23.805Y59.345
X23.932Y62.968
X24.1Y34.71
X24.2Y38.273
X24.29Y54.203
X24.367Y48.777
X24.373Y44.588
X24.428Y58.418
X24.44Y35.789
X24.509Y47.833
X24.558Y46.213
X24.595Y61.988
X24.642Y60.926
X24.685Y59.979
X24.738Y40.268
X24.854Y20.297
X24.865Y11.35
X24.865Y10.42
X24.96Y17.52
X24.964Y34.37
X24.97Y33.34
X25.15Y51.34
X25.23Y37.41
X25.29Y3.74
X25.33Y26.8
X25.43Y33.91
X25.43Y27.78
X25.713Y44.024
X25.72Y1.65
X25.745Y36.735
X25.96Y31.81
X25.99Y35.29
X26.263Y28.251
X26.32Y18.12
X26.36Y32.915
X26.415Y44.375
X26.42Y36.41
X26.45Y31.05
X26.517Y7.337
X26.57Y17.15
X26.74Y65.2
X26.77Y60.923
X26.78Y26.46
X26.78Y3.94
X26.79Y59.993
X26.87Y58.91
X26.89Y19.73
X26.94Y35.94
X27.08Y44.17
X27.15Y12.92
X27.215Y30.924
X27.274Y5.375
X27.31Y47.48
X27.31Y23.36
X27.54Y22.63
X27.56Y45.8
X27.69Y30.28
X28.198Y14.228
X28.244Y63.96
X28.25Y60.95
X28.311Y13.615
X28.33Y55.121
X28.34Y20.77
X28.38Y60.09
X28.393Y5.78
X28.423Y41.043
X28.5Y36.09
X28.67Y67.22
X28.69Y29.39
X28.76Y56.7
X28.86Y1.363
X29.08Y6.435
X29.15Y12.59
X29.196Y54.879
X29.256Y61.125
X29.256Y60.31
X29.37Y66.74
X29.42Y35.02
X29.44Y13.35
X29.44Y35.856
X29.48Y32.53
X29.57Y41.85
X29.591Y58.485
X29.61Y59.73
X29.63Y41.28
X29.63Y34.16
X29.636Y37.43
X29.64Y18.77
X29.68Y47.76
X29.69Y30.09
X29.71Y62.11
X29.71Y56.89
X29.75Y44.191
X30.05Y21.3
X30.203Y16.045
X30.22Y53.27
X30.26Y39.28
X30.38Y38.49
X30.47Y56.99
X30.5Y60.163
X30.53Y45.88
X30.78Y64.51
X30.857Y27.57
X30.87Y51.04
X30.88Y20.14
X30.905Y36.06
X30.908Y11.183
X30.92Y1.363
X30.97Y47.04
X31.04Y35.44
X31.09Y32.51
X31.35Y38.47
X31.44Y17.19
X31.471Y37.698
X31.533Y12.287
X31.58Y6.735
X31.61Y51.411
X31.617Y50.116
X31.813Y10.793
X31.87Y28.24
X31.91Y30.22
X31.91Y1.75
X31.92Y8.9
X32.15Y19.861
X32.16Y56.84
X32.17Y27.75
X32.18Y5.1
X32.29Y29.5
X32.312Y12.486
X32.46Y20.32
X32.76Y43.31
X32.85Y51.432
X32.924Y50.107
X33.09Y12.795
X33.173Y0.812
X33.21Y57.56
X33.35Y49.08
X33.39Y32.3
X33.4Y38.67
X33.46Y64.0
X33.49Y66.41
X33.55Y18.27
X33.73Y21.625
X33.81Y58.9
X33.924Y56.26
X33.946Y54.131
X34.15Y35.37
X34.239Y4.446
X34.257Y13.59
X34.28Y0.65
X34.34Y21.34
X34.35Y11.34
X34.36Y28.58
X34.4Y29.42
X34.447Y26.47
X34.45Y19.94
X34.55Y51.42
X34.75Y52.5
X35.01Y17.775
X35.123Y65.111
X35.52Y67.04
X35.52Y19.93
X35.79Y54.96
X35.84Y62.65
X35.89Y51.57
X36.05Y60.061
X36.11Y30.0
X36.19Y24.12
X36.39Y11.77
X36.4Y62.09
X36.53Y17.176
X36.655Y31.6
X36.678Y7.591
X37.025Y2.281
X37.17Y39.97
X37.18Y64.39
X37.236Y59.269
X37.25Y14.07
X37.57Y21.85
X37.78Y67.35
X37.865Y15.106
X37.899Y62.58
X37.98Y17.9
X38.08Y53.39
X38.53Y19.36
X38.745Y15.821
X39.009Y64.34
X39.182Y21.222
X39.289Y62.28
X39.52Y11.58
T2
X31.741Y54.568
T5
X1.71Y34.63
X1.71Y32.09
X1.71Y29.55
X1.71Y27.01
X4.25Y34.63
X4.25Y32.09
X4.25Y29.55
X4.25Y27.01
X38.16Y41.24
X38.16Y38.7
X38.16Y36.16
X38.16Y33.62
X38.16Y31.08
X38.16Y28.54
T3
G00X38.86Y51.47
M15
G01X38.21Y51.47
M16
G05
G00X38.86Y44.47
M15
G01X38.21Y44.47
M16
G05
T4
G00X35.835Y50.62
M15
G01X35.835Y50.32
M16
G05
G00X35.835Y45.62
M15
G01X35.835Y45.32
M16
G05
T0
M30
